<svg version="1.1" xmlns="http://www.w3.org/2000/svg" xmlns:xlink="http://www.w3.org/1999/xlink" width="105.47334" height="147.04024" viewBox="0,0,105.47334,147.04024"><g transform="translate(-178.00031,-110.00024)"><g data-paper-data="{&quot;isPaintingLayer&quot;:true}" fill-rule="nonzero" stroke="none" stroke-width="1" stroke-linecap="butt" stroke-linejoin="miter" stroke-miterlimit="10" stroke-dasharray="" stroke-dashoffset="0" style="mix-blend-mode: normal"><g id="Back_Arm"><g id="Fill_4_" fill="#b1c7ff"><path d="M276.527,182.355c-0.002,-0.853 -0.608,-1.523 -0.967,-2.266c4.283,-2.756 8.358,1.16 5.391,4.369c-0.661,0.716 -1.782,0.75 -2.112,0.049c-0.32,-0.687 0.145,-2.099 -0.302,-2.312c-0.622,-0.295 -1.36,0.119 -2.01,0.16z" id="Finger2"/><path d="M281.96,185.15c0.409,1.225 0.606,3.351 -0.605,3.549c-1.211,0.196 -0.959,-2.021 -1.611,-2.729c1.104,0.188 1.666,-0.313 2.216,-0.82z" id="Finger1"/><path d="M281.077,189.685c0.927,1.422 -1.098,4.045 -2.494,2.453c-0.65,-0.744 -0.021,-2.033 -0.282,-2.796c-0.187,-0.556 -2.428,-0.772 -3.083,-0.917c-0.753,0.803 -2.304,3.118 -4.843,0.199c-2.346,1.878 -7.594,4.502 -13.237,3.172c0,0 -5.36,-1.261 -6.409,-3.802l3.062,-2.576l3.866,-2.927c1.173,0.855 4.224,2.811 8.048,3.171c1.117,0.175 2.311,0.01 3.42,-0.058c0.058,-1.379 -0.164,-2.515 0.644,-3.623c0.739,-1.016 2.939,-2.269 4.268,-1.624c1.233,0.594 2.229,4.17 0.686,4.719c-1.475,0.525 -1.69,-1.658 -2.336,-2.34l-0.684,0.34c-0.035,0.819 0.473,1.498 0.684,2.264c-0.226,0.376 -0.925,0.5 -0.845,1.021c0.518,0.218 1.051,-0.416 1.447,-0.646c1.575,2.164 3.86,-0.399 3.862,-2.188c1.229,-0.312 0.668,1.35 1.325,1.812c-0.501,0.238 -1.532,0.165 -1.647,0.832l2.055,0.075c0.559,0.986 0.256,4 2.493,3.439z" id="Hand_1_"/><path d="M253.524,183.425l-4.524,3.506c0,0 -1.565,-2.048 -2,-4.181l7.693,-3.542c1.301,-0.807 2.604,-1.893 4.135,-2.189c0.317,0.628 0.72,1.216 1.036,1.843z" id="Elbow_1_"/><path d="M248.199,179.884l-1.259,-2.812c2.666,-0.977 5.547,-2.709 5.547,-2.709c0.413,-0.128 0.834,-0.234 1.261,-0.326l1.567,2.595c0,0 -0.779,0.338 -1.425,0.694z" id="Arm"/><path d="M251.927,172.58c-3.448,2.33 -7.325,2.611 -7.325,2.611c-3.274,-2.183 -4.477,-5.691 -4.602,-10.441c-0.125,-4.75 5.256,-5.581 5.373,-5.699c1.683,-0.562 3.414,-0.93 4.826,-0.416c4.772,1.739 7.704,10.23 1.728,13.945z" id="Shoulder_1_"/></g><path d="M282.608,183.938c1.058,1.795 1.222,4.283 -0.367,5.401c0.267,3.568 -1.508,5.069 -3.661,4.72c-2.156,-0.35 -1.836,-2.517 -1.449,-4.002c-0.577,-0.148 -1.112,-0.447 -1.729,-0.453c-1.34,2.076 -3.516,2.787 -5.459,0.938c-2.476,1.975 -9.005,4.088 -13.445,2.626c-4.349,-0.98 -6.229,-3.342 -6.762,-4.165l-1.111,1.13c-2.75,-2.992 -4.023,-8.633 -4.023,-8.633l1.669,-0.75l-0.986,-3.183c-0.531,0.117 -1.025,0.18 -1.44,0.147c0,0 -4.867,-2.634 -5.231,-9.174c-0.364,-6.54 -1.036,-8.737 5.988,-11.39c0,0 0.006,0.005 0.008,0.007c1.905,-0.887 4.267,-1.097 6.225,-0.658c6.179,1.387 8.715,12.431 4.445,16.445c0.636,1.027 0.775,2.257 1.535,3.229c0.976,-0.202 2.293,-0.956 2.91,-0.746c0.489,0.168 1.099,1.626 1.568,2.892c0.34,0.879 0,1.832 0,1.832l-2.218,1.427c1.374,1.251 6.631,2.886 6.631,2.886c0.778,-0.093 1.892,0.203 2.452,-0.293c0.212,-1.655 0.106,-3.222 1.932,-4.078c1.364,-0.64 3.092,-1.901 4.51,-0.643c7.782,-4.93 10.427,2.46 8.008,4.488zM275.56,180.09c0.36,0.744 0.965,1.413 0.967,2.266c0.65,-0.041 1.388,-0.455 2.01,-0.16c0.448,0.212 -0.017,1.624 0.302,2.312c0.33,0.701 1.451,0.667 2.112,-0.049c2.967,-3.209 -1.108,-7.125 -5.391,-4.369zM251.927,172.58c5.976,-3.715 3.043,-12.206 -1.728,-13.945c-1.412,-0.514 -3.142,-0.146 -4.826,0.416c-0.117,0.118 -5.498,0.949 -5.373,5.699c0.125,4.75 1.328,8.258 4.602,10.441c0,0 3.877,-0.281 7.325,-2.611zM246.939,177.072l1.259,2.812l5.691,-2.558c0.647,-0.356 1.425,-0.694 1.425,-0.694l-1.567,-2.595c-0.427,0.093 -0.848,0.199 -1.261,0.326c0,0 -2.881,1.732 -5.547,2.709zM253.524,183.425l6.34,-4.563c-0.316,-0.628 -0.719,-1.216 -1.036,-1.843c-1.531,0.296 -2.834,1.382 -4.135,2.189l-7.693,3.542c0.435,2.133 2,4.181 2,4.181zM281.079,189.683c-2.238,0.562 -1.935,-2.452 -2.494,-3.438l-2.055,-0.075c0.115,-0.667 1.146,-0.594 1.647,-0.832c-0.657,-0.462 -0.096,-2.124 -1.325,-1.812c-0.002,1.789 -2.287,4.351 -3.862,2.188c-0.396,0.231 -0.928,0.865 -1.447,0.646c-0.08,-0.521 0.619,-0.644 0.845,-1.021c-0.211,-0.766 -0.719,-1.446 -0.684,-2.264l0.684,-0.34c0.646,0.682 0.861,2.865 2.336,2.34c1.543,-0.549 0.546,-4.125 -0.686,-4.719c-1.33,-0.645 -3.53,0.608 -4.268,1.624c-0.808,1.108 -0.586,2.244 -0.644,3.623c-1.109,0.069 -2.303,0.234 -3.42,0.058c-3.824,-0.36 -6.875,-2.317 -8.048,-3.171l-3.866,2.927l-3.062,2.576c1.049,2.541 6.409,3.802 6.409,3.802c5.642,1.33 10.89,-1.294 13.237,-3.172c2.539,2.919 4.09,0.604 4.843,-0.199c0.655,0.145 2.896,0.361 3.083,0.917c0.261,0.763 -0.368,2.052 0.282,2.796c1.396,1.592 3.421,-1.032 2.495,-2.454zM281.961,185.151c-0.551,0.507 -1.113,1.007 -2.217,0.819c0.652,0.708 0.4,2.924 1.611,2.729c1.211,-0.198 1.014,-2.324 0.606,-3.548z" id="Outline_7_" fill="#272525"/></g><g data-paper-data="{&quot;index&quot;:null}" id="L_Leg"><g id="Fill_5_" fill="#b1c7ff"><path d="M258.12463,224.62723c1.17424,0.20811 2.45199,0.42406 3.66931,0.61818c-0.82136,2.37323 -2.20987,5.11051 -3.76563,7.09037c3.78075,1.41897 7.59475,7.25283 8.48824,11.53564c-4.1851,-0.58143 -14.01898,-5.18253 -19.29879,-9.01629c1.52172,-2.64693 4.1106,-2.98299 6.42791,-3.47235c1.81936,-1.91761 3.26847,-4.36108 4.47897,-6.75555z" id="Shoe_1_"/><path d="M252.34607,208.86086c-1.23825,-1.04625 -0.97648,-4.29202 -0.37783,-5.80739c0.69537,-1.7583 2.09258,-3.9742 4.23104,-3.96638c5.02862,3.50104 9.31465,9.01557 9.03164,15.74974c-2.66133,0.75512 -5.37799,1.23107 -8.03064,2.01239c0.7368,-2.20303 -2.3878,-7.40717 -4.85422,-7.98835z" id="Leg_1_"/><path d="M265.52204,245.63587c0.09943,0.76529 -0.47502,0.93358 -1.03554,0.80006c-4.3411,-1.03181 -14.93645,-4.66842 -19.04275,-9.12342l0.43351,-1.00509c5.31741,4.12006 13.1696,7.63873 19.64477,9.32844z" id="Shoe_Sole_1_"/><path d="M267.56553,216.63922c0.20024,0.39164 -1.07416,7.02701 -1.63806,7.2058c-0.56753,0.17709 -10.04308,-1.70637 -10.37116,-1.8852c-0.32717,-0.17839 -0.00487,-2.25939 0.22921,-2.67198c0.23409,-0.41259 11.58069,-3.03985 11.78002,-2.64864z" id="Knee_1_"/></g><path d="M267.5039,214.21163c0,0 1.35187,-0.24655 1.70944,0.102c0.36029,0.34984 -1.55294,11.25936 -2.04013,11.5616c-0.15917,0.09858 -1.58277,-0.06116 -3.44652,-0.33311c-0.82906,2.06564 -2.11105,3.96882 -2.9708,5.79452c3.90686,3.12752 7.88025,7.63709 6.85949,13.41701c-0.26755,1.51875 -0.47327,2.75601 -1.53124,3.83842c-6.6566,-0.56039 -18.50631,-6.32632 -22.62925,-10.48076c0.78982,-5.38576 4.20879,-7.13481 5.51404,-7.40441c3.6974,-0.75357 5.39777,-3.50759 7.32985,-6.41336c-1.38579,-0.26352 -2.39876,-0.48078 -2.59598,-0.57366c-0.90018,-0.42392 0.10685,-5.20997 0.21428,-5.49208c0.1061,-0.28163 0.80417,-0.3862 1.08845,-0.62371c0.39509,-4.55694 -2.35299,-5.64324 -4.27291,-6.61037c-0.76372,-0.38508 0.56083,-1.56412 0.86016,-2.16925c0.23947,-0.05082 0.49505,-0.02552 0.75551,0.03634c2.4651,0.58166 5.58969,5.78581 4.85289,7.98884c2.65265,-0.78131 5.36933,-1.25726 8.03064,-2.01239c0.283,-6.73416 -4.00302,-12.2487 -9.03164,-15.74974c-0.22738,-0.15792 -0.45483,-0.31809 -0.6838,-0.46793c-0.22469,-1.05088 0.60899,-2.34944 1.53176,-2.79032c5.83061,4.12408 10.90339,10.45124 10.45576,18.38234zM261.79393,225.24542c-1.2173,-0.19411 -2.49506,-0.41007 -3.66931,-0.61818c-1.2105,2.39446 -2.65961,4.83794 -4.47897,6.75555c-2.31732,0.48936 -4.90621,0.82542 -6.42791,3.47235c5.27981,3.83376 15.11369,8.43485 19.29879,9.01629c-0.8935,-4.2828 -4.70839,-10.11709 -8.48824,-11.53564c1.55576,-1.97986 2.94427,-4.71715 3.76563,-7.09037zM265.52294,245.6363c-6.47518,-1.68971 -14.32826,-5.2088 -19.64477,-9.32844l-0.43351,1.00509c4.1063,4.455 14.70166,8.0916 19.04275,9.12342c0.56052,0.13353 1.13407,-0.0352 1.03554,-0.80006zM267.56372,216.63836c-0.19842,-0.39078 -11.54502,2.23647 -11.77911,2.64906c-0.23409,0.41259 -0.55639,2.49359 -0.22921,2.67198c0.32898,0.17925 9.80364,2.06228 10.37116,1.8852c0.56391,-0.17879 1.8383,-6.81418 1.63716,-7.20623z" id="Outline_9_" fill="#272525"/></g><g id="R_Leg"><g id="Fill_2_" fill="#b1c7ff"><path d="M227.52917,254.25479c-5.66568,-5.09446 -11.10455,-10.40136 -15.75976,-16.54769c0.07986,-0.32349 0.42375,-0.40809 0.57075,-0.69778c4.46389,6.45446 10.2954,11.42686 16.32031,16.2029c-0.04743,0.5342 -0.75111,0.65477 -1.13132,1.04256z" id="Shoe_Sole"/><path d="M218.99205,233.20737c1.16176,-1.01624 3.23606,-4.58486 4.04279,-6.59499c1.39385,1.17903 2.95917,2.48384 4.40903,3.6699c-0.93911,1.70236 -2.58901,4.91136 -2.07234,5.721c0.52458,0.81827 1.52539,1.64094 2.14626,2.4538c2.78865,3.66713 5.09367,8.82979 3.52055,13.36612c-4.32965,-1.87032 -13.96467,-12.08484 -16.82501,-16.19762c0.87544,-1.2957 2.41018,-2.29275 4.77871,-2.41823z" id="Shoe"/><path d="M221.25371,222.86508c0.2822,-0.68062 0.45906,-1.29685 0.61563,-1.82122c4.17592,1.63101 8.69083,3.91273 12.86764,5.90513c-0.86012,1.55901 -2.01935,2.78435 -2.82755,4.325c-3.18237,-2.85888 -7.25678,-5.92498 -10.65573,-8.4089z" id="Knee"/><path d="M224.90903,220.13658c0.31325,-3.15976 1.79084,-7.86322 1.43105,-11.40149c2.23247,-0.92884 4.06001,-0.17829 5.66192,0.74847c1.45925,0.84421 2.87263,2.4971 3.23584,4.47644c-0.45106,3.38824 -1.30407,6.67724 -2.01325,9.99958c-1.25379,-0.55602 -6.47937,-3.15835 -8.31556,-3.82299z" id="Leg"/></g><path d="M228.69034,257.04047c-3.07993,-1.32667 -17.32304,-15.55935 -19.28451,-18.80812c1.18195,-3.02947 3.48086,-6.28213 8.06857,-6.89983c1.99807,-1.16166 3.46806,-4.1236 4.38542,-5.71943c-1.67402,-1.43071 -2.89978,-2.51288 -2.99985,-2.67271l1.91729,-4.27662c0.55282,0.1989 1.11908,0.43012 1.60416,0.57813c1.37275,-4.58837 2.42794,-8.66444 1.88054,-13.52833c0.71356,-0.04993 1.08196,0.83548 1.66095,1.14155c0.22217,0.57042 0.35015,1.20602 0.41773,1.87867c0.36017,3.53918 -1.1178,8.24173 -1.43105,11.40149c1.83658,0.66556 7.06215,3.26788 8.31595,3.82392c0.70826,-3.32194 1.56219,-6.61134 2.01325,-9.99958c0.02201,-0.16836 0.05594,-0.33412 0.07572,-0.50265c0.81652,-0.11227 1.60566,0.35006 2.01912,1.10951c-0.46635,3.49207 -0.89556,6.74016 -2.00028,10.06458c0.76559,0.49163 2.20955,1.02053 2.29406,1.50741c0.08644,0.4915 -4.6467,7.90552 -5.19351,7.95539c-0.17824,0.01676 -1.67135,-1.12748 -3.60415,-2.68555c-0.46869,1.33876 -1.38599,2.52082 -1.38323,4.01652c5.98498,4.51864 8.84666,17.91519 1.24382,21.61564zM218.99258,233.20607c-2.36907,0.12678 -3.90289,1.12344 -4.77964,2.4186c2.85979,4.11409 12.49536,14.32731 16.82501,16.19762c1.57404,-4.53673 -0.73191,-9.699 -3.52055,-13.36612c-0.62088,-0.81285 -1.62169,-1.63553 -2.14626,-2.4538c-0.51665,-0.80966 1.13323,-4.01865 2.07234,-5.721c-1.44984,-1.18606 -3.01517,-2.49087 -4.40903,-3.6699c-0.80581,2.00974 -2.88012,5.57836 -4.04187,6.5946zM221.25501,222.86563c3.39764,2.48337 7.47205,5.54948 10.65442,8.40835c0.80726,-1.54028 1.96651,-2.7656 2.82755,-4.325c-4.17721,-1.99331 -8.6921,-4.27504 -12.86764,-5.90513c-0.15658,0.52438 -0.33344,1.14059 -0.61432,1.82176zM227.52932,254.25256c0.38059,-0.38689 1.08372,-0.50613 1.13077,-1.04126c-6.02453,-4.77512 -11.85604,-9.74752 -16.32031,-16.2029c-0.147,0.28969 -0.49088,0.37428 -0.57075,0.69778c4.65521,6.14633 10.09408,11.45322 15.76029,16.54638z" id="Outline_8_" fill="#272525"/></g><g id="Torso"><path d="M249.787,212.7c-6.831,0.694 -16.211,0.733 -23.623,1.28c-0.229,-3.315 -0.534,-8.297 -0.798,-11.627c0,0 -0.139,-6.42 1.029,-9.307c3.691,0.714 13.068,0.827 17.044,-0.246c2.802,-0.362 5.76,-1.516 8.024,-2.629l-0.003,0.003l2.729,3.474c2.252,2.793 5.858,6.275 7.974,9.353c-4.813,3.179 -7.509,6.968 -12.376,9.699z" id="Waist" fill="#b1c7ff"/><path d="M216.75,167.123c-0.091,-1.45 1.926,-1.912 3.047,-2.058c-0.578,1.043 -0.951,1.918 -0.672,2.058c0.75,0.376 6.168,2.418 10.142,2.795c7.208,1.278 15.299,-0.603 19.133,-6.514c0.104,-0.349 -0.844,-0.754 -1.162,-0.854c0.686,-0.794 3.007,-0.61 2.955,0.706c-0.086,2.256 -7.105,11.032 -20.693,8.437c-5.875,-1.181 -12.625,-2.568 -12.75,-4.57z" id="Neck_Rim" fill="#b1c7ff"/><path d="M240.958,172.993c1.643,4.859 4.029,12.829 4.578,18.105c-6.088,1.791 -14.623,1.078 -20.2,-0.07c0,0 -5.905,-6.876 -4.496,-19.2c4.099,1.19 8.59,1.899 8.59,1.899c3.676,0.728 7.797,0.428 11.528,-0.734z" id="Chest1" fill="#b1c7ff"/><path d="M247.694,190.341c-0.564,-4.162 -3.97,-15.094 -6.254,-17.511c2.079,-0.697 4.026,-1.658 5.687,-2.868c0.678,-0.1 4.37,8.724 5.596,12.431c0.557,1.892 0.801,4.538 0.801,4.538c-1.397,1.475 -4.107,2.72 -5.83,3.41z" id="Chest2" fill="#b1c7ff"/><path d="M229.119,168.055c0,0 -6.871,-1.794 -7.371,-2.362l1.904,-3.328l0.416,-0.724c0.52,-0.9 1.078,-1.781 1.727,-2.602c0,0 5.537,-5.539 13.749,-0.377c0.003,0.002 0.004,0.004 0.011,0.01c1.911,1.808 3.87,3.572 5.931,5.229c-0.162,0.527 -0.646,0.896 -1.11,1.192c-4.101,2.63 -10.283,3.711 -15.257,2.962z" id="Neck" fill="#b1c7ff"/><path d="M265.706,203.085c0,0 -1.001,0.861 -2.554,2.132c-2.522,2.064 -6.505,5.213 -10.062,7.538c-1.11,0.726 -2.179,1.372 -3.148,1.879c-2.003,0.173 -4.154,0.328 -6.379,0.474c-4.411,0.291 -9.107,0.554 -13.503,0.88c-2.29,0.171 -4.499,0.357 -6.542,0.576c-0.636,-4.375 -0.766,-10.206 -0.705,-14.488c0.06,-4.28 0.834,-7.157 1.376,-8.805c-7.811,-11.353 -5.114,-22 -5.114,-22c-2.827,-0.967 -5.068,-2.172 -4.825,-3.529c0.625,-3.492 3.43,-5.34 6.59,-4.416v0c0.41,-0.648 0.802,-1.238 1.082,-1.653l0.002,-0.003c0.242,-0.359 0.401,-0.588 0.401,-0.588l0.022,0.007l0.001,-0.001c-0.008,-0.002 -0.015,-0.005 -0.023,-0.006c0.713,-0.885 1.41,-1.786 1.94,-2.773c6.397,-7.276 16.154,-0.65 16.154,-0.65c0,0 3.922,2.929 4.175,3.146c0.018,0.016 0.035,0.032 0.053,0.049c0.007,0.007 0.015,0.008 0.023,0.015c0.479,0.41 0.975,0.82 1.514,1.117c0.25,-1.457 4.608,-2.371 5.664,0.471c0.917,2.469 -1.3,4.659 -2.812,5.965c0.819,1.315 1.291,2.777 1.882,4.188c0.028,0.134 0.071,0.266 0.108,0.399c0.351,0.858 0.724,1.809 1.098,2.797c0.277,0.778 1.694,4.797 2.5,7.75c0.197,0.823 0.41,1.776 0.552,2.58c0.013,0.146 0.035,0.278 0.064,0.396c0.1,0.65 0.134,1.149 0.039,1.301c-0.122,0.197 -0.903,0.751 -2.081,1.422l2.264,3.3c3.334,2.979 7.33,7.401 10.244,10.53zM247.129,169.962c-1.662,1.21 -3.609,2.172 -5.687,2.868c2.284,2.417 5.691,13.349 6.254,17.511c1.722,-0.689 4.432,-1.934 5.829,-3.41c0,0 -0.244,-2.645 -0.801,-4.538c-1.226,-3.707 -4.918,-12.531 -5.595,-12.431zM221.752,165.693c0.5,0.568 7.371,2.362 7.371,2.362c4.972,0.749 11.154,-0.332 15.255,-2.962c0.464,-0.296 0.948,-0.665 1.11,-1.192c-2.061,-1.657 -4.02,-3.421 -5.931,-5.229c-0.007,-0.006 -0.008,-0.008 -0.011,-0.01c-8.212,-5.162 -13.749,0.377 -13.749,0.377c-0.649,0.821 -1.207,1.702 -1.727,2.602l-0.416,0.724zM229.5,171.694c13.588,2.594 20.607,-6.182 20.693,-8.437c0.052,-1.316 -2.268,-1.5 -2.955,-0.706c0.318,0.1 1.266,0.505 1.162,0.854c-3.834,5.911 -11.925,7.792 -19.133,6.514c-3.974,-0.377 -9.392,-2.419 -10.142,-2.795c-0.28,-0.141 0.094,-1.016 0.672,-2.058c-1.12,0.146 -3.138,0.608 -3.047,2.058c0.125,2.001 6.875,3.388 12.75,4.57zM225.336,191.027c5.576,1.148 14.112,1.861 20.2,0.07c-0.549,-5.276 -2.934,-13.246 -4.578,-18.105c-3.731,1.163 -7.852,1.462 -11.528,0.734c0,0 -4.491,-0.709 -8.59,-1.899c-1.409,12.324 4.496,19.2 4.496,19.2zM262.163,203.001c-2.117,-3.079 -5.722,-6.56 -7.974,-9.353l-2.729,-3.474l0.003,-0.003c-2.263,1.113 -5.221,2.267 -8.024,2.629c-3.975,1.073 -13.352,0.96 -17.044,0.246c-1.169,2.887 -1.029,9.307 -1.029,9.307c0.264,3.33 0.569,8.312 0.798,11.627c7.412,-0.547 16.792,-0.586 23.623,-1.28c4.867,-2.731 7.563,-6.52 12.376,-9.699z" id="Outline_4_" fill="#272525"/></g><g id="Head"><g id="Helmet_Plume"><path d="M226.611,120.977c-0.156,0.861 -1.209,2.225 -2.022,3.36h-0.001c-0.165,0.228 -0.877,0.973 -1.788,1.978c-0.33,-3.114 -2.984,-4.032 -2.984,-4.032l-0.001,0.001c-0.805,-0.389 -1.887,-0.572 -2.534,-0.513c-5.692,0.517 -6.178,7.985 -8.107,8.189c-1.929,0.203 -4.453,-2.404 -5.896,-2.632c-1.771,-0.279 -4.197,0.857 -5.387,2.033c-3.901,3.851 1.212,11.088 -0.259,12.583c-1.471,1.495 -13.809,-0.327 -10.126,8.093c0.44,-7.371 8.947,-3.819 10.848,-5.858c2.935,-3.151 -3.835,-10.26 2.5,-14.227c4.718,-2.954 8.153,6.33 10.847,2.301c0.374,-0.559 0.707,-1.391 1.07,-2.328c0.157,1.803 0.56,3.393 0.564,3.411c0.724,7.799 -3.416,4.384 -7.872,4.682c-1.836,0.123 -4.059,2.179 -4.447,3.826c-0.142,0.606 -0.351,1.65 -0.106,2.235c0.671,-1.479 0.681,-2.732 2.435,-3.676c3.331,-1.795 7.765,2.235 10.799,-1.192c0.94,-1.062 0.941,-3.311 0.583,-4.983l0.002,0.001c-0.003,-0.011 -0.006,-0.022 -0.009,-0.033c-0.07,-0.32 -0.151,-0.62 -0.243,-0.884c-0.659,-2.869 -0.149,-5.947 0.206,-7.505c0.889,-1.372 2.072,-2.463 3.801,-2.705c2.475,0.428 3.074,2.968 3.212,4.458c-1.849,2.129 -3.921,4.803 -4.106,6.472c-0.002,0.017 -0.006,0.035 -0.008,0.052c-0.24,0.637 -0.417,1.331 -0.506,2.112c-0.47,1.403 -1.141,2.749 -1.604,3.599c-0.659,0.856 -1.89,4.093 -4.396,5.253c-3.56,1.647 -6.026,-1.614 -9.052,-0.249c-3.45,1.555 -0.024,7.281 -2.541,8.346c-1.826,0.772 -5.843,-1.536 -8.101,-1.043c-4.08,0.892 0.945,5.999 -3.546,7.85c-4.148,1.635 -7.043,-1.583 -8.621,-3.226c1.062,0.796 2.91,1.526 4.465,0.966c1.421,-0.558 1.699,-2.089 1.536,-2.881c-0.375,-1.822 -5.045,-4.206 -3.441,-7.601c2.449,-5.183 9.617,-4.547 10.694,-6.558c1.077,-2.012 -3.168,-4.895 -3.335,-9.34c-0.191,-5.043 2.324,-9.514 9.423,-10.93c3.505,-0.699 6.533,1.291 10.005,0.795c3.473,-0.496 3.204,-6.687 8.893,-8.793c4.498,-1.665 9.915,4.431 9.156,8.593z" id="Fill" fill="#9400ff"/><path d="M226.985,123.713c-0.302,0.159 -0.606,0.625 -1.136,1.065c-0.005,0.006 -4.548,5.934 -5.448,7.745c-0.683,1.373 -3.541,8.125 -4.958,11.449c-0.218,0.61 -0.479,1.223 -0.779,1.809c-0.008,0.017 -0.017,0.035 -0.02,0.042v-0.001c-0.875,1.696 -2.042,3.148 -3.197,3.548c-2.629,0.912 -7.261,-3.389 -8.893,-2.284c-1.633,1.105 2.971,7.445 -0.9,9.44c-3.237,1.667 -8.333,-3.266 -9.794,-2.385c-1.46,0.881 1.813,4.707 -0.742,7.005c-1.602,1.441 -4.32,1.564 -6.352,0.844c-4.516,-1.573 -5.481,-4.746 -6.266,-5.954c0.109,0.06 0.214,0.113 0.32,0.169c0.05,0.026 0.101,0.054 0.15,0.079c1.373,0.699 2.517,0.96 3.335,0.215c2.144,-1.952 -3.803,-5.422 -4.234,-8.097c-1.076,-6.662 10.473,-6.52 11.435,-7.899c0.961,-1.379 -3.731,-6.166 -3.548,-10.234c0.217,-4.83 3.201,-9.517 7.783,-11.823c6.765,-3.407 10.853,2.099 14.263,1.241c3.41,-0.857 2.685,-9.582 11.73,-9.686c7.682,-0.091 10.848,8.034 7.251,13.712zM224.594,124.34c0.813,-1.135 1.866,-2.499 2.022,-3.36c0.756,-4.164 -4.661,-10.26 -9.159,-8.595c-5.689,2.106 -5.42,8.297 -8.893,8.793c-3.472,0.496 -6.5,-1.494 -10.005,-0.795c-7.099,1.416 -9.614,5.887 -9.423,10.93c0.167,4.445 4.412,7.328 3.335,9.34c-1.077,2.011 -8.245,1.375 -10.694,6.558c-1.604,3.395 3.066,5.779 3.441,7.601c0.163,0.792 -0.115,2.323 -1.536,2.881c-1.554,0.559 -3.403,-0.17 -4.465,-0.966c1.578,1.643 4.473,4.861 8.621,3.226c4.491,-1.851 -0.534,-6.958 3.546,-7.85c2.258,-0.493 6.275,1.815 8.101,1.043c2.517,-1.065 -0.909,-6.791 2.541,-8.346c3.026,-1.365 5.492,1.896 9.052,0.249c2.506,-1.16 3.736,-4.397 4.396,-5.253c0.463,-0.85 1.133,-2.196 1.604,-3.599c0.237,-0.709 0.425,-1.43 0.506,-2.112c0.002,-0.017 0.006,-0.035 0.008,-0.052c0.185,-1.669 2.257,-4.343 4.106,-6.472c-0.138,-1.49 -0.737,-4.03 -3.212,-4.458c-1.729,0.242 -2.912,1.333 -3.801,2.705c-0.355,1.557 -0.865,4.636 -0.206,7.505c0.093,0.263 0.173,0.564 0.243,0.884c0.003,0.011 0.006,0.022 0.009,0.033l-0.002,-0.001c0.358,1.672 0.357,3.921 -0.583,4.983c-3.034,3.427 -7.468,-0.603 -10.799,1.192c-1.754,0.944 -1.764,2.197 -2.435,3.676c-0.245,-0.585 -0.036,-1.629 0.106,-2.235c0.388,-1.648 2.611,-3.703 4.447,-3.826c4.455,-0.298 8.596,3.117 7.872,-4.682c-0.004,-0.018 -0.407,-1.608 -0.564,-3.411c-0.363,0.937 -0.696,1.769 -1.07,2.328c-2.694,4.029 -6.129,-5.255 -10.847,-2.301c-6.335,3.967 0.435,11.076 -2.5,14.227c-1.901,2.039 -10.408,-1.513 -10.848,5.858c-3.683,-8.42 8.655,-6.598 10.126,-8.093c1.471,-1.495 -3.642,-8.732 0.259,-12.583c1.19,-1.176 3.616,-2.312 5.387,-2.033c1.443,0.228 3.967,2.835 5.896,2.632c1.929,-0.204 2.415,-7.672 8.107,-8.189c0.647,-0.058 1.73,0.124 2.534,0.513l0.001,-0.001c0,0 2.653,0.918 2.984,4.032c0.912,-1.006 1.623,-1.75 1.788,-1.978z" id="Outline" fill="#272525"/></g><g id="Helmet"><path d="M246.39,141.1c-2.332,2.832 -8.682,12.672 -9.424,14.655c-3.363,0.462 -6.781,0.205 -10.165,0.249c-5.074,-5.982 -10.468,-13.293 -7.464,-21.312c0.218,-0.581 0.528,-1.168 0.906,-1.743c-0.107,-0.061 -0.21,-0.131 -0.303,-0.219c-0.103,-0.097 -0.215,-0.185 -0.326,-0.272c-0.039,-0.031 -0.22,-0.171 -0.233,-0.181c-0.063,-0.049 -0.127,-0.097 -0.19,-0.144c-0.471,-0.35 -0.947,-0.696 -1.448,-1.002c-0.179,-0.109 -0.329,-0.252 -0.446,-0.414c-0.709,-0.468 -1.412,-0.99 -1.354,-1.528c0.075,-0.696 4.414,-4.53 5.095,-4.409c0.682,0.121 1.059,1.055 1.654,2.049c-0.011,0.007 -0.023,0.016 -0.034,0.023c0.599,0.701 1.201,1.416 1.63,2.214c1.336,-0.83 2.79,-1.399 4.206,-1.529c4.641,-0.43 9.052,3.32 12.281,5.962c-2.646,-0.508 -13.858,-1.727 -15.881,-0.497c-0.674,0.409 4.45,11.678 4.871,12.021c3.814,-0.597 14.776,-3.771 16.625,-3.923z" id="Fill_1_" fill="#b1c7ff"/><path d="M227.328,134.791c2.341,-0.07 9.765,-0.091 13.718,-0.097l1.54,4.617c-4.392,0.995 -9.385,2.819 -11.446,3.229c-0.308,0.061 -3.245,-5.685 -3.812,-7.749z" id="Face" fill="#a48458"/><path d="M249.828,139.312c0.014,0.833 -7.752,12.029 -10.09,17.605c-0.304,0.358 -0.616,0.711 -0.941,1.052c-0.011,-0.01 -0.022,-0.02 -0.032,-0.03c-3.26,-0.403 -8.609,-0.021 -12.055,0.322c-0.738,-0.14 -1.464,-0.511 -2.09,-0.903c-5.322,-7.027 -11.912,-15.12 -7.562,-24.115c-1.195,-1.153 -2.808,-1.912 -3.706,-3.328c1.404,-3.589 5.029,-5.817 8.153,-7.999c0.001,0.007 2.474,2.866 3.283,4.428c9.315,-1.469 13.491,1.028 18.793,8.347c0,0 -1.01,0 -2.535,0.002c-3.953,0.007 -11.377,0.028 -13.718,0.097c0.567,2.065 3.504,7.811 3.812,7.75c2.061,-0.409 7.054,-2.234 11.446,-3.229c3.179,-0.721 6.043,-1.01 7.242,0.001zM217.906,131.114c1.111,-1.491 3.304,-3.292 4.786,-4.286c-0.595,-0.994 -0.972,-1.928 -1.654,-2.049c-0.681,-0.121 -5.02,3.713 -5.095,4.409c-0.075,0.696 1.124,1.366 1.963,1.926zM235.542,155.906c0.795,-3.404 2.784,-10.402 4.063,-13.215c-3.661,0.942 -7.785,2.01 -9.84,2.332c-0.421,-0.343 -5.545,-11.612 -4.871,-12.021c2.023,-1.23 13.235,-0.011 15.881,0.497c-3.228,-2.642 -7.639,-6.392 -12.281,-5.962c-3.805,0.351 -7.918,3.842 -9.158,7.154c-3.004,8.019 2.39,15.33 7.464,21.312c2.908,-0.038 5.84,0.143 8.742,-0.097zM246.388,141.099c-0.675,0.056 -2.577,0.518 -4.896,1.108c-0.904,3.74 -4.181,10.753 -5.583,13.665c0.353,-0.034 0.705,-0.07 1.056,-0.118c0.742,-1.983 7.092,-11.823 9.423,-14.655z" id="Outline_1_" fill="#272525"/></g><g id="R_Eye"><path d="M242.207,136.774c0.742,1.28 0.142,2.425 -0.68,2.485c-0.607,0.045 -1.355,-0.513 -1.746,-1.948c-0.167,-0.616 0.021,-1.525 0.804,-1.688c0.782,-0.164 1.252,0.512 1.622,1.151z" id="White_1_" fill="#ffffff"/><path d="M241.139,137.442c0,-0.47607 0.411,-0.862 0.918,-0.862c0.507,0 0.918,0.38593 0.918,0.862c0,0.47607 -0.411,0.862 -0.918,0.862c-0.507,0 -0.918,-0.38593 -0.918,-0.862z" id="Pupil_1_" fill="#272525"/><path d="M241.938,139.98c-1.566,0.304 -2.811,-1.143 -3.214,-2.617c-0.482,-1.76 0.634,-3.614 2.873,-3.019c0.924,0.245 1.616,1.932 1.762,2.984c0.164,1.203 -0.243,2.424 -1.421,2.652zM242.207,136.774c-0.37,-0.639 -0.84,-1.315 -1.622,-1.151c-0.783,0.163 -0.971,1.072 -0.804,1.688c0.391,1.435 1.139,1.993 1.746,1.948c0.823,-0.06 1.422,-1.205 0.68,-2.485z" id="Outline_3_" fill="#272525"/></g><g id="L_Eye"><path d="M235.517,137.661c0.876,1.508 0.168,2.855 -0.801,2.927c-0.72,0.054 -1.604,-0.604 -2.066,-2.294c-0.199,-0.726 0.025,-1.796 0.95,-1.988c0.924,-0.193 1.481,0.601 1.917,1.355z" id="White" fill="#ffffff"/><path d="M234.141,138.192c0,-0.65225 0.56278,-1.181 1.257,-1.181c0.69422,0 1.257,0.52875 1.257,1.181c0,0.65225 -0.56278,1.181 -1.257,1.181c-0.69422,0 -1.257,-0.52875 -1.257,-1.181z" id="Pupil" fill="#272525"/><path d="M235.197,141.439c-1.852,0.356 -3.322,-1.348 -3.799,-3.084c-0.569,-2.072 0.752,-4.256 3.398,-3.557c1.09,0.29 1.913,2.275 2.082,3.516c0.194,1.416 -0.288,2.856 -1.681,3.125zM235.517,137.661c-0.436,-0.754 -0.993,-1.548 -1.917,-1.355c-0.925,0.192 -1.149,1.262 -0.95,1.988c0.462,1.69 1.346,2.348 2.066,2.294c0.969,-0.072 1.677,-1.419 0.801,-2.927z" id="Outline_2_" fill="#272525"/></g></g><g id="Front_Arm"><g id="Fill_3_" fill="#b1c7ff"><path d="M238.659,207.867c-1.46,1.348 -2.981,-1.53 -3.966,-0.633c-0.294,0.271 0.67,1.784 -0.617,1.936c-1.289,0.147 -2.521,-4.238 -2.669,-6.32c-0.257,0.01 -0.514,0.005 -0.771,-0.009c-0.082,-0.004 -0.163,-0.014 -0.244,-0.021c-0.176,-0.015 -0.353,-0.033 -0.529,-0.057c-0.093,-0.014 -0.185,-0.029 -0.277,-0.045c-0.167,-0.029 -0.334,-0.061 -0.5,-0.098c-0.091,-0.019 -0.181,-0.04 -0.271,-0.062c-0.175,-0.043 -0.349,-0.091 -0.522,-0.142c-0.076,-0.022 -0.152,-0.044 -0.228,-0.067c-0.22,-0.07 -0.439,-0.145 -0.656,-0.226c-0.025,-0.009 -0.052,-0.017 -0.077,-0.027c-0.25,-0.095 -0.498,-0.196 -0.742,-0.302c-0.041,-0.018 -0.08,-0.037 -0.12,-0.055c-0.199,-0.088 -0.396,-0.179 -0.59,-0.273c-0.067,-0.033 -0.132,-0.067 -0.198,-0.099c-0.167,-0.084 -0.333,-0.169 -0.496,-0.256c-0.068,-0.036 -0.136,-0.072 -0.203,-0.109c-0.164,-0.089 -0.324,-0.18 -0.483,-0.271c-0.057,-0.034 -0.116,-0.066 -0.173,-0.099c-0.181,-0.106 -0.358,-0.213 -0.532,-0.318c-0.029,-0.019 -0.06,-0.036 -0.089,-0.054c-0.209,-0.129 -0.413,-0.258 -0.61,-0.384c-0.003,-0.002 -0.005,-0.004 -0.008,-0.006c-0.189,-0.121 -0.371,-0.241 -0.549,-0.358c-0.056,-0.037 -0.109,-0.072 -0.163,-0.108c-0.129,-0.086 -0.257,-0.172 -0.38,-0.254c-0.096,-0.065 -0.194,-0.13 -0.285,-0.192v0c-0.42,-0.284 -0.795,-0.537 -1.104,-0.728c1.154,-1.785 2.801,-3.217 4.077,-4.918c0.22,0.303 0.458,0.646 0.71,1.011c0.141,0.204 0.288,0.416 0.439,0.634c0.037,0.054 0.075,0.107 0.113,0.161c0.105,0.15 0.211,0.301 0.32,0.454c0.049,0.069 0.099,0.139 0.149,0.208c0.103,0.144 0.207,0.286 0.314,0.432c0.055,0.074 0.109,0.148 0.165,0.222c0.109,0.145 0.22,0.288 0.332,0.432c0.055,0.07 0.108,0.141 0.164,0.211c0.125,0.156 0.253,0.311 0.382,0.466c0.047,0.055 0.091,0.11 0.138,0.165c0.355,0.416 0.727,0.816 1.116,1.189c0.044,0.042 0.09,0.081 0.135,0.123c0.149,0.137 0.299,0.273 0.452,0.402c0.067,0.056 0.136,0.107 0.204,0.162c0.135,0.108 0.269,0.211 0.407,0.31c0.079,0.056 0.159,0.108 0.239,0.161c0.131,0.087 0.264,0.17 0.398,0.247c0.085,0.05 0.172,0.097 0.258,0.142c0.135,0.07 0.27,0.133 0.407,0.193c0.089,0.038 0.178,0.077 0.269,0.111c0.141,0.053 0.285,0.096 0.429,0.137c0.089,0.025 0.177,0.053 0.267,0.074c0.158,0.035 0.319,0.056 0.481,0.076c0.079,0.01 0.156,0.026 0.236,0.031c0.242,0.017 0.488,0.018 0.738,-0.004c0.565,-0.544 0.302,-1.341 0.486,-2.022c0,0 0.318,-1.707 1.568,-1.54c1.25,0.167 2.668,2.334 1.584,2.834c-1.084,0.5 -1.417,1.584 -0.667,2.25c0.75,0.666 2.75,1.917 3.083,0.75c0.333,-1.167 1.732,-2.091 2.5,-1.258c0.768,0.833 0.514,4.418 -2.119,4.664c-1.075,0.182 -2.145,-1.08 -2.733,-0.614c-0.639,0.509 1.01,1.741 1.011,1.741z" id="Hand"/><path d="M218.501,196.61c-0.358,0.425 -0.726,0.848 -1.07,1.274c-2.064,-1.44 -3.917,-2.979 -5.083,-5.018c0.641,-0.246 1.281,-0.493 1.922,-0.739v0c2.761,-1.062 5.508,-2.144 8.193,-3.384c0.96,-0.444 1.914,-0.901 2.855,-1.393c0.211,0.498 0.582,0.895 0.634,1.441c-0.689,0.636 -1.367,1.29 -2.037,1.952v0c-1.912,1.888 -3.726,3.868 -5.414,5.867z" id="Elbow"/><path d="M221.304,186.654c0,0 -6.454,2.964 -7.423,3.479c-0.12,-0.404 -0.237,-0.821 -0.35,-1.244c-0.2,-0.752 -0.364,-1.534 -0.484,-2.337c0,0 0,0 0,-0.001c-0.111,-0.744 -0.19,-1.501 -0.17,-2.279c2.541,0 5.294,-0.396 7.835,-0.847z" id="Arm_1_"/><path d="M212.653,182.21c-0.349,0.006 -0.697,0.027 -1.047,0.022c-3.71,-5.602 -1.751,-15.726 6.3,-16.542c2.738,-0.277 5.851,0.768 7.252,3.179c0.761,1.309 1.513,2.893 0.9,4.323c-1.194,2.787 -2.527,5.394 -3.916,8.097c-3.145,0.455 -6.304,0.874 -9.489,0.921z" id="Shoulder"/></g><path d="M241.514,208.438c-0.189,0.036 -0.383,0.123 -0.582,0.276c-1.272,0.978 -1.941,1.384 -3.708,0.945c-1.253,-0.313 -0.779,0.609 -1.906,0.939c-3.463,1.021 -4.903,-3.596 -5.347,-5.959c-3.71,-1.472 -7.6,-1.847 -10.8,-4.521c-1.093,0.429 -0.666,2.08 -2.117,1.536c-3.382,-1.264 -8.228,-8.406 -7.782,-9.142c0.446,-0.731 2.7,-1.591 2.7,-1.591c-0.799,-2.434 -1.217,-4.468 -1.534,-6.756c-0.4,-0.248 -0.882,-0.016 -1.166,-0.248c-0.218,-0.18 -0.888,-1.486 -1.037,-1.79c-2.035,-4.133 -2.415,-9.271 -0.074,-13.363c2.425,-4.24 7.179,-6.508 12.165,-6.657c1.61,-0.029 1.44,0.042 3.124,0.726c2.746,1.587 3.391,2.977 4.506,4.712c2.14,3.331 -0.222,8.565 -0.222,8.565c-1.634,3.264 -3.838,7.54 -4.482,7.466c0.259,0.81 0.006,1.69 0.371,2.481c0.993,-0.358 1.88,-0.989 2.964,-1.094c0.883,1.221 1.695,2.487 2.541,3.727l-2.17,2.039c0.647,3.179 2.714,6.116 5.559,7.946c0.163,-0.366 0.134,-0.785 0.213,-1.166c0.731,-2.742 3.686,-1.509 5.853,-0.021c2.167,1.489 -0.083,3.429 -0.333,3.929c-0.25,0.5 0.834,0.334 1.267,0.138c0.433,-0.196 1.733,-3.638 4.329,-0.221c2.595,3.417 -2.33,7.101 -2.332,7.104zM212.653,182.21c3.185,-0.047 6.343,-0.466 9.489,-0.921c1.389,-2.703 2.722,-5.31 3.916,-8.097c0.613,-1.43 -0.139,-3.014 -0.9,-4.323c-1.401,-2.411 -4.514,-3.456 -7.252,-3.179c-8.051,0.815 -10.01,10.939 -6.3,16.542c0.35,0.005 0.698,-0.016 1.047,-0.022zM221.306,186.654l-0.593,-3.229c-2.541,0.451 -5.294,0.847 -7.835,0.847c-0.02,0.778 0.058,1.535 0.17,2.279c0.12,0.803 0.283,1.587 0.484,2.338c0.113,0.423 0.23,0.84 0.35,1.244c0.969,-0.515 7.423,-3.479 7.424,-3.479zM218.5,196.609c1.687,-1.999 3.502,-3.979 5.414,-5.867c0.67,-0.662 1.348,-1.316 2.037,-1.952c-0.052,-0.545 -0.423,-0.943 -0.634,-1.441c-0.941,0.493 -1.896,0.95 -2.855,1.393c-2.684,1.24 -5.432,2.322 -8.193,3.384c-0.64,0.246 -1.281,0.493 -1.922,0.739c1.166,2.039 3.019,3.579 5.083,5.018c0.345,-0.425 0.713,-0.848 1.07,-1.274zM238.656,207.867c0,0 -1.649,-1.232 -1.01,-1.741c0.587,-0.466 1.657,0.796 2.733,0.614c2.634,-0.246 2.888,-3.831 2.119,-4.664c-0.769,-0.833 -2.167,0.091 -2.5,1.258c-0.333,1.167 -2.333,-0.084 -3.083,-0.75c-0.75,-0.666 -0.417,-1.75 0.667,-2.25c1.084,-0.5 -0.333,-2.667 -1.583,-2.834c-1.25,-0.167 -1.568,1.54 -1.568,1.54c-0.184,0.68 0.078,1.477 -0.486,2.022c-0.25,0.023 -0.495,0.022 -0.738,0.004c-0.08,-0.005 -0.157,-0.021 -0.236,-0.031c-0.161,-0.019 -0.323,-0.041 -0.481,-0.076c-0.09,-0.02 -0.178,-0.049 -0.267,-0.074c-0.144,-0.041 -0.288,-0.084 -0.429,-0.137c-0.091,-0.034 -0.18,-0.073 -0.269,-0.111c-0.137,-0.059 -0.273,-0.123 -0.407,-0.193c-0.086,-0.045 -0.173,-0.092 -0.258,-0.142c-0.134,-0.077 -0.267,-0.16 -0.398,-0.247c-0.08,-0.053 -0.16,-0.105 -0.239,-0.161c-0.137,-0.099 -0.273,-0.203 -0.407,-0.31c-0.068,-0.055 -0.137,-0.106 -0.204,-0.162c-0.154,-0.129 -0.304,-0.264 -0.452,-0.402c-0.045,-0.042 -0.091,-0.081 -0.135,-0.123c-0.388,-0.373 -0.761,-0.773 -1.116,-1.189c-0.047,-0.055 -0.092,-0.11 -0.138,-0.165c-0.129,-0.154 -0.257,-0.31 -0.382,-0.466c-0.056,-0.07 -0.109,-0.141 -0.164,-0.211c-0.113,-0.144 -0.224,-0.288 -0.332,-0.432c-0.056,-0.075 -0.11,-0.149 -0.165,-0.222c-0.106,-0.145 -0.211,-0.288 -0.314,-0.432c-0.05,-0.069 -0.1,-0.139 -0.149,-0.208c-0.109,-0.152 -0.216,-0.305 -0.32,-0.454c-0.038,-0.054 -0.076,-0.107 -0.113,-0.161c-0.151,-0.219 -0.297,-0.43 -0.439,-0.634c-0.252,-0.365 -0.49,-0.708 -0.71,-1.011c-1.276,1.701 -2.923,3.133 -4.077,4.918c0.309,0.192 0.684,0.445 1.104,0.728c0.094,0.063 0.186,0.125 0.285,0.192c0.122,0.082 0.251,0.168 0.38,0.254c0.055,0.036 0.107,0.071 0.163,0.108c0.177,0.117 0.36,0.237 0.549,0.358c0.003,0.002 0.005,0.004 0.008,0.006c0.197,0.126 0.401,0.255 0.61,0.384c0.029,0.018 0.06,0.035 0.089,0.054c0.174,0.105 0.351,0.212 0.532,0.318c0.057,0.034 0.115,0.066 0.173,0.099c0.159,0.091 0.319,0.182 0.483,0.271c0.067,0.037 0.135,0.073 0.203,0.109c0.163,0.087 0.329,0.172 0.496,0.256c0.067,0.033 0.132,0.066 0.198,0.099c0.194,0.093 0.391,0.184 0.59,0.273c0.04,0.018 0.079,0.037 0.12,0.055c0.244,0.107 0.492,0.207 0.742,0.302c0.025,0.009 0.051,0.017 0.077,0.027c0.217,0.081 0.436,0.157 0.656,0.226c0.076,0.024 0.152,0.045 0.228,0.067c0.173,0.051 0.347,0.099 0.522,0.142c0.09,0.022 0.181,0.042 0.271,0.062c0.167,0.037 0.333,0.07 0.5,0.098c0.092,0.016 0.184,0.031 0.277,0.045c0.175,0.025 0.352,0.042 0.529,0.057c0.081,0.006 0.162,0.016 0.244,0.021c0.256,0.014 0.514,0.019 0.771,0.009c0.148,2.082 1.38,6.466 2.669,6.32c1.287,-0.153 0.323,-1.665 0.617,-1.936c0.985,-0.897 2.506,1.982 3.964,0.633z" id="Outline_6_" fill="#272525"/></g><g id="Sword"><path d="M269.788,178.409c-4.081,5.983 -20.787,18.425 -28.767,21.446c-0.25,0.096 -0.527,-0.557 -0.99,-0.994c6.781,-10.799 18.131,-16.703 29.757,-20.452z" id="Handle" fill="#ffc900"/><path d="M264.457,183.041c-2.946,2.947 -7.299,6.172 -10.984,8.254c-4.155,2.348 -7.443,5.685 -11.386,8.239c0.23,0.278 0.47,0.55 0.687,0.839c0.291,0.232 6.34,5.073 4.994,7.393c-0.572,0.4 -1.41,0.808 -2.117,0.448c-2.652,-1.344 -4.669,-2.909 -6.852,-5.925c-0.377,-0.404 -0.7,-0.853 -1.001,-1.319c-0.588,-0.728 -1.195,-1.39 -1.836,-1.935c-1.101,-0.936 -5.4,-7.689 -1.905,-8.458c3.234,-0.709 4.337,4.393 5.607,6.11c0,0.006 -0.001,0.012 -0.002,0.017c0.104,0.057 0.204,0.139 0.295,0.256c0.273,0.35 0.566,0.685 0.854,1.025c4.025,-2.539 7.591,-5.841 11.652,-8.417c3.52,-2.233 7.601,-4.962 10.58,-7.941c0.913,-0.913 2.327,0.501 1.414,1.414z" id="Blade" fill="#ffc900"/><path d="M274.069,175.825c-0.115,1.082 -1.544,2.49 -2.272,3.331c-7.106,8.182 -17.305,15.594 -27.315,20.365c2.061,2.318 7.328,5.862 5.082,9.438c-0.797,1.27 -2.896,1.787 -4.34,1.541c-0.49,-0.084 -0.942,-0.413 -1.38,-0.782l0.003,0.009c-0.02,-0.018 -0.041,-0.038 -0.061,-0.057c-0.224,-0.19 -0.445,-0.385 -0.665,-0.569c-0.042,-0.072 -0.091,-0.143 -0.134,-0.215c-3.173,-3.281 -9.321,-11.159 -10.39,-12.536c-1.438,-1.773 -3.219,-4.669 -2.197,-6.719c0.569,-1.138 3.235,-2.44 4.552,-2.034c2.253,0.697 5.064,5.411 6.248,7.303c3.366,-4.216 7.3,-8.095 11.909,-11.126c-0.005,-0.036 -0.022,-0.097 -0.031,-0.141c0.923,-0.579 1.851,-1.148 2.812,-1.662c1.44,-0.759 2.944,-1.364 4.366,-2.121c-0.002,-0.009 -0.007,-0.018 -0.01,-0.027c0.911,-0.232 2.023,-0.789 2.598,-1.051c2.836,-1.1 7.588,-2.757 11.225,-2.947zM242.748,200.351l-1.811,0.709l-2.437,-2.138c0.136,-0.832 1.181,-1.505 1.165,-2.235c-1.27,-1.716 -2.373,-6.819 -5.607,-6.11c-3.495,0.769 0.754,5.675 1.609,6.84c2.788,3.799 6.24,8.9 9.984,10.797c0.707,0.361 1.545,-0.048 2.117,-0.448c1.378,-2.377 -5.022,-7.414 -5.02,-7.415zM269.787,178.408c-11.626,3.749 -22.976,9.653 -29.757,20.452c0.179,0.169 0.33,0.37 0.463,0.548c3.925,-3.318 22.296,-17.468 23.046,-16.828c-1.894,2.497 -19.578,14.572 -22.996,16.894c0.187,0.249 0.337,0.435 0.478,0.381c7.981,-3.02 24.686,-15.462 28.766,-21.447z" id="Outline_5_" fill="#272525"/></g></g></g></svg>