<svg version="1.1" xmlns="http://www.w3.org/2000/svg" xmlns:xlink="http://www.w3.org/1999/xlink" width="244.04395" height="208.3234" viewBox="0,0,244.04395,208.3234"><g transform="translate(-115.87784,-73.74182)"><g data-paper-data="{&quot;isPaintingLayer&quot;:true}" fill-rule="evenodd" stroke="none" stroke-width="1" stroke-linecap="butt" stroke-linejoin="miter" stroke-miterlimit="10" stroke-dasharray="" stroke-dashoffset="0" style="mix-blend-mode: normal"><g data-paper-data="{&quot;index&quot;:null}" id="Shape"><path d="M211.78435,182.67745c18.95565,-29.01942 44.42966,1.35324 33.64067,22.4036c-5.69419,11.05144 -1.2737,17.59209 2.99694,21.12554c3.37156,2.85684 7.86697,1.80432 12.06269,12.10396c2.24771,5.63849 1.87309,22.40359 1.87309,24.58381c-0.14985,11.05144 -6.89297,3.45827 -7.9419,-1.65396c-4.04587,-20.44892 -4.72019,-22.62913 -9.44037,-24.73417c-4.79511,-2.18021 -17.68196,-8.9464 -28.54587,-13.75791c-10.86391,-4.81151 -12.28746,-28.3428 -4.64526,-40.07086z" id="Path" fill="#69b229"/><path d="M254.49075,265.14975c0.89908,-2.55611 -3.29664,-10.0741 4.94495,-8.26978c2.84709,0.60143 2.92202,3.53345 3.44648,8.1946c0.37462,3.23274 -1.04893,6.39029 -2.69725,6.76619c-2.32263,0.52626 -3.67125,1.05252 -4.49541,2.48094c-0.82416,1.42842 -1.64832,2.02986 -2.92202,1.27806c-0.89908,-0.52626 -0.89908,-1.8795 -0.89908,-1.8795c0,0 -0.37461,-0.07518 -1.12385,0.52626c-0.74923,0.60144 -1.72324,0.67662 -2.39755,-0.15036c-0.52446,-0.67662 -0.52446,-1.35324 -0.52446,-1.35324c-0.59939,0.15036 -0.89908,0.30072 -1.94801,-0.45108c-1.04893,-0.75179 -1.2737,-2.40575 0.37462,-3.23273c1.72324,-0.82698 2.17278,0.45108 3.44648,0.07518c1.2737,-0.3759 4.27065,-2.55611 4.79511,-3.98453z" id="Path" fill="#69b229"/><path d="M247.82257,272.74293c0,0 0,-0.15036 0,-0.3759c0,-0.15036 0,-0.22554 0.07492,-0.45108c0.07492,-0.15036 0.07492,-0.3759 0.22477,-0.52626c0.22477,-0.3759 0.59939,-0.7518 1.12385,-0.90216c0.22477,-0.07518 0.52447,-0.15036 0.82416,-0.15036c0.2997,0 0.52447,0 0.74924,-0.07518c0.44954,-0.07518 0.97401,-0.22554 1.42355,-0.45108c0.44954,-0.22554 0.82416,-0.3759 1.12385,-0.60144c0.2997,-0.22554 0.59939,-0.45108 0.74924,-0.60144c0.14985,-0.15036 0.22477,-0.22554 0.22477,-0.22554c0,0 -0.07493,0.15036 -0.14985,0.30072c-0.14985,0.22554 -0.2997,0.45108 -0.59939,0.7518c-0.29969,0.30072 -0.67431,0.52626 -1.12385,0.82698c-0.44954,0.22554 -0.97401,0.45108 -1.49847,0.52626c-0.2997,0 -0.52447,0 -0.82416,0c-0.22477,0 -0.44954,0.07518 -0.67431,0.07518c-0.22477,0.07518 -0.44954,0.15036 -0.59939,0.30072c-0.14985,0.15036 -0.29969,0.22554 -0.44954,0.3759c-0.22477,0.30072 -0.37462,0.60144 -0.37462,0.82698c-0.22477,0.22554 -0.22477,0.3759 -0.22477,0.3759z" id="Path" fill="#519b3d"/><path d="M252.01829,273.49472c-0.14985,0.15036 -0.14985,0.22554 -0.14985,0.22554c0,0 -0.14985,-0.45108 0.07492,-1.05252c0.07493,-0.30072 0.2997,-0.67662 0.59939,-0.90216c0.14984,-0.15036 0.29969,-0.30072 0.52446,-0.3759c0.14985,-0.15036 0.37462,-0.22554 0.59939,-0.30072c0.74924,-0.30072 1.5734,-0.52626 2.09786,-0.67662c0.59939,-0.22554 0.89908,-0.45108 0.89908,-0.45108c0,0 -0.07493,0.07518 -0.14985,0.22554c-0.14985,0.15036 -0.2997,0.30072 -0.59939,0.45108c-0.52447,0.30072 -1.34863,0.60144 -2.02294,0.90216c-0.74923,0.30072 -1.34862,0.7518 -1.57339,1.27806c-0.14984,0.22554 -0.22477,0.45108 -0.29969,0.67662z" id="Path" fill="#519b3d"/><path d="M252.31798,276.80264c0,0 -0.74923,-3.15756 0.82416,-2.85684c0.974,0.15036 0.59938,0.82698 0.07492,1.35324c-0.44954,0.45108 -0.74923,0.60144 -0.89908,1.5036z" id="Path" fill="#a1af93"/><path d="M249.02135,274.17134c-0.59939,0.45108 -0.89909,0.52626 -1.19878,1.35324c0,0 -0.22477,-3.23274 1.34862,-2.70648c0.974,0.3759 0.44954,0.90216 -0.14985,1.35324z" id="Path" fill="#a1af93"/><path d="M245.79962,272.44221c-0.74923,0.22554 -1.04893,0.22554 -1.57339,0.90216c0,0 0.89908,-3.15756 2.09786,-2.10504c0.74924,0.60144 0.14985,0.97734 -0.52446,1.20288z" id="Path" fill="#a1af93"/><path d="M243.17733,217.86164c0,0.60144 0.07492,0.82698 0.07492,0.82698c0,0 -0.14985,-0.22554 -0.22477,-0.67662c-0.14984,-0.45108 -0.29969,-1.1277 -0.29969,-1.95468c-0.07492,-0.3759 -0.07492,-0.82698 -0.07492,-1.35324c0,-0.45108 0,-0.97734 0.07492,-1.5036c0.07492,-0.52626 0.07492,-1.05252 0.22477,-1.57878c0.07492,-0.52626 0.22477,-1.05252 0.29969,-1.57878c0.14985,-0.52626 0.29969,-1.05252 0.44954,-1.57878c0.14984,-0.52626 0.29969,-0.97734 0.52446,-1.5036c0.14984,-0.45108 0.37461,-0.90216 0.52446,-1.35324c0.22477,-0.45108 0.37461,-0.82698 0.52446,-1.20288c0.29969,-0.7518 0.67431,-1.35324 0.89908,-1.72914c0.22477,-0.3759 0.37462,-0.67662 0.37462,-0.67662c0,0 -0.07492,0.22554 -0.29969,0.67662c-0.14985,0.45108 -0.44955,1.05252 -0.74924,1.80432c-0.14985,0.3759 -0.29969,0.7518 -0.44954,1.20288c-0.14985,0.45108 -0.29969,0.90216 -0.44954,1.35324c-0.14985,0.45108 -0.29969,0.97734 -0.44954,1.5036c-0.14985,0.52626 -0.2997,1.05252 -0.37462,1.57878c-0.14985,0.52626 -0.22477,1.05252 -0.37462,1.57878c-0.14985,0.52626 -0.14985,1.05252 -0.22477,1.5036c-0.14985,0.97733 -0.22477,1.95467 -0.14985,2.70647c0,0.82698 0.07493,1.5036 0.14985,1.95468z" id="Path" fill="#519b3d"/><path d="M243.25222,235.82961c-0.44954,-0.30072 -0.82416,-0.45108 -0.82416,-0.45108c0,0 0.29969,0.07518 0.89908,0.30072c0.59939,0.22554 1.42355,0.52626 2.32263,1.05252c0.44954,0.22554 0.97401,0.52626 1.49847,0.82698c0.22478,0.15036 0.52447,0.3759 0.74924,0.60144c0.22477,0.22554 0.37462,0.52626 0.59939,0.82698c0.74924,1.1277 1.34863,2.40575 1.79817,3.75899c0.44954,1.35324 0.82416,2.70647 1.19878,3.98453c0.2997,1.27805 0.59939,2.48093 0.82416,3.53345c0.22477,1.05252 0.37462,1.8795 0.44954,2.48094c0.07493,0.60144 0.14985,0.97734 0.14985,0.97734c0,0 -0.37462,-1.35323 -0.89908,-3.38309c-0.22477,-1.05251 -0.59939,-2.18021 -0.97401,-3.45827c-0.37462,-1.27806 -0.74924,-2.63129 -1.19878,-3.90935c-0.44954,-1.27805 -0.974,-2.63129 -1.72324,-3.68381c-0.14984,-0.22554 -0.37461,-0.52626 -0.52446,-0.7518c-0.14985,-0.22554 -0.44954,-0.3759 -0.67431,-0.60144c-0.44954,-0.3759 -0.97401,-0.60144 -1.42355,-0.90216c-0.89909,-0.52626 -1.72325,-0.90216 -2.24771,-1.20288z" id="Path" fill="#519b3d"/></g><g data-paper-data="{&quot;index&quot;:null}" id="Shape"><path d="M238.60697,78.02711c22.2523,3.98453 56.34251,39.77014 56.34251,39.77014c-7.11774,-2.78166 -29.74465,-2.33058 -18.58104,29.0946c0,0 -30.34404,-12.78058 -26.97248,19.92266c0,0 -44.42966,-24.73417 -67.05657,3.98453c0,0 17.23242,-47.28813 -3.37156,-71.42086c0,0 12.21253,-29.62086 59.63914,-21.35108z" id="Path" fill="#a1c380"/><path d="M180.5412,176.36235c-1.72324,7.59316 -15.58409,4.43561 -14.68501,-1.80432c0,0 22.85169,-24.88453 19.77982,-40.2964c-3.07187,-15.41187 -18.73089,-32.62806 -17.08257,-41.64964c1.64831,-9.02158 7.49235,-16.01331 15.05963,-15.11115c0,0 -9.21559,1.8795 -7.86697,9.77338c0,0 30.11927,-15.78776 59.71407,-13.15647c23.30123,2.10504 64.13456,47.96475 64.13456,47.96475c0,0 -48.40061,-40.44676 -65.78287,-41.4241c-17.45718,-0.97733 -46.1529,5.11223 -48.85015,12.78058c0,0 36.11315,-10.60036 47.27676,-2.40576c11.08868,8.19461 29.37003,24.43346 46.52752,59.84317c0,0 -35.81346,-48.26547 -49.37462,-52.77626c-13.56116,-4.51079 -43.08104,2.33058 -43.08104,2.33058c0,0 37.46177,4.88669 48.02599,25.56115c10.56422,20.67446 16.8578,45.18309 16.8578,45.18309c0,0 -20.82875,-47.28813 -36.03823,-54.20468c-14.61009,-6.691 -27.94648,-9.09676 -27.94648,-9.09676c0,0 9.66514,19.47158 7.11774,34.73309c-2.77217,17.06582 -11.08868,22.25323 -13.78593,33.75575z" id="Path" fill="#69b229"/><path d="M169.82714,170.1224c-1.19877,1.42842 -1.94801,2.18022 -1.94801,2.18022c0,0 2.77218,-3.23273 6.44343,-8.42014c1.79816,-2.63129 3.89602,-5.71367 5.76911,-9.17194c1.94801,-3.45828 3.74618,-7.29245 4.87003,-11.35216c0.52446,-2.02986 0.82416,-4.13489 0.67431,-6.16475c-0.22477,-2.02986 -0.67431,-4.05971 -1.19878,-5.93921c-1.12385,-3.75899 -2.5474,-7.21727 -3.89602,-10.0741c-2.69724,-5.71367 -4.94495,-9.3223 -4.94495,-9.3223c0,0 0.59939,0.90216 1.49847,2.48094c0.974,1.57878 2.2477,3.90936 3.67125,6.76619c1.42355,2.85683 2.92202,6.23993 4.04587,10.0741c0.52447,1.8795 1.04893,3.90935 1.2737,6.01439c0.14985,2.10504 -0.14984,4.28525 -0.67431,6.31511c-1.12385,4.13489 -2.99694,7.96907 -4.94495,11.42734c-1.94801,3.45827 -4.04587,6.54064 -5.91896,9.09676c-1.87309,2.55612 -3.5214,4.66115 -4.72018,6.08957z" id="Path" fill="#519b3d"/><path d="M185.26139,100.28034c-0.974,-0.07518 -1.57339,-0.15036 -1.57339,-0.22554c0,0.07518 0.59939,0.15036 1.64832,0.22554c1.04893,0.15036 2.5474,0.30072 4.27064,0.60144c1.79816,0.30072 3.8211,0.67662 5.99388,1.20288c2.17278,0.52626 4.49541,1.1277 6.74312,1.80432c2.2477,0.7518 4.57033,1.5036 6.59327,2.33058c2.09786,0.82698 3.97095,1.65396 5.61927,2.48094c1.64832,0.7518 2.92202,1.5036 3.8211,1.95468c0.89909,0.52626 1.42355,0.82698 1.42355,0.82698c0,0 -0.52446,-0.30072 -1.49847,-0.7518c-0.89908,-0.45108 -2.32263,-1.05252 -3.89602,-1.80432c-1.64832,-0.7518 -3.59633,-1.5036 -5.61927,-2.33058c-2.09786,-0.82698 -4.34556,-1.57878 -6.59327,-2.2554c-2.24771,-0.7518 -4.57034,-1.35324 -6.74312,-1.8795c-2.17278,-0.52626 -4.19572,-0.97734 -5.91896,-1.35324c-1.72324,-0.3759 -3.22171,-0.60144 -4.27064,-0.82698z" id="Path" fill="#519b3d"/><path d="M182.78893,94.11559c0,0 0.59939,-0.22554 1.64832,-0.60144c1.04893,-0.3759 2.5474,-0.82698 4.42049,-1.35324c0.89908,-0.30072 1.94801,-0.52626 2.99694,-0.82698c1.04893,-0.22554 2.17278,-0.52626 3.37156,-0.7518c2.32263,-0.52626 4.79511,-0.97734 7.34251,-1.35324c1.2737,-0.22554 2.5474,-0.3759 3.74618,-0.52626c1.2737,-0.15036 2.47247,-0.30072 3.67125,-0.3759c1.19877,-0.15036 2.32263,-0.15036 3.44648,-0.22554c1.12386,-0.07518 2.09786,-0.07518 3.07187,-0.15036c0.974,0 1.79816,-0.07518 2.62232,-0.07518c0.74924,0 1.42355,0 2.02294,0.07518c1.12385,0 1.72324,0.07518 1.72324,0.07518c0,0 -0.59939,0 -1.72324,0.07518c-0.52447,0 -1.19878,0 -2.02294,0.07518c-0.74923,0.07518 -1.64831,0.07518 -2.62232,0.15036c-0.97401,0.07518 -1.94802,0.07518 -3.07187,0.22554c-1.04893,0.07518 -2.24771,0.15036 -3.37156,0.30072c-1.19877,0.15036 -2.39755,0.22554 -3.67125,0.45108c-1.19878,0.15036 -2.47248,0.30072 -3.74618,0.52626c-2.47248,0.3759 -5.01988,0.82698 -7.34251,1.27806c-2.32263,0.45108 -4.49542,0.97734 -6.29358,1.42842c-1.87309,0.45108 -3.37156,0.90216 -4.42049,1.20288c-1.19877,0.15036 -1.79816,0.3759 -1.79816,0.3759z" id="Path" fill="#519b3d"/><path d="M175.74611,87.3494c0,0 0.82416,-0.45108 2.24771,-1.1277c0.67431,-0.3759 1.57339,-0.7518 2.5474,-1.20288c0.97401,-0.45108 2.09786,-0.97734 3.37156,-1.5036c1.2737,-0.52626 2.62232,-1.05252 4.04587,-1.65396c1.42355,-0.60144 2.99695,-1.1277 4.57034,-1.65396c1.64831,-0.52626 3.29663,-1.05252 4.94495,-1.57878c1.72324,-0.52626 3.44648,-1.05252 5.16972,-1.42842c0.89908,-0.22554 1.72324,-0.45108 2.62232,-0.67662c0.89908,-0.15036 1.72324,-0.3759 2.62232,-0.52626c0.89908,-0.15036 1.72324,-0.3759 2.62232,-0.52626c0.82416,-0.15036 1.72324,-0.30072 2.5474,-0.45108c0.82416,-0.15036 1.64832,-0.30072 2.47248,-0.3759c0.82416,-0.07518 1.57339,-0.15036 2.39755,-0.30072c0.74924,-0.07518 1.49847,-0.15036 2.24771,-0.22554c0.74924,-0.07518 1.42355,-0.07518 2.09786,-0.15036c1.34862,-0.07518 2.62232,-0.15036 3.67125,-0.22554c1.12385,0 2.02293,0 2.84709,0c1.5734,0 2.47248,0 2.47248,0c0,0 -0.89909,0 -2.47248,0.07518c-0.82415,0 -1.72324,0.07518 -2.84709,0.07518c-1.12385,0.07518 -2.32263,0.22554 -3.67125,0.30072c-0.67431,0.07518 -1.34862,0.07518 -2.09786,0.22554c-0.74924,0.07518 -1.49847,0.22554 -2.24771,0.30072c-0.74924,0.07518 -1.57339,0.22554 -2.32263,0.30072c-0.82416,0.15036 -1.64832,0.30072 -2.47248,0.45108c-0.82416,0.15036 -1.64832,0.30072 -2.5474,0.45108c-0.82416,0.15036 -1.72324,0.3759 -2.5474,0.52626c-0.89908,0.15036 -1.72324,0.3759 -2.62232,0.60144c-0.89908,0.22554 -1.72324,0.45108 -2.62232,0.67662c-1.72324,0.3759 -3.44648,0.90216 -5.16972,1.42842c-1.72324,0.45108 -3.37155,1.05252 -4.94495,1.5036c-1.5734,0.60144 -3.14679,1.05252 -4.57034,1.57878c-1.42355,0.52626 -2.84709,1.05252 -4.04587,1.57878c-2.5474,0.97734 -4.57033,1.8795 -5.99388,2.55612c-1.49847,0.52626 -2.32263,0.97734 -2.32263,0.97734z" id="Path" fill="#519b3d"/><path d="M181.51522,174.10694c-0.07492,0.3759 -0.07492,0.52626 -0.07492,0.52626c0,0 0,-0.15036 0,-0.45108c0,-0.30072 0.07492,-0.7518 0.22477,-1.35324c0.22477,-1.1277 0.82416,-2.78165 1.72324,-4.58597c0.44954,-0.90215 0.974,-1.87949 1.57339,-2.93201c0.59939,-0.97733 1.19878,-2.10503 1.87309,-3.15755c1.34862,-2.10504 2.5474,-4.58597 3.59633,-7.06691c1.04893,-2.48094 1.94801,-5.03705 2.5474,-7.51799c0.67432,-2.48094 1.12386,-4.73633 1.42355,-6.76619c0.2997,-2.02986 0.37462,-3.68381 0.37462,-4.88669c0,-0.60144 -0.07492,-1.05252 -0.07492,-1.35324c0,-0.30072 -0.07492,-0.45108 -0.07492,-0.45108c0,0 0,0.15036 0.07492,0.45108c0.07493,0.30072 0.07493,0.7518 0.14985,1.35324c0.07492,1.20288 0.07492,2.93201 -0.22477,4.88669c-0.22477,2.02986 -0.67431,4.36043 -1.2737,6.84137c-0.67431,2.48094 -1.49847,5.03705 -2.5474,7.59317c-1.04893,2.48094 -2.32263,4.96187 -3.67125,7.06691c-0.67431,1.05251 -1.34862,2.10503 -1.94801,3.08237c-0.59939,0.97733 -1.12386,1.95467 -1.5734,2.85683c-0.44954,0.90216 -0.82416,1.72914 -1.19878,2.48094c-0.29969,0.7518 -0.52446,1.42842 -0.67431,2.02986c-0.14985,0.60144 -0.22477,1.05252 -0.22477,1.35324z" id="Path" fill="#519b3d"/><path d="M185.93571,106.82098c-0.22477,-0.82698 -0.67431,-1.42842 -0.67431,-1.42842c0,0 0.14984,0.07518 0.29969,0.30072c0.22478,0.22554 0.44955,0.52626 0.74924,0.90216c0.59939,0.82697 1.2737,1.95467 1.79817,3.15755c0.52447,1.20287 1.04893,2.40575 1.2737,3.38309c0.14985,0.45108 0.22478,0.90216 0.2997,1.1277c0.07492,0.30072 0.07492,0.45108 0.07492,0.45108c0,0 -0.07492,-0.15036 -0.22477,-0.3759c-0.14985,-0.22554 -0.29969,-0.60144 -0.44954,-1.05252c-0.37462,-0.90215 -0.89908,-2.10503 -1.49847,-3.30791c-0.52447,-1.20287 -1.12385,-2.33057 -1.64832,-3.15755z" id="Path" fill="#519b3d"/><path d="M184.96171,93.43897c0,0 0,-0.30072 0.22477,-0.67662c0.07492,-0.22554 0.22477,-0.45108 0.44954,-0.67662c0.14985,-0.30072 0.44954,-0.52626 0.67431,-0.82698c0.2997,-0.30072 0.59939,-0.60144 0.97401,-0.82698c0.37462,-0.30072 0.74923,-0.60144 1.12385,-0.82698c0.37462,-0.30072 0.82416,-0.52626 1.2737,-0.82698c0.44954,-0.22554 0.89908,-0.52626 1.34862,-0.7518c0.44954,-0.22554 0.97401,-0.45108 1.42355,-0.67662c0.44954,-0.22554 0.97401,-0.3759 1.42355,-0.60144c0.89909,-0.3759 1.79817,-0.60144 2.47248,-0.90216c0.74923,-0.22554 1.34862,-0.3759 1.79816,-0.52626c0.44954,-0.15036 0.67431,-0.15036 0.67431,-0.15036c0,0 -0.974,0.3759 -2.39755,0.97734c-0.74924,0.30072 -1.5734,0.60144 -2.47248,0.97734c-0.44954,0.22554 -0.89908,0.3759 -1.34862,0.60144c-0.44954,0.22554 -0.89908,0.45108 -1.34862,0.67662c-0.44954,0.22554 -0.89908,0.45108 -1.34862,0.67662c-0.44954,0.22554 -0.89908,0.52626 -1.2737,0.7518c-0.37462,0.30072 -0.82416,0.52626 -1.12385,0.7518c-0.37462,0.22554 -0.67432,0.52626 -0.97401,0.7518c-0.2997,0.22554 -0.52447,0.52626 -0.74924,0.7518c-0.22478,0.22554 -0.37462,0.45108 -0.52447,0.60144c-0.22477,0.45108 -0.29969,0.7518 -0.29969,0.7518z" id="Path" fill="#519b3d"/><path d="M175.52133,84.56775c0.2997,-0.90216 0.59939,-1.42842 0.59939,-1.42842c0,0 -0.14985,0.60144 -0.22477,1.5036c-0.07492,0.45108 -0.07492,0.97734 -0.07492,1.5036c0,0.52626 0.14985,1.1277 0.37462,1.65396c0.07492,0.15036 0.14985,0.22554 0.22477,0.30072c0.07492,0.15036 0.22477,0.22554 0.29969,0.3759c0.22477,0.30072 0.2997,0.60144 0.37462,0.90216c0.14985,0.60144 0,1.20288 -0.22477,1.65396c-0.22477,0.45108 -0.52447,0.67662 -0.82416,0.82698c-0.22477,0.15036 -0.44954,0.07518 -0.44954,0.07518c0,0 0.14985,0 0.37462,-0.22554c0.22477,-0.15036 0.44954,-0.45108 0.59939,-0.82698c0.14984,-0.3759 0.22477,-0.90216 0.07492,-1.42842c-0.07493,-0.22554 -0.22477,-0.52626 -0.37462,-0.67662c-0.07492,-0.07518 -0.22477,-0.22554 -0.29969,-0.3759c-0.14984,-0.15036 -0.22477,-0.30072 -0.29969,-0.3759c-0.2997,-0.60144 -0.37462,-1.27806 -0.37462,-1.8795c0,-0.60144 0.07492,-1.1277 0.22477,-1.57878z" id="Path" fill="#519b3d"/><path d="M201.7446,158.244c-0.59939,0.22554 -0.82416,0.30072 -0.82416,0.30072c0,0 0.14984,-0.07518 0.52446,-0.15036c0.37462,-0.15036 0.89908,-0.22554 1.49847,-0.45108c0.67431,-0.15036 1.49847,-0.3759 2.39755,-0.52626c0.974,-0.15036 2.02293,-0.30072 3.22171,-0.3759c0.59939,-0.07518 1.19878,-0.07518 1.87309,-0.15036c0.59939,-0.07518 1.2737,0 1.94801,-0.07518c1.34862,-0.07518 2.77217,0.07518 4.27064,0.07518c0.74924,0 1.49847,0.15036 2.24771,0.22554c0.74924,0.07518 1.49847,0.15036 2.32263,0.22554c0.74924,0.15036 1.57339,0.22554 2.32263,0.3759l1.19878,0.15036l1.12385,0.22554c1.49847,0.3759 3.07187,0.67662 4.57034,1.1277c0.74924,0.22554 1.49847,0.45108 2.24771,0.60144c0.37461,0.07518 0.74923,0.22554 1.12385,0.30072c0.37462,0.15036 0.67431,0.22554 1.04893,0.3759c1.42355,0.45108 2.77217,0.97734 4.04587,1.42842c1.2737,0.52626 2.39756,0.97734 3.52141,1.42842c0.52446,0.22554 1.04893,0.45108 1.57339,0.67662c0.44954,0.22554 0.974,0.45108 1.34862,0.67662c0.82416,0.45108 1.5734,0.7518 2.24771,1.05252c1.19877,0.60144 1.94801,0.97734 1.94801,0.97734c0,0 -0.74923,-0.30072 -1.94801,-0.90216c-0.59939,-0.30072 -1.42355,-0.60144 -2.24771,-0.97734c-0.44954,-0.22554 -0.89909,-0.3759 -1.42355,-0.60144c-0.52446,-0.22554 -1.04893,-0.3759 -1.57339,-0.60144c-1.12386,-0.45108 -2.24771,-0.90216 -3.52141,-1.35324c-1.2737,-0.45108 -2.62232,-0.90216 -4.04587,-1.35324c-0.37462,-0.15036 -0.67431,-0.22554 -1.04893,-0.3759c-0.37462,-0.07518 -0.74924,-0.22554 -1.04893,-0.30072c-0.74923,-0.22554 -1.49847,-0.3759 -2.17278,-0.60144c-1.49847,-0.45108 -2.99695,-0.7518 -4.57034,-1.05252l-1.12385,-0.22554l-1.12385,-0.22554c-0.74924,-0.15036 -1.49847,-0.22554 -2.32263,-0.3759c-0.74924,-0.15036 -1.49847,-0.15036 -2.24771,-0.30072c-0.74924,-0.07518 -1.49847,-0.15036 -2.24771,-0.22554c-1.49847,-0.07518 -2.8471,-0.22554 -4.19572,-0.15036c-0.67431,0 -1.34862,0 -1.94801,0c-0.59939,0 -1.27371,0.07518 -1.79817,0.07518c-0.59939,0 -1.12386,0.07518 -1.64832,0.15036c-0.52446,0.07518 -1.04893,0.07518 -1.49847,0.15036c-0.97401,0.15036 -1.79817,0.30072 -2.47248,0.3759c-0.67431,0.15036 -1.19877,0.30072 -1.57339,0.3759z" id="Path" fill="#7d9950"/><path d="M214.25682,116.59435c-0.52447,-0.15036 -0.74924,-0.22554 -0.74924,-0.22554c0,0 0.22477,0 0.67431,0.15036c0.44954,0.15036 1.04893,0.3759 1.87309,0.82698c0.74923,0.3759 1.64831,0.97734 2.62232,1.72914c0.97401,0.75179 2.02294,1.65395 3.07187,2.70647c1.04893,1.05251 2.17279,2.25539 3.29664,3.53345c1.12386,1.27806 2.24771,2.70647 3.29664,4.28525c1.12385,1.5036 2.17278,3.08237 3.22171,4.73633c0.52446,0.82698 1.04893,1.65396 1.57339,2.48094c0.52446,0.82698 1.04893,1.65396 1.57339,2.55612c1.04893,1.72914 2.02293,3.45827 2.99694,5.11223c0.974,1.72914 1.87309,3.38309 2.77217,5.03705c1.79816,3.30791 3.37156,6.39029 4.72018,9.09676c1.34862,2.70648 2.39755,4.88669 3.14679,6.46547c0.74924,1.57878 1.19878,2.48094 1.19878,2.48094c0,0 -1.87309,-3.53345 -4.57034,-8.79604c-1.42355,-2.63129 -2.99694,-5.71367 -4.79511,-9.02158c-0.89908,-1.65396 -1.79816,-3.30791 -2.77217,-5.03705c-0.974,-1.72914 -1.94801,-3.45827 -2.99694,-5.11223c-0.52446,-0.82698 -1.04893,-1.72914 -1.57339,-2.55612c-0.52446,-0.82698 -1.04893,-1.65396 -1.57339,-2.48094c-1.04893,-1.65396 -2.09786,-3.23273 -3.22171,-4.73633c-1.04893,-1.5036 -2.17278,-2.93201 -3.22171,-4.28525c-1.04893,-1.35323 -2.17278,-2.55611 -3.22171,-3.60863c-2.09786,-2.10503 -4.04587,-3.68381 -5.54434,-4.51079c-0.74924,-0.45108 -1.34863,-0.67662 -1.79817,-0.82698z" id="Path" fill="#519b3d"/><path d="M274.42044,125.69113c-0.22477,0.52626 -0.29969,0.90216 -0.29969,0.90216c0,0 0.07492,-0.3759 0.22477,-0.97734c0.07492,-0.30072 0.22477,-0.67662 0.44954,-1.1277c0.14985,-0.45108 0.37462,-0.90216 0.67431,-1.35324c0.29969,-0.52626 0.67431,-0.97734 1.04893,-1.5036c0.44954,-0.45108 0.82416,-1.05252 1.42355,-1.5036c0.52446,-0.52626 1.12385,-0.90216 1.72324,-1.35324c0.2997,-0.22554 0.67432,-0.3759 0.97401,-0.52626c0.37462,-0.15036 0.67431,-0.3759 1.04893,-0.52626l1.04893,-0.3759c0.37461,-0.15036 0.74923,-0.22554 1.12385,-0.30072c0.37461,-0.07518 0.74923,-0.15036 1.12385,-0.22554l0.52446,-0.07518c0.14984,0 0.37461,0 0.52446,-0.07518c0.67432,-0.07518 1.42355,-0.07518 2.02294,-0.07518c0.67432,0.07518 1.27371,0.07518 1.79817,0.07518c0.2997,0 0.52447,0 0.82416,0.07518c0.22478,0.07518 0.52447,0.07518 0.74924,0.15036c0.44954,0.07518 0.82416,0.15036 1.19878,0.22554c0.67431,0.15036 1.04893,0.22554 1.04893,0.22554c0,0 -0.37462,0 -1.04893,-0.07518c-0.2997,0 -0.74924,-0.07518 -1.19878,-0.15036c-0.22478,0 -0.44955,-0.07518 -0.74924,-0.07518c-0.22477,0 -0.52447,0 -0.82416,0c-0.52447,0 -1.19878,0 -1.79817,0c-0.67432,0 -1.2737,0.15036 -2.02294,0.15036c-0.14984,0 -0.37461,0 -0.52446,0.07518l-0.52446,0.07518c-0.37462,0.07518 -0.67431,0.15036 -1.04893,0.22554c-0.37462,0.07518 -0.67431,0.15036 -1.04893,0.30072l-1.04893,0.3759c-0.37462,0.15036 -0.67432,0.30072 -0.97401,0.45108c-0.2997,0.15036 -0.67432,0.30072 -0.97401,0.52626c-0.59939,0.3759 -1.19878,0.7518 -1.72324,1.27806c-0.52447,0.45108 -0.97401,0.97734 -1.42355,1.42842c-0.37462,0.52626 -0.82416,0.97734 -1.04893,1.42842c-0.2997,0.45108 -0.52447,0.90216 -0.74924,1.27806c-0.22477,0.3759 -0.37461,0.7518 -0.52446,1.05252z" id="Path" fill="#7d9950"/><path d="M250.36997,153.4325c0,0 0.07493,-0.45108 0.37462,-1.1277c0.14985,-0.3759 0.37462,-0.7518 0.59939,-1.20288c0.14985,-0.22554 0.29969,-0.45108 0.44954,-0.7518c0.14984,-0.22554 0.37461,-0.52626 0.52446,-0.7518c0.14985,-0.30072 0.44954,-0.52626 0.67431,-0.7518c0.22478,-0.22554 0.44955,-0.52626 0.74924,-0.7518c0.2997,-0.22554 0.59939,-0.52626 0.82416,-0.7518c0.2997,-0.22554 0.67432,-0.45108 0.97401,-0.67662c0.14984,-0.15036 0.37461,-0.22554 0.52446,-0.3759c0.14984,-0.07518 0.37461,-0.22554 0.52446,-0.30072c0.37461,-0.22554 0.74923,-0.3759 1.12385,-0.60144c0.37462,-0.15036 0.82416,-0.30072 1.19878,-0.45108l0.59939,-0.22554c0.22477,-0.07518 0.44954,-0.07518 0.59939,-0.15036c0.82416,-0.15036 1.72324,-0.3759 2.5474,-0.3759c0.82416,-0.07518 1.64832,-0.15036 2.47248,-0.07518c0.82416,0.07518 1.57339,0.07518 2.32263,0.15036c0.74924,0.15036 1.42355,0.22554 2.02294,0.3759c0.67431,0.07518 1.19878,0.30072 1.72324,0.45108c0.52446,0.15036 0.97401,0.30072 1.2737,0.3759c0.74923,0.22554 1.12385,0.3759 1.12385,0.3759c0,0 -0.44954,-0.07518 -1.12385,-0.22554c-0.37461,-0.07518 -0.82416,-0.15036 -1.34862,-0.30072c-0.52446,-0.15036 -1.04893,-0.22554 -1.72324,-0.30072c-0.59939,-0.07518 -1.34863,-0.15036 -2.02294,-0.30072c-0.37461,-0.07518 -0.74923,-0.07518 -1.12385,-0.07518c-0.37462,0 -0.74924,0 -1.19878,-0.07518c-0.82416,-0.07518 -1.5734,0 -2.47248,0.07518c-0.82416,0 -1.64832,0.22554 -2.47248,0.3759c-0.22477,0.07518 -0.44954,0.07518 -0.59939,0.15036l-0.59939,0.22554c-0.37462,0.15036 -0.82416,0.30072 -1.19878,0.3759c-0.37461,0.15036 -0.74923,0.3759 -1.12385,0.52626l-0.52446,0.30072c-0.14984,0.07518 -0.29969,0.22554 -0.52446,0.30072c-0.2997,0.22554 -0.67432,0.45108 -0.97401,0.67662c-0.2997,0.22554 -0.59939,0.45108 -0.82416,0.67662c-0.2997,0.22554 -0.52447,0.52626 -0.74924,0.7518c-0.22477,0.22554 -0.44954,0.45108 -0.67431,0.7518c-0.22477,0.22554 -0.37462,0.45108 -0.59939,0.67662c-0.14985,0.22554 -0.29969,0.45108 -0.44954,0.67662c-0.29969,0.45108 -0.52446,0.82698 -0.67431,1.1277c-0.07492,0.7518 -0.22477,1.20288 -0.22477,1.20288z" id="Path" fill="#7d9950"/><path d="M223.92193,96.89724c-0.97401,-0.07518 -1.49847,-0.15036 -1.49847,-0.15036c0,0 0.52447,0 1.42355,0.15036c0.89909,0.15036 2.24771,0.30072 3.74618,0.60144c0.74924,0.15036 1.5734,0.3759 2.47248,0.67662c0.89908,0.30072 1.72324,0.7518 2.5474,1.27806c1.72324,0.97734 3.37156,2.25539 5.01988,3.68381c1.57339,1.35324 3.07186,2.85683 4.49541,4.21007c1.42355,1.35323 2.62233,2.70647 3.74618,3.83417c2.17279,2.25539 3.52141,3.83417 3.52141,3.83417c0,0 -1.49847,-1.50359 -3.74618,-3.68381c-1.12385,-1.12769 -2.47248,-2.40575 -3.8211,-3.75899c-1.42354,-1.35324 -2.92202,-2.78165 -4.49541,-4.13489c-1.57339,-1.35323 -3.22171,-2.63129 -4.87003,-3.68381c-0.82416,-0.45108 -1.64832,-0.97734 -2.47248,-1.27806c-0.82416,-0.30072 -1.64831,-0.60144 -2.39755,-0.7518c-1.49847,-0.3759 -2.77217,-0.67662 -3.67125,-0.82698z" id="Path" fill="#519b3d"/><path d="M299.59474,122.15768c0,0 -2.47248,-1.8795 -6.14373,-4.73633c-1.87309,-1.42842 -3.97095,-3.08237 -6.29358,-4.88669c-2.32263,-1.80432 -4.72018,-3.68381 -7.19266,-5.56331c-2.47247,-1.8795 -4.94495,-3.75899 -7.26758,-5.48813c-2.32263,-1.72914 -4.49542,-3.30791 -6.44343,-4.66115c-0.974,-0.67662 -1.79816,-1.27806 -2.62232,-1.80432c-0.82416,-0.52626 -1.49848,-0.97734 -2.02294,-1.35324c-1.19878,-0.67662 -1.79817,-1.1277 -1.79817,-1.1277c0,0 0.67431,0.3759 1.87309,1.05252c0.59939,0.30072 1.2737,0.7518 2.09786,1.27806c0.82416,0.45108 1.72324,1.05252 2.69725,1.72914c1.94801,1.27806 4.19572,2.78165 6.51835,4.51079c2.32263,1.72914 4.87003,3.53345 7.34251,5.41295c2.47248,1.8795 4.94495,3.75899 7.19266,5.56331c2.2477,1.80432 4.42048,3.53345 6.21865,4.96187c1.79817,1.42841 3.29664,2.70647 4.34557,3.60863c0.89908,0.97734 1.49847,1.5036 1.49847,1.5036z" id="Path" fill="#519b3d"/></g><g data-paper-data="{&quot;index&quot;:null}" id="Shape"><path d="M151.39596,194.17997c8.46636,-12.10395 26.37309,1.65396 24.72477,11.65288c-1.64831,10.14928 -7.79204,15.48705 -3.89602,26.16259c3.59633,9.77338 -4.49542,16.91547 -11.98777,27.36547c-8.84098,12.3295 -14.83486,8.11942 -14.16055,5.48813c0.59938,-2.55611 3.14678,-2.78165 7.49235,-8.26978c3.44648,-4.36044 10.4893,-17.06583 1.72324,-28.11727c-8.76605,-11.05143 -8.84097,-27.13992 -3.89602,-34.28201z" id="Path" fill="#69b229"/><path d="M146.52593,263.42061c2.17278,-1.65395 7.6422,-3.30791 10.56422,-2.93201c2.92202,0.52626 -0.44954,3.68381 -0.44954,5.41295c0,1.12769 2.92202,1.12769 2.09786,2.85683c-0.44954,0.97734 -1.5734,0.52626 -2.47248,-0.07518c-0.59939,-0.3759 -1.42355,0 -2.09786,0.60144c-0.97401,0.90216 -1.79817,1.8795 -3.52141,1.8795c-2.32263,0 -3.8211,0.22554 -4.94495,1.42842c-1.12385,1.20288 -2.09786,1.5036 -3.14679,0.52626c-0.74923,-0.7518 -0.44954,-2.02986 -0.44954,-2.02986c0,0 -0.44954,-0.22554 -1.2737,0.22554c-0.89908,0.3759 -1.87309,0.30072 -2.32263,-0.67662c-0.37462,-0.7518 -0.22477,-1.42842 -0.22477,-1.42842c-0.67432,0.07518 -0.97401,0.07518 -1.79817,-0.82698c-0.82416,-0.97733 -0.67432,-2.63129 1.12385,-3.08237c1.79817,-0.3759 1.94802,0.97734 3.29664,0.90216c1.34863,-0.07518 4.42049,-1.87949 5.61927,-2.78165z" id="Path" fill="#69b229"/><path d="M158.66355,269.20947c-0.52447,0 -0.97401,-0.22554 -0.59939,-0.7518c0.52446,-0.90216 1.72324,1.20288 1.72324,1.20288c-0.52446,-0.45108 -0.74923,-0.45108 -1.12385,-0.45108z" id="Path" fill="#a1af93"/><path d="M171.99994,231.09329c0,0 -0.14984,-0.22554 -0.29969,-0.7518c-0.14985,-0.45108 -0.37462,-1.1277 -0.59939,-2.02986c-0.07492,-0.45108 -0.14985,-0.90216 -0.22477,-1.35324c-0.07492,-0.52626 -0.07492,-1.05252 -0.07492,-1.57878c0,-0.52626 0,-1.1277 0.07492,-1.65396c0.07492,-0.60144 0.07492,-1.1277 0.22477,-1.72914c0.14985,-0.60144 0.22477,-1.1277 0.37462,-1.72914c0.14985,-0.52626 0.29969,-1.1277 0.44954,-1.57878c0.14984,-0.52626 0.37461,-0.97734 0.52446,-1.5036c0.22477,-0.45108 0.37461,-0.90216 0.52446,-1.27806c0.14984,-0.3759 0.29969,-0.7518 0.52446,-1.05252c0.14985,-0.30072 0.29969,-0.60144 0.44954,-0.82698c0.22477,-0.45108 0.37462,-0.67662 0.37462,-0.67662c0,0 -0.07492,0.30072 -0.29969,0.7518c-0.14985,0.45108 -0.52447,1.1277 -0.74924,1.95468c-0.14985,0.3759 -0.29969,0.82698 -0.44954,1.27806c-0.14985,0.45108 -0.29969,0.97734 -0.44954,1.5036c-0.14985,0.52626 -0.2997,1.05252 -0.37462,1.57878c-0.14984,0.52626 -0.22477,1.1277 -0.29969,1.65396c-0.07492,0.52626 -0.14985,1.1277 -0.22477,1.65396c0,0.52626 -0.07492,1.1277 -0.07492,1.65396c0,0.52626 0,1.05252 0,1.5036c0,0.52626 0.07493,0.97734 0.14985,1.35324c0.07492,0.45108 0.14985,0.82698 0.22477,1.1277c0.07492,0.3759 0.14985,0.60144 0.22477,0.90216c-0.07492,0.52626 0,0.82698 0,0.82698z" id="Path" fill="#519b3d"/><path d="M154.39291,255.52674c0,0 0.22477,-0.30072 0.59939,-0.90216c0.22477,-0.30072 0.37462,-0.67662 0.67431,-1.05252c0.22478,-0.45108 0.52447,-0.90216 0.74924,-1.42842c0.2997,-0.52626 0.52447,-1.05252 0.82416,-1.72914c0.2997,-0.60144 0.52447,-1.27806 0.74924,-1.95468c0.22477,-0.67662 0.44954,-1.42842 0.67431,-2.10504c0.14985,-0.7518 0.37462,-1.5036 0.44954,-2.2554l0.14985,-1.1277c0,-0.3759 0.07492,-0.7518 0.07492,-1.1277c0.07492,-0.7518 0,-1.5036 0,-2.2554c0,-0.7518 -0.14985,-1.42842 -0.22477,-2.10504c-0.07493,-0.30072 -0.07493,-0.67662 -0.14985,-0.97734c-0.07492,-0.30072 -0.14985,-0.60144 -0.22477,-0.90216c-0.14985,-0.52626 -0.22477,-1.1277 -0.37462,-1.5036c-0.14985,-0.45108 -0.29969,-0.82698 -0.44954,-1.1277c-0.22477,-0.67662 -0.37462,-0.97734 -0.37462,-0.97734c0,0 0.14985,0.3759 0.44954,0.97734c0.14984,0.30072 0.29969,0.67662 0.52446,1.1277c0.22477,0.45108 0.29969,0.97734 0.44954,1.5036c0.07492,0.30072 0.14985,0.60144 0.22477,0.90216c0.07493,0.30072 0.14985,0.60144 0.14985,0.97734c0.07492,0.67662 0.29969,1.35324 0.29969,2.10504c0,0.7518 0.07492,1.5036 0,2.2554c0,0.3759 -0.07492,0.7518 -0.07492,1.20288l-0.14985,1.20288c-0.07492,0.7518 -0.29969,1.57878 -0.52446,2.33058c-0.22477,0.7518 -0.44954,1.5036 -0.67431,2.18022c-0.2997,0.67662 -0.52447,1.35324 -0.82416,1.95468c-0.29969,0.60144 -0.59939,1.20288 -0.89908,1.65396c-0.2997,0.52626 -0.59939,0.97734 -0.82416,1.35324c-0.2997,0.3759 -0.52447,0.7518 -0.74924,0.97734c-0.22477,0.52626 -0.52446,0.82698 -0.52446,0.82698z" id="Path" fill="#519b3d"/><path d="M157.09015,266.80372c0,0 -0.07493,0 -0.14985,-0.15036c-0.07492,-0.07518 -0.22477,-0.30072 -0.29969,-0.60144c-0.14985,-0.52626 0.07492,-1.35324 0.52446,-2.18022c0.44954,-0.82697 1.04893,-1.72913 1.64832,-2.70647c0.67431,-0.97733 1.34862,-1.95467 2.09786,-3.00719c0.74923,-0.97733 1.49847,-1.95467 2.17278,-2.85683c0.74924,-0.90216 1.42355,-1.72914 2.02294,-2.48094c1.19878,-1.42842 2.02294,-2.33058 2.02294,-2.33058c0,0 -0.74924,0.97734 -1.79817,2.48094c-1.12385,1.5036 -2.5474,3.45827 -4.04587,5.48813c-0.74924,0.97733 -1.49847,1.95467 -2.09786,2.93201c-0.67431,0.97733 -1.2737,1.80431 -1.72324,2.63129c-0.44954,0.7518 -0.74923,1.5036 -0.67431,2.02986c0,0.22554 0.14985,0.45108 0.22477,0.60144c0,0.07518 0.07492,0.15036 0.07492,0.15036z" id="Path" fill="#519b3d"/><path d="M138.28434,269.28465c0,0 0,-0.15036 0.07492,-0.3759c0,-0.07518 0.07493,-0.22554 0.14985,-0.3759c0.07492,-0.15036 0.14984,-0.30072 0.29969,-0.45108c0.29969,-0.30072 0.74924,-0.60144 1.2737,-0.60144c0.2997,0 0.52447,0 0.82416,0c0.2997,0.07518 0.52447,0.15036 0.74924,0.15036c0.44954,0.07518 0.97401,0 1.42355,-0.07518c0.44954,-0.07518 0.89908,-0.22554 1.2737,-0.3759c0.37462,-0.15036 0.67431,-0.30072 0.82416,-0.3759c0.22477,-0.15036 0.29969,-0.22554 0.29969,-0.22554c0,0 -0.07492,0.07518 -0.22477,0.30072c-0.14985,0.15036 -0.44955,0.3759 -0.74924,0.60144c-0.37462,0.22554 -0.82416,0.3759 -1.2737,0.52626c-0.52446,0.15036 -1.04893,0.22554 -1.57339,0.15036c-0.2997,0 -0.52447,-0.07518 -0.74924,-0.15036c-0.22477,-0.07518 -0.44954,-0.07518 -0.67431,-0.07518c-0.22477,0 -0.44954,0.07518 -0.59939,0.15036c-0.14984,0.07518 -0.37461,0.15036 -0.52446,0.30072c-0.2997,0.22554 -0.44954,0.52626 -0.59939,0.67662c-0.22477,0.07518 -0.22477,0.22554 -0.22477,0.22554z" id="Path" fill="#519b3d"/><path d="M142.03051,271.16415c0,0 0,-0.45108 0.29969,-0.97734c0.14985,-0.30072 0.44954,-0.52626 0.82416,-0.7518c0.14985,-0.07518 0.37462,-0.22554 0.59939,-0.22554c0.22477,-0.07518 0.44954,-0.07518 0.59939,-0.15036c0.82416,-0.15036 1.64832,-0.15036 2.17278,-0.22554c0.59939,-0.07518 0.97401,-0.22554 0.97401,-0.22554c0,0 -0.07492,0.07518 -0.22477,0.15036c-0.14985,0.07518 -0.37462,0.22554 -0.67431,0.30072c-0.59939,0.22554 -1.42354,0.30072 -2.17278,0.3759c-0.74924,0.07518 -1.42355,0.45108 -1.87309,0.90216c-0.22477,0.22554 -0.2997,0.45108 -0.37462,0.60144c-0.14985,0.15036 -0.14985,0.22554 -0.14985,0.22554z" id="Path" fill="#519b3d"/><path d="M142.9296,272.89327c-0.52447,0.45108 -0.82416,0.52626 -1.19878,1.35324c0,0 -0.07492,-3.23273 1.42355,-2.63129c0.89908,0.3759 0.44954,0.90216 -0.22477,1.27806z" id="Path" fill="#a1af93"/><path d="M137.61003,271.99113c0,0 0.52447,-3.23274 1.87309,-2.33058c0.82416,0.52626 0.2997,0.97734 -0.44954,1.27806c-0.59939,0.30072 -0.89909,0.30072 -1.42355,1.05252z" id="Path" fill="#a1af93"/><path d="M134.61309,269.05911c0,0 1.57339,-2.85684 2.5474,-1.57878c0.59939,0.82698 -0.07492,1.05252 -0.82416,1.05252c-0.67431,0.07518 -0.974,0 -1.72324,0.52626z" id="Path" fill="#a1af93"/></g><g data-paper-data="{&quot;index&quot;:null}" id="Shape"><g id="Group"><path d="M140.60696,204.03015c-6.96789,-9.02158 8.24159,-26.16259 18.95566,-29.32014c11.08869,-3.30792 14.68502,-0.97734 26.97248,-11.5777c12.36239,-10.60036 40.75841,-13.4572 59.26453,-6.23993c18.50612,7.21726 34.53976,22.17806 33.11621,40.82266c-1.12386,15.18633 -17.38227,16.68993 -37.76147,12.17914c-20.37921,-4.51079 -31.1682,22.62914 -51.69725,22.17806c-22.77675,-0.45108 -30.64373,-4.43562 -48.85015,-28.04209z" id="Path" fill="#7cbf2e"/><path d="M271.27364,210.11973c-6.51835,2.10504 -12.43731,4.05971 -30.04434,-0.07518c-20.30428,-4.81151 -31.1682,22.55396 -51.69725,22.17806c-22.77676,-0.45108 -30.64373,-4.51079 -48.85015,-28.04209c-3.22171,-4.21007 -1.79817,-9.99892 1.72324,-15.41187c10.48929,16.84029 32.51682,36.68777 50.57339,30.52302c20.45413,-7.0669 51.47248,-29.99676 78.29511,-9.17194z" id="Path" fill="#b4d189"/><path d="M150.12226,215.53267c0,0 0.22477,0.22554 0.59939,0.67662c0.37462,0.45108 0.974,1.05252 1.72324,1.80432c1.49847,1.5036 3.74618,3.60863 6.74312,5.78885c1.49847,1.05251 3.14679,2.18021 5.01988,3.15755c1.87309,0.97734 3.89602,1.80432 6.14373,2.48094c2.17279,0.67662 4.49542,1.20288 6.89297,1.57878c2.39755,0.3759 4.7951,0.60144 7.26758,0.7518c2.47247,0.15036 4.87003,0.15036 7.26758,-0.07518c2.39756,-0.22554 4.72019,-0.7518 6.89297,-1.5036c2.17278,-0.75179 4.12079,-1.80431 5.91896,-2.85683c1.79816,-1.12769 3.44648,-2.25539 4.94495,-3.30791c2.92202,-2.18022 5.3945,-4.05971 7.11774,-5.41295c1.72324,-1.27806 2.69725,-2.02986 2.69725,-2.02986c0,0 -0.974,0.7518 -2.62232,2.10504c-1.64832,1.35324 -4.04587,3.30791 -6.96789,5.56331c-1.49847,1.12769 -3.07186,2.25539 -4.87003,3.38309c-1.79816,1.12769 -3.8211,2.18021 -5.99388,2.93201c-2.17278,0.7518 -4.57034,1.35324 -6.96789,1.57878c-2.39756,0.22554 -4.87003,0.22554 -7.34251,0.07518c-2.47248,-0.15036 -4.94496,-0.3759 -7.34251,-0.7518c-2.39756,-0.3759 -4.72019,-0.97734 -6.89297,-1.65396c-2.17278,-0.67662 -4.27064,-1.57878 -6.14373,-2.55612c-1.87309,-0.97733 -3.52141,-2.10503 -5.01988,-3.23273c-2.99694,-2.2554 -5.16972,-4.43561 -6.59327,-5.93921c-0.74924,-0.7518 -1.2737,-1.42842 -1.64832,-1.8795c-0.59939,-0.45108 -0.82416,-0.67662 -0.82416,-0.67662z" id="Path" fill="#7d9950"/></g><path d="M196.57486,157.41865c0,0 1.19878,-0.60144 3.52141,-1.35324c2.2477,-0.7518 5.54434,-1.72914 9.59021,-2.40576c4.04587,-0.67662 8.76606,-1.20288 13.93578,-1.05252c5.0948,0.15036 10.56422,0.82698 15.88379,2.10504c2.62233,0.67662 5.24465,1.5036 7.71713,2.48094c2.47248,0.97733 4.87003,2.10503 7.11774,3.30791c4.49541,2.48093 8.31651,5.33777 11.38838,8.11942c2.99695,2.78166 5.24465,5.41295 6.6682,7.29245c1.42355,1.95467 2.09786,3.15755 2.09786,3.15755c0,0 -0.67431,-1.20287 -2.17278,-3.08237c-1.42355,-1.8795 -3.74618,-4.43562 -6.74312,-7.14209c-3.07187,-2.70647 -6.89297,-5.48812 -11.38838,-7.96906c-2.24771,-1.20287 -4.64526,-2.33057 -7.11774,-3.30791c-2.47248,-0.97734 -5.09481,-1.80432 -7.71713,-2.40576c-5.24465,-1.35324 -10.63915,-2.02986 -15.73395,-2.18022c-5.0948,-0.15036 -9.81499,0.22554 -13.86086,0.90216c-4.04587,0.67662 -7.3425,1.5036 -9.59021,2.2554c-2.32263,0.7518 -3.59633,1.27806 -3.59633,1.27806z" id="Path" fill="#519b3d"/></g><g data-paper-data="{&quot;index&quot;:null}" id="Shape"><g id="Group"><path d="M244.67578,189.74435c-0.67431,-11.80323 6.3685,-23.83201 19.4052,-18.34388c11.763,4.96187 33.19114,59.46727 54.61927,69.09029c21.27829,9.62302 40.30887,3.15756 41.20795,-8.72086c0,0 1.87308,21.57662 -38.36086,17.51691c-40.23395,-4.05972 -41.95719,-26.23777 -56.79205,-33.75576c-19.55505,-9.92374 -19.55505,-14.73525 -20.07951,-25.78669z" id="Path" fill="#7cbf2e"/><path d="M249.84549,203.95337c0,0 22.47707,6.76619 40.45872,26.98957c10.56422,11.87841 29.8945,16.7651 44.12997,18.79496c-3.67125,0.15036 -8.01682,0.07518 -12.88685,-0.45108c-40.23395,-3.98454 -45.77829,-25.26043 -60.61315,-32.77842c-4.87003,-2.40576 -16.10856,-5.11223 -18.88073,-7.14209l7.79205,-5.41295z" id="Path" fill="#b4d189"/></g><path d="M348.44489,243.79868c0,0 -0.74923,0.22554 -2.17278,0.52626c-0.67431,0.15036 -1.49847,0.30072 -2.47248,0.45108c-0.97401,0.15036 -2.09786,0.22554 -3.29664,0.30072c-0.59939,0 -1.19878,0.07518 -1.87309,0.07518c-0.67432,0 -1.34863,0 -2.02294,0c-1.34863,-0.07518 -2.8471,-0.15036 -4.34557,-0.3759c-1.49847,-0.22554 -2.99695,-0.45108 -4.57034,-0.82698c-1.57339,-0.3759 -3.07187,-0.7518 -4.64526,-1.35324c-1.49847,-0.52626 -2.99694,-1.20288 -4.42049,-1.8795c-1.42355,-0.7518 -2.77217,-1.5036 -3.97095,-2.40576c-1.2737,-0.82697 -2.39755,-1.80431 -3.44648,-2.70647c-0.52446,-0.45108 -0.97401,-0.90216 -1.49847,-1.35324c-0.44954,-0.45108 -0.89908,-0.90216 -1.34862,-1.35324c-0.44954,-0.45108 -0.82416,-0.82698 -1.19878,-1.27806c-0.37462,-0.3759 -0.67431,-0.82698 -1.04893,-1.20288c-0.67431,-0.7518 -1.19878,-1.42842 -1.64832,-1.95468c-0.89908,-1.1277 -1.34862,-1.72914 -1.34862,-1.72914c0,0 0.52447,0.60144 1.42355,1.65396c0.44954,0.52626 1.04893,1.20288 1.72324,1.8795c0.67432,0.7518 1.42355,1.5036 2.24771,2.33058c0.44954,0.45108 0.89908,0.82698 1.34862,1.27806c0.44954,0.45108 0.97401,0.90216 1.49847,1.35324c1.04893,0.90215 2.17278,1.80431 3.44648,2.63129c1.19878,0.82698 2.5474,1.65396 3.97095,2.33058c1.42355,0.7518 2.8471,1.35324 4.34557,1.8795c1.49847,0.52626 3.07187,0.97734 4.57034,1.35324c1.49847,0.3759 3.07186,0.67662 4.49541,0.82698c1.49847,0.22554 2.92202,0.30072 4.27064,0.45108c0.67432,0.07518 1.34863,0.07518 2.02294,0.07518c0.67431,0 1.2737,0 1.87309,0c1.19878,-0.07518 2.32263,-0.15036 3.29664,-0.22554c0.97401,-0.07518 1.79817,-0.22554 2.47248,-0.3759c1.49847,-0.15036 2.32263,-0.3759 2.32263,-0.3759z" id="Path" fill="#519b3d"/><path d="M280.86384,233.79976c-1.12385,-1.05252 -1.72324,-1.65396 -1.72324,-1.65396c0,0 0.59939,0.60144 1.79817,1.57878c0.59939,0.45108 1.2737,1.05252 2.17278,1.65396c0.82416,0.60144 1.79817,1.27806 2.92202,1.95468c0.52446,0.3759 1.12385,0.67662 1.72324,1.05252c0.59939,0.3759 1.19878,0.7518 1.87309,1.05252c1.27371,0.67662 2.62233,1.42842 4.1208,2.10504c0.74923,0.30072 1.42354,0.7518 2.17278,1.05252c0.74924,0.30072 1.49847,0.67662 2.32263,0.97734c0.74923,0.3759 1.57339,0.60144 2.39755,0.90216c0.82416,0.30072 1.57339,0.60144 2.39755,0.82698c1.64832,0.52626 3.29664,0.97734 4.87003,1.5036c1.64832,0.3759 3.22172,0.7518 4.79511,1.1277c1.5734,0.30072 3.07187,0.52626 4.57034,0.7518c0.74924,0.15036 1.42355,0.22554 2.09786,0.30072c0.67432,0.07518 1.34863,0.15036 2.02294,0.22554c1.2737,0.15036 2.47248,0.30072 3.52141,0.30072c1.04893,0.07518 1.94801,0.07518 2.69725,0.15036c1.49847,0.07518 2.32263,0.15036 2.32263,0.15036c0,0 -0.82416,0 -2.32263,-0.07518c-0.74924,0 -1.64832,0 -2.69725,-0.07518c-1.04893,0 -2.24771,-0.15036 -3.52141,-0.22554c-0.67432,-0.07518 -1.2737,-0.15036 -2.02294,-0.15036c-0.67431,-0.07518 -1.42355,-0.15036 -2.09786,-0.22554c-1.42355,-0.22554 -2.99695,-0.45108 -4.57034,-0.7518c-1.57339,-0.3759 -3.22171,-0.7518 -4.87003,-1.1277c-1.64831,-0.45108 -3.29663,-0.90216 -4.94495,-1.42842c-0.82416,-0.30072 -1.64831,-0.60144 -2.39755,-0.90216c-0.82416,-0.30072 -1.57339,-0.60144 -2.39755,-0.90216c-0.74924,-0.30072 -1.57339,-0.67662 -2.32263,-0.97734c-0.74924,-0.30072 -1.49847,-0.67662 -2.24771,-1.05252c-1.49848,-0.67662 -2.8471,-1.5036 -4.1208,-2.18022c-0.67431,-0.3759 -1.2737,-0.7518 -1.87309,-1.1277c-0.59939,-0.3759 -1.19878,-0.67662 -1.72324,-1.05252c-0.52446,-0.3759 -1.04893,-0.7518 -1.49847,-1.05252c-0.44954,-0.3759 -0.89908,-0.67662 -1.34862,-0.97734c-0.82416,-0.60144 -1.49847,-1.20288 -2.09786,-1.72914z" id="Path" fill="#7d9950"/></g><g data-paper-data="{&quot;index&quot;:null}" id="Shape"><g id="Group"><g id="Path"><path d="M136.26139,124.6386c-4.34556,-5.33777 -0.59939,-22.0277 9.44037,-17.66727c6.96789,3.0072 12.13762,22.25324 6.51835,38.11619c-7.56727,21.20072 3.44649,28.26763 17.00765,31.12446c14.08563,2.93202 12.88685,11.50252 9.29052,22.4036c-3.59633,10.90108 -21.80275,26.61367 -39.33486,6.54065c-13.78593,-15.78777 -9.66514,-41.27374 -7.41743,-51.4982c2.2477,-10.22446 8.76605,-23.83201 4.49541,-29.01942z" fill="#7cbf2e"/><path d="M164.50758,213.27565c-7.26759,3.0072 -16.33333,2.02986 -25.32416,-8.26978c-13.78593,-15.78777 -9.66514,-41.27374 -7.41743,-51.4982c1.34862,-6.31511 4.34557,-13.90827 5.46942,-19.99784c0.74923,-0.60144 1.64832,-0.97734 2.77217,-0.7518c4.42049,0.97734 -6.74312,27.21511 -3.52141,43.52914c1.94802,9.92374 13.78594,26.98957 28.02141,36.98849z" fill="#b4d189"/></g><path d="M159.41277,172.8289c0.37462,0.3759 0.59939,0.45108 0.59939,0.45108c0,0 -0.22477,-0.07518 -0.59939,-0.30072c-0.37462,-0.15036 -0.97401,-0.45108 -1.64832,-0.90216c-0.37461,-0.22554 -0.74923,-0.45108 -1.12385,-0.7518c-0.37462,-0.30072 -0.82416,-0.60144 -1.2737,-0.97734c-0.82415,-0.75179 -1.79816,-1.57877 -2.62232,-2.78165c-0.82416,-1.1277 -1.5734,-2.48093 -2.09786,-3.90935c-0.52447,-1.5036 -0.89908,-3.15755 -1.04893,-4.88669c-0.14984,-1.72914 -0.07492,-3.53345 0.14985,-5.33777c0.22477,-1.80432 0.59939,-3.60863 1.2737,-5.41295c1.19878,-3.45827 2.17278,-6.99173 2.77217,-10.37482c0.59939,-3.38309 0.89908,-6.61583 0.82416,-9.3223c-0.07493,-1.35323 -0.22477,-2.63129 -0.37462,-3.75899c-0.14985,-1.12769 -0.29969,-2.10503 -0.44954,-2.85683c-0.29969,-1.57878 -0.52446,-2.48094 -0.52446,-2.48094c0,0 0.22477,0.90216 0.59939,2.48094c0.14984,0.75179 0.37461,1.72913 0.52446,2.85683c0.14985,1.1277 0.37462,2.33057 0.44954,3.75899c0.14985,2.78165 -0.07492,6.01439 -0.67431,9.39748c-0.59939,3.38309 -1.49847,6.99173 -2.69725,10.45c-0.59939,1.72914 -0.97401,3.53345 -1.2737,5.26259c-0.22477,1.80432 -0.2997,3.53345 -0.14985,5.26259c0.14985,1.72914 0.44955,3.30791 0.97401,4.81151c0.52447,1.50359 1.19878,2.78165 2.02294,3.90935c0.74924,1.12769 1.64832,2.02985 2.47248,2.78165c0.44954,0.3759 0.82416,0.67662 1.19878,0.97734c0.37461,0.30072 0.74923,0.52626 1.12385,0.7518c0.67431,0.45108 1.19877,0.7518 1.57339,0.90216z" id="Path" fill="#519b3d"/></g><path d="M138.58401,204.40444c1.12385,1.35324 1.72324,2.10504 1.72324,2.10504c0,0 -0.59939,-0.7518 -1.72324,-2.02986c-1.04893,-1.27806 -2.5474,-3.23273 -3.97095,-5.78885c-1.42354,-2.55611 -2.77217,-5.71367 -3.67125,-9.17194c-0.974,-3.53345 -1.49847,-7.36763 -1.72324,-11.27698c-0.14984,-1.95468 -0.14984,-3.90935 -0.07492,-5.78885c0.07492,-1.8795 0.14984,-3.75899 0.29969,-5.56331c0.14985,-1.80432 0.37462,-3.53345 0.59939,-5.18741c0.22477,-1.65396 0.52447,-3.23273 0.82416,-4.58597c0.59939,-2.85684 1.19878,-5.18741 1.64832,-6.84137c0.44955,-1.65396 0.74924,-2.55612 0.74924,-2.55612c0,0 -0.22477,0.90216 -0.67431,2.55612c-0.37462,1.65396 -0.97401,3.98454 -1.49847,6.84137c-0.2997,1.42842 -0.52447,3.00719 -0.74924,4.58597c-0.22477,1.65396 -0.37461,3.38309 -0.52446,5.18741c-0.14984,1.80432 -0.22477,3.68381 -0.29969,5.56331c0,1.8795 0,3.83417 0.07492,5.71367c0.22477,3.83417 0.74924,7.66835 1.64832,11.2018c0.89909,3.45827 2.17279,6.61582 3.52141,9.17194c1.34862,2.55612 2.77217,4.51079 3.8211,5.86403z" id="Path" fill="#7d9950"/></g><g data-paper-data="{&quot;index&quot;:null}" id="Group"><g><path d="M130.49229,105.69329c-2.24771,-1.20288 -0.37462,-6.61583 2.5474,-7.44281c2.99694,-0.82697 6.59327,-4.58597 7.86697,-3.38309c1.2737,1.20288 -2.92202,14.88561 -10.41437,10.8259z" id="Shape" fill="#69b229"/><g id="Shape"><path d="M126.14672,102.98681c0,0 3.44648,-8.19461 8.09174,-10.8259c4.64526,-2.55612 7.9419,-1.57878 11.53823,-6.91655c0,0 -0.82416,5.41295 -4.64526,7.74353c-6.44342,3.90936 -8.54128,11.80324 -8.54128,11.80324c0,0 -3.07187,-2.93202 -6.44343,-1.80432z" id="Path" fill="#f1f2dc"/><path d="M125.54733,103.66342c0,0 0.2997,-2.55611 1.87309,-3.08237c0,0 4.87003,-0.7518 6.51835,1.8795c0,0 0.37462,2.33057 -0.67431,3.23273" id="Path" fill="#7cbf2e"/><path d="M126.14674,101.70875c0,0.15036 -0.07492,0.30072 -0.07492,0.30072c0,0 0,-0.15036 0.07492,-0.45108c0.07492,-0.15036 0.14985,-0.30072 0.22477,-0.45108c0.14984,-0.15036 0.29969,-0.30072 0.52446,-0.45108c0.22478,-0.15036 0.52447,-0.22554 0.74924,-0.30072c0.29969,-0.07518 0.59939,-0.15036 0.89908,-0.15036c0.2997,0 0.67432,0 0.97401,0.07518c0.2997,0 0.67432,0.07518 0.97401,0.15036c0.2997,0.07518 0.67432,0.15036 0.97401,0.22554c0.29969,0.07518 0.67431,0.22554 0.89908,0.3759c0.59938,0.30072 1.04893,0.67662 1.34862,1.1277c0.29969,0.45108 0.29969,0.90216 0.29969,1.20288c-0.07493,0.30072 -0.14985,0.45108 -0.14985,0.45108c0,0 0.07492,-0.15036 0.07492,-0.45108c0,-0.30072 -0.07493,-0.67662 -0.37462,-1.05252c-0.29969,-0.3759 -0.74924,-0.67662 -1.2737,-0.90216c-0.29969,-0.15036 -0.59939,-0.22554 -0.89908,-0.30072c-0.2997,-0.07518 -0.59939,-0.15036 -0.97401,-0.22554c-0.2997,-0.07518 -0.59939,-0.15036 -0.97401,-0.15036c-0.29969,-0.07518 -0.59939,-0.07518 -0.89908,-0.07518c-0.2997,0 -0.59939,0 -0.82416,0.07518c-0.2997,0.07518 -0.52447,0.15036 -0.74924,0.22554c-0.22477,0.07518 -0.37461,0.22554 -0.52446,0.3759c-0.14984,0.15036 -0.22477,0.30072 -0.29969,0.3759z" id="Path" fill="#519b3d"/><path d="M134.91278,99.75408c0,0 0.22478,-0.60144 0.74924,-1.42842c0.52446,-0.82697 1.2737,-1.87949 2.17278,-2.78165c0.44954,-0.45108 0.89909,-0.90216 1.42355,-1.27806c0.22477,-0.22554 0.44954,-0.3759 0.67431,-0.52626c0.22477,-0.15036 0.44954,-0.30072 0.67431,-0.45108c0.37462,-0.22554 0.74924,-0.45108 1.04893,-0.52626c0.22477,-0.15036 0.37462,-0.15036 0.37462,-0.15036c0,0 -0.14985,0.07518 -0.37462,0.22554c-0.22477,0.15036 -0.52446,0.3759 -0.89908,0.67662c-0.37462,0.30072 -0.82416,0.67662 -1.19878,1.05252c-0.44954,0.3759 -0.89908,0.82698 -1.34862,1.27806c-0.89908,0.90215 -1.72324,1.87949 -2.32263,2.63129c-0.59939,0.7518 -0.97401,1.27806 -0.97401,1.27806z" id="Path" fill="#c9bd9b"/><path d="M137.23541,90.88285c0,0 0.59939,-0.22554 1.49847,-0.60144c0.89908,-0.3759 2.09786,-0.90216 3.22171,-1.57878c0.2997,-0.15036 0.52447,-0.30072 0.82416,-0.52626c0.22478,-0.22554 0.52447,-0.3759 0.74924,-0.52626c0.22477,-0.22554 0.44954,-0.3759 0.67431,-0.52626c0.22477,-0.22554 0.44954,-0.3759 0.59939,-0.52626c0.14985,-0.15036 0.29969,-0.30072 0.44954,-0.45108c0.14984,-0.15036 0.22477,-0.30072 0.29969,-0.3759c0.14984,-0.22554 0.29969,-0.3759 0.29969,-0.3759c0,0 -0.07492,0.15036 -0.22477,0.3759c-0.14985,0.22554 -0.37462,0.60144 -0.67431,0.97734c-0.14984,0.22554 -0.37461,0.3759 -0.52446,0.60144c-0.14985,0.22554 -0.44954,0.45108 -0.67431,0.60144c-0.22478,0.22554 -0.52447,0.3759 -0.74924,0.60144c-0.22477,0.22554 -0.52447,0.3759 -0.82416,0.52626c-0.59939,0.30072 -1.19878,0.60144 -1.72324,0.90216c-0.59938,0.22554 -1.12385,0.45108 -1.57339,0.52626c-1.04893,0.30072 -1.64832,0.3759 -1.64832,0.3759z" id="Path" fill="#c9bd9b"/></g><path d="M134.61308,99.37818c8.61621,-1.50359 16.03364,6.61583 14.53517,16.99065c-1.49847,10.37482 -14.90978,12.02877 -17.98165,13.15647c-3.07187,1.1277 -8.54129,4.96187 -9.88991,4.88669c-1.2737,-0.07518 -1.57339,-1.1277 -1.57339,-1.1277l-1.94801,0.52626c-1.12385,-1.57878 -3.67125,-6.61583 0.14985,-10.67554c3.8211,-4.05971 2.8471,-9.24712 5.01988,-15.48705c2.17278,-6.23992 5.69419,-7.29244 11.68807,-8.26978z" id="Shape" fill="#7cbf2e"/><path d="M120.977,129.07422c-0.44955,0.15036 -0.59939,-1.35324 0.29969,-1.65396c0.97401,-0.3759 0.67432,1.35324 -0.29969,1.65396z" id="Shape" fill="#46893d"/><path d="M120.977,129.07422c0,0 -0.14984,0 -0.29969,-0.15036c-0.07492,-0.07518 -0.14985,-0.15036 -0.22477,-0.30072c-0.07492,-0.15036 -0.07492,-0.30072 0,-0.45108c0.07492,-0.30072 0.37461,-0.52626 0.52446,-0.60144c0.07492,-0.07518 0.22477,-0.07518 0.22477,-0.07518c0.07492,0 0.07492,0 0.07492,0c0,0 0,0 -0.07492,0.07518c0,0.07518 -0.07493,0.15036 -0.14985,0.22554c-0.07492,0.15036 -0.22477,0.3759 -0.22477,0.52626c-0.07492,0.15036 -0.07492,0.3759 0,0.52626c0.14985,0.07518 0.14985,0.22554 0.14985,0.22554z" id="Shape" fill="#34662d"/><path d="M134.31863,119.05201c-0.5511,-0.03611 -0.95385,-0.73714 -0.89955,-1.5658c0.05429,-0.82866 0.54507,-1.47115 1.09617,-1.43504c0.5511,0.03611 0.95385,0.73714 0.89955,1.5658c-0.05429,0.82866 -0.54507,1.47115 -1.09617,1.43504z" id="Oval" fill="#283f1f"/><path d="M131.24152,127.11954c0,0 0.07493,-0.7518 0.37462,-1.57878c0.14985,-0.3759 0.67431,-0.3759 0.82416,0c0.22477,0.45108 0.37462,1.05252 0.37462,1.5036z" id="Shape" fill="#f1f2dc"/><path d="M122.32563,132.45731c-1.49847,0.52626 -2.5474,0.82698 -2.5474,0.82698c0,0 0.974,-0.45108 2.39755,-1.20288c0.74924,-0.3759 1.49847,-0.82698 2.32263,-1.42842c0.37462,-0.30072 0.82416,-0.60144 1.19878,-0.97734c0.22477,-0.15036 0.37461,-0.3759 0.52446,-0.60144l0.44954,-0.67662c0.14985,-0.22554 0.37462,-0.45108 0.59939,-0.60144c0.22478,-0.15036 0.52447,-0.30072 0.74924,-0.3759c0.52446,-0.22554 1.04893,-0.30072 1.57339,-0.3759c1.04893,-0.15036 1.94801,-0.15036 2.77217,-0.15036c0.37461,0 0.74923,-0.07518 1.12385,-0.07518c0.2997,-0.07518 0.59939,-0.07518 0.82416,-0.15036c0.22477,-0.07518 0.37461,-0.15036 0.52446,-0.22554c0.07493,-0.07518 0.14985,-0.07518 0.14985,-0.07518c0,0 -0.07493,0.07518 -0.14985,0.15036c-0.07492,0.07518 -0.22477,0.15036 -0.44954,0.30072c-0.22477,0.07518 -0.52447,0.15036 -0.82416,0.30072c-0.29969,0.07518 -0.67431,0.15036 -1.12385,0.22554c-0.82416,0.07518 -1.72324,0.15036 -2.69725,0.30072c-0.52447,0.07518 -0.97401,0.15036 -1.42355,0.3759c-0.22477,0.07518 -0.44954,0.22554 -0.67431,0.3759c-0.14984,0.15036 -0.37461,0.30072 -0.52446,0.52626l-0.44954,0.67662c-0.22477,0.22554 -0.37462,0.45108 -0.59939,0.60144c-0.37462,0.3759 -0.82416,0.67662 -1.2737,0.97734c-0.82416,0.60144 -1.72324,0.97734 -2.47248,1.27806z" id="Shape" fill="#519b3d"/><path d="M131.84091,117.79724c0,0 0.14985,-0.3759 0.59939,-0.82698c0.22477,-0.22554 0.52447,-0.45108 0.82416,-0.60144c0.29969,-0.22554 0.74923,-0.3759 1.12385,-0.45108c0.37462,-0.07518 0.82416,-0.22554 1.19878,-0.22554c0.37462,0 0.74924,0 1.04893,0c0.2997,0 0.52447,0.07518 0.74924,0.15036c0.14984,0 0.29969,0.07518 0.29969,0.07518c0,0 -0.07492,0 -0.29969,0c-0.14985,0 -0.44955,0 -0.74924,0.07518c-0.2997,0 -0.67432,0.07518 -0.97401,0.15036c-0.37461,0.07518 -0.74923,0.15036 -1.12385,0.30072c-0.74923,0.22554 -1.42355,0.52626 -1.94801,0.90216c-0.44955,0.22554 -0.74924,0.45108 -0.74924,0.45108z" id="Shape" fill="#519b3d"/><path d="M130.86691,116.66955c0,0 -0.14985,-0.22554 -0.22477,-0.60144c-0.07492,-0.3759 0,-0.90216 0.22477,-1.35324c0.07492,-0.15036 0.14985,-0.22554 0.22477,-0.30072c0.07492,-0.07518 0.14984,-0.15036 0.29969,-0.22554c0.22477,-0.15036 0.37462,-0.22554 0.59939,-0.30072c0.14985,-0.07518 0.29969,-0.07518 0.44954,-0.07518c0.07493,0 0.14985,0 0.14985,0c0,0 -0.07493,0.07518 -0.14985,0.07518c-0.07492,0.07518 -0.22477,0.15036 -0.29969,0.22554c-0.14985,0.07518 -0.29969,0.22554 -0.44954,0.3759c-0.14985,0.15036 -0.2997,0.30072 -0.37462,0.45108c-0.22477,0.3759 -0.2997,0.7518 -0.37462,1.05252c-0.07492,0.45108 -0.07492,0.67662 -0.07492,0.67662z" id="Shape" fill="#519b3d"/><g id="Shape"><path d="M134.31339,103.28753c0,0 3.97095,-7.96906 8.76606,-10.29964c4.7951,-2.2554 8.01682,-1.05252 11.91284,-6.16475c0,0 -1.12385,5.41295 -5.0948,7.44281c-6.6682,3.53345 -9.2156,11.27698 -9.2156,11.27698c0,0 -2.99694,-3.23274 -6.3685,-2.2554z" id="Path" fill="#f1f2dc"/><path d="M133.63907,103.88896c0,0 0.44955,-2.48093 2.02294,-3.00719c0,0 4.87003,-0.45107 6.3685,2.2554c0,0 0.22477,2.33057 -0.89908,3.15755" id="Path" fill="#7cbf2e"/><path d="M134.31339,102.31019c0,0 0,-0.15036 0.07492,-0.45108c0.07492,-0.15036 0.14984,-0.30072 0.29969,-0.45108c0.14985,-0.15036 0.2997,-0.30072 0.59939,-0.45108c0.22477,-0.15036 0.52447,-0.22554 0.82416,-0.30072c0.29969,-0.07518 0.59939,-0.07518 0.89908,-0.07518c0.2997,0 0.67432,0 0.97401,0.07518c0.2997,0.07518 0.67432,0.15036 0.97401,0.22554c0.2997,0.07518 0.67432,0.22554 0.97401,0.30072c0.29969,0.15036 0.59939,0.22554 0.89908,0.45108c0.52446,0.30072 1.04893,0.7518 1.2737,1.20288c0.29969,0.45108 0.22477,0.97734 0.22477,1.20288c-0.07493,0.30072 -0.14985,0.45108 -0.14985,0.45108c0,0 0.07492,-0.15036 0.07492,-0.45108c0,-0.30072 -0.07492,-0.67662 -0.29969,-1.05252c-0.29969,-0.3759 -0.74924,-0.7518 -1.2737,-0.97734c-0.22477,-0.15036 -0.52447,-0.22554 -0.82416,-0.3759c-0.29969,-0.07518 -0.59939,-0.22554 -0.89908,-0.30072c-0.2997,-0.07518 -0.59939,-0.15036 -0.97401,-0.22554c-0.29969,-0.07518 -0.59939,-0.07518 -0.89908,-0.15036c-0.2997,0 -0.59939,0 -0.82416,0c-0.2997,0 -0.52447,0.07518 -0.74924,0.15036c-0.22477,0.07518 -0.37461,0.22554 -0.52446,0.30072c-0.14984,0.15036 -0.22477,0.22554 -0.29969,0.3759c-0.37462,0.3759 -0.37462,0.52626 -0.37462,0.52626z" id="Path" fill="#519b3d"/><path d="M144.12839,99.45335c-0.52447,0.60144 -0.97401,1.1277 -0.97401,1.1277c0,0 0.2997,-0.60144 0.82416,-1.35324c0.52446,-0.75179 1.34862,-1.80431 2.32263,-2.63129c0.44954,-0.45108 0.97401,-0.82698 1.49847,-1.20288c0.22478,-0.15036 0.44955,-0.30072 0.74924,-0.45108c0.22477,-0.15036 0.44954,-0.30072 0.67431,-0.3759c0.44954,-0.22554 0.82416,-0.3759 1.04893,-0.45108c0.22477,-0.07518 0.37462,-0.15036 0.37462,-0.15036c0,0 -0.14985,0.07518 -0.37462,0.22554c-0.22477,0.15036 -0.59939,0.3759 -0.97401,0.60144c-0.37462,0.30072 -0.82416,0.60144 -1.2737,0.97734c-0.44954,0.3759 -0.97401,0.7518 -1.42355,1.20288c-0.89909,0.82698 -1.79817,1.72914 -2.47248,2.48094z" id="Path" fill="#c9bd9b"/><path d="M147.57487,91.63465c-0.82416,0.15036 -1.49847,0.22554 -1.49847,0.22554c0,0 0.67431,-0.15036 1.57339,-0.52626c0.89909,-0.30072 2.17279,-0.7518 3.29664,-1.35324c0.2997,-0.15036 0.59939,-0.30072 0.82416,-0.45108c0.2997,-0.15036 0.52447,-0.30072 0.74924,-0.52626c0.22477,-0.15036 0.52446,-0.30072 0.67431,-0.52626c0.22477,-0.15036 0.44954,-0.30072 0.59939,-0.52626c0.14984,-0.15036 0.37461,-0.30072 0.52446,-0.45108c0.14985,-0.15036 0.22477,-0.30072 0.37462,-0.3759c0.22477,-0.22554 0.29969,-0.30072 0.29969,-0.30072c0,0 -0.07492,0.15036 -0.22477,0.3759c-0.14985,0.22554 -0.37462,0.60144 -0.74924,0.97734c-0.14985,0.22554 -0.37462,0.3759 -0.59939,0.60144c-0.22477,0.22554 -0.44954,0.3759 -0.67431,0.60144c-0.22477,0.22554 -0.52447,0.3759 -0.82416,0.52626c-0.29969,0.15036 -0.59939,0.30072 -0.89908,0.52626c-0.59939,0.30072 -1.19878,0.52626 -1.79817,0.7518c-0.59939,0.22554 -1.12386,0.3759 -1.64832,0.45108z" id="Path" fill="#c9bd9b"/></g><path d="M126.52134,110.95588c-0.22477,0.90216 -0.29969,1.57878 -0.29969,1.57878c0,0 -0.07492,-0.60144 0,-1.57878c0.07492,-0.45108 0.07492,-1.05252 0.22477,-1.65396c0.07492,-0.30072 0.14985,-0.60144 0.22477,-0.90216c0.07492,-0.30072 0.22477,-0.60144 0.29969,-0.90216c0.22477,-0.60144 0.52446,-1.20288 0.89908,-1.65396c0.14984,-0.22554 0.29969,-0.52626 0.52446,-0.67662c0.22477,-0.22554 0.37461,-0.3759 0.52446,-0.52626c0.37462,-0.30072 0.67432,-0.52626 0.97401,-0.67662c0.22477,-0.15036 0.37462,-0.22554 0.37462,-0.22554c0,0 -0.14984,0.07518 -0.29969,0.30072c-0.07493,0.07518 -0.22477,0.15036 -0.37462,0.30072c-0.14985,0.15036 -0.29969,0.30072 -0.44954,0.45108c-0.14985,0.15036 -0.29969,0.3759 -0.44954,0.60144c-0.14985,0.22554 -0.29969,0.45108 -0.44954,0.67662c-0.14985,0.22554 -0.29969,0.52626 -0.44954,0.7518c-0.14985,0.30072 -0.22477,0.52626 -0.37462,0.82698c-0.44954,1.12769 -0.74923,2.33057 -0.89908,3.30791z" id="Shape" fill="#519b3d"/><path d="M137.75989,127.79616c-1.04893,0.30072 -1.79817,0.45108 -1.79817,0.45108c0,0 0.67431,-0.30072 1.72324,-0.67662c0.52446,-0.22554 1.12385,-0.45108 1.72324,-0.7518c0.59939,-0.30072 1.2737,-0.60144 1.94801,-0.90216c0.2997,-0.15036 0.67432,-0.30072 0.97401,-0.45108c0.29969,-0.15036 0.59939,-0.3759 0.89908,-0.52626c0.59938,-0.3759 1.12385,-0.67662 1.57339,-0.97734c0.22477,-0.15036 0.44954,-0.30072 0.59939,-0.45108c0.14985,-0.15036 0.29969,-0.22554 0.44954,-0.3759c0.22477,-0.22554 0.37462,-0.30072 0.37462,-0.30072c0,0 -0.14984,0.15036 -0.29969,0.3759c-0.07493,0.15036 -0.22477,0.30072 -0.37462,0.45108c-0.14984,0.15036 -0.37461,0.3759 -0.52446,0.52626c-0.44954,0.3759 -0.974,0.7518 -1.57339,1.1277c-0.29969,0.15036 -0.59939,0.3759 -0.89908,0.52626c-0.2997,0.15036 -0.67432,0.3759 -0.97401,0.52626c-0.67432,0.30072 -1.34863,0.60144 -2.02294,0.82698c-0.67432,0.22554 -1.27371,0.45108 -1.79817,0.60144z" id="Shape" fill="#519b3d"/><path d="M116.03202,129.07422c0.07492,1.05252 0.22477,1.65396 0.22477,1.65396c0,0 -0.14984,-0.60144 -0.29969,-1.65396c-0.07492,-0.52626 -0.07492,-1.1277 0,-1.8795c0.07493,-0.7518 0.22477,-1.57878 0.59939,-2.40576c0.07492,-0.22554 0.22477,-0.3759 0.29969,-0.60144c0.14985,-0.22554 0.29969,-0.3759 0.44954,-0.60144c0.2997,-0.3759 0.67432,-0.7518 0.97401,-1.1277c0.59939,-0.75179 1.04893,-1.72913 1.42355,-2.78165c0.37462,-1.05251 0.59939,-2.18021 0.82416,-3.30791c0.22477,-1.12769 0.37462,-2.33057 0.59939,-3.53345c0.14985,-0.60144 0.29969,-1.20288 0.44954,-1.72914c0.14985,-0.60144 0.22477,-1.1277 0.37462,-1.72914c0.2997,-1.12769 0.67432,-2.25539 1.19878,-3.30791c0.22477,-0.52626 0.52447,-0.97734 0.82416,-1.42842c0.2997,-0.45108 0.67432,-0.90216 0.97401,-1.27806c0.37461,-0.3759 0.67431,-0.7518 1.12385,-1.05252c0.37461,-0.30072 0.74923,-0.60144 1.12385,-0.82698c0.74923,-0.52626 1.49847,-0.82698 2.17278,-1.05252c0.67432,-0.22554 1.27371,-0.45108 1.79817,-0.52626c1.04893,-0.22554 1.57339,-0.30072 1.57339,-0.30072c0,0 -0.37461,0.15036 -1.34862,0.3759c-0.52447,0.15036 -1.12386,0.3759 -1.79817,0.60144c-0.67431,0.30072 -1.42355,0.67662 -2.09786,1.1277c-0.37461,0.22554 -0.74923,0.52626 -1.12385,0.82698c-0.37462,0.30072 -0.67431,0.67662 -1.04893,1.05252c-0.67431,0.7518 -1.2737,1.65396 -1.72324,2.6313c-0.44954,0.97733 -0.82416,2.10503 -1.12385,3.23273c-0.14985,0.60144 -0.22477,1.1277 -0.37462,1.72914c-0.07492,0.60144 -0.29969,1.1277 -0.44954,1.72914c-0.22477,1.12769 -0.44954,2.33057 -0.67431,3.53345c-0.22477,1.12769 -0.52446,2.33057 -0.89908,3.38309c-0.37461,1.05251 -0.89908,2.02985 -1.57339,2.85683c-0.37462,0.3759 -0.67431,0.7518 -1.04893,1.05252c-0.14985,0.22554 -0.2997,0.3759 -0.37462,0.52626c-0.07492,0.22554 -0.22477,0.3759 -0.29969,0.60144c-0.37462,0.82698 -0.59939,1.57878 -0.67431,2.33058c-0.07492,0.7518 -0.07492,1.35324 -0.07492,1.8795z" id="Shape" fill="#519b3d"/></g><g id="Shape"><path d="M154.91737,103.4379c-1.64832,1.72913 -7.26758,6.691 -10.56422,3.68381c-2.77217,-2.40576 -1.42355,-6.76619 2.99694,-6.76619c4.42049,0 6.81804,0.22554 8.01682,-0.52626c1.19878,-0.7518 1.19878,1.87949 -0.44954,3.60863z" id="Path" fill="#7cbf2e"/><path d="M144.35316,106.59544c-0.37462,0.07518 -0.59939,0.07518 -0.59939,0.07518c0,0 0.22477,0 0.59939,-0.15036c0.37462,-0.07518 0.82416,-0.30072 1.2737,-0.67662c0.44954,-0.3759 0.89908,-0.97734 1.2737,-1.65396c0,-0.07518 0,-0.07518 0.07492,-0.15036l0.07492,-0.15036c0.07492,-0.07518 0.14985,-0.15036 0.22477,-0.22554c0.22477,-0.15036 0.37462,-0.22554 0.59939,-0.30072c0.44954,-0.15036 0.82416,-0.22554 1.2737,-0.30072c0.82416,-0.07518 1.64832,-0.15036 2.47248,-0.30072c0.37461,-0.07518 0.74923,-0.15036 1.12385,-0.22554c0.37462,-0.07518 0.67432,-0.22554 0.97401,-0.30072c0.2997,-0.15036 0.52447,-0.22554 0.74924,-0.3759c0.22477,-0.15036 0.37461,-0.22554 0.52446,-0.3759c0.29969,-0.22554 0.44954,-0.3759 0.44954,-0.3759c0,0 -0.14985,0.15036 -0.37462,0.45108c-0.14984,0.15036 -0.29969,0.30072 -0.52446,0.45108c-0.22478,0.15036 -0.44955,0.30072 -0.74924,0.45108c-0.2997,0.15036 -0.59939,0.30072 -0.97401,0.3759c-0.37461,0.15036 -0.74923,0.22554 -1.12385,0.30072c-0.74924,0.15036 -1.64832,0.22554 -2.47248,0.3759c-0.37462,0.07518 -0.82416,0.15036 -1.19878,0.22554c-0.14985,0.07518 -0.37462,0.15036 -0.44954,0.22554c-0.07492,0 -0.14985,0.07518 -0.22477,0.15036l-0.07492,0.15036l-0.07492,0.07518c-0.44954,0.67662 -0.89909,1.27806 -1.42355,1.65396c-0.52447,0.3759 -1.04893,0.52626 -1.42355,0.60144z" id="Path" fill="#519b3d"/><path d="M146.37607,108.2494c-0.52446,-0.07518 -0.89908,-0.22554 -0.89908,-0.22554c0,0 0.37462,0 0.97401,-0.07518c0.2997,0 0.59939,-0.07518 0.97401,-0.15036c0.37461,-0.07518 0.74923,-0.15036 1.12385,-0.22554c0.74923,-0.22554 1.42355,-0.52626 1.94801,-0.82698c0.2997,-0.15036 0.44954,-0.22554 0.59939,-0.3759c0.14985,-0.07518 0.22477,-0.15036 0.22477,-0.15036c0,0 -0.07492,0.07518 -0.22477,0.22554c-0.14984,0.15036 -0.29969,0.30072 -0.52446,0.52626c-0.14985,0.07518 -0.22477,0.22554 -0.37462,0.30072c-0.14985,0.07518 -0.29969,0.22554 -0.44954,0.30072c-0.14984,0.07518 -0.37461,0.15036 -0.52446,0.22554c-0.22477,0.07518 -0.37462,0.15036 -0.59939,0.22554c-0.82416,0.22554 -1.64832,0.30072 -2.24771,0.22554z" id="Path" fill="#519b3d"/><path d="M143.07944,103.66343c0,0 0,-0.15036 0.07492,-0.45108c0.07492,-0.30072 0.14985,-0.7518 0.44954,-1.20288c0.22477,-0.45108 0.67431,-0.97734 1.2737,-1.27806c0.2997,-0.15036 0.59939,-0.30072 0.97401,-0.45108c0.37462,-0.07518 0.67431,-0.15036 1.04893,-0.15036c1.42355,-0.07518 2.77217,0.07518 3.74618,0.15036c0.974,0.07518 1.72324,0.07518 1.72324,0.07518c0,0 -0.67431,0.15036 -1.72324,0.15036c-1.04893,0.07518 -2.39755,-0.07518 -3.67125,0.07518c-0.2997,0 -0.67432,0.07518 -0.97401,0.15036c-0.29969,0.07518 -0.59939,0.15036 -0.89908,0.3759c-0.52446,0.30072 -0.97401,0.67662 -1.2737,1.05252c-0.2997,0.3759 -0.52447,0.7518 -0.59939,1.05252c-0.14985,0.30072 -0.14985,0.45108 -0.14985,0.45108z" id="Path" fill="#519b3d"/></g></g><g data-paper-data="{&quot;index&quot;:null}" id="Shape"><g id="Group"><path d="M170.87609,275.4494c-0.52447,0 -0.97401,-0.22554 -0.59939,-0.7518c0.52446,-0.90216 1.72324,1.20288 1.72324,1.20288c-0.52446,-0.45108 -0.67431,-0.45108 -1.12385,-0.45108z" id="Path" fill="#a1af93"/><path d="M163.6085,200.41989c8.46636,-12.10395 26.37309,1.65396 24.72477,11.65288c-1.64831,10.14928 -7.79204,15.48705 -3.89602,26.16259c3.59633,9.77338 -4.49542,16.91547 -11.98777,27.36547c-8.84098,12.3295 -14.83486,8.11942 -14.16055,5.48813c0.59938,-2.55611 3.14678,-2.78165 7.49235,-8.26978c3.44648,-4.36044 10.4893,-17.06583 1.72324,-28.11727c-8.76605,-11.05143 -8.84097,-27.13992 -3.89602,-34.28201z" id="Path" fill="#7cbf2e"/><path d="M184.21247,237.33322c0,0 -0.14984,-0.22554 -0.29969,-0.7518c-0.14985,-0.45108 -0.37462,-1.1277 -0.59939,-2.02986c-0.07492,-0.45108 -0.14985,-0.90216 -0.22477,-1.35324c-0.07492,-0.52626 -0.07492,-1.05252 -0.07492,-1.57878c0,-0.52626 0,-1.1277 0.07492,-1.65396c0.07492,-0.60144 0.07492,-1.1277 0.22477,-1.72914c0.14985,-0.60144 0.22477,-1.1277 0.37462,-1.72914c0.14985,-0.52626 0.29969,-1.1277 0.44954,-1.57878c0.14984,-0.52626 0.37461,-0.97734 0.52446,-1.5036c0.22477,-0.45108 0.37461,-0.90216 0.52446,-1.27806c0.14984,-0.3759 0.29969,-0.7518 0.52446,-1.05252c0.14985,-0.30072 0.29969,-0.60144 0.44954,-0.82698c0.22477,-0.45108 0.37462,-0.67662 0.37462,-0.67662c0,0 -0.07492,0.30072 -0.29969,0.7518c-0.14985,0.45108 -0.52447,1.1277 -0.74924,1.95468c-0.14985,0.3759 -0.29969,0.82698 -0.44954,1.27806c-0.14985,0.45108 -0.29969,0.97734 -0.44954,1.5036c-0.14985,0.52626 -0.2997,1.05252 -0.37462,1.57878c-0.14984,0.52626 -0.22477,1.1277 -0.29969,1.65396c-0.07492,0.52626 -0.14985,1.1277 -0.22477,1.65396c0,0.52626 -0.07492,1.1277 -0.07492,1.65396c0,0.52626 0,1.05252 0,1.5036c0,0.52626 0.07493,0.97734 0.14985,1.35324c0.07492,0.45108 0.14985,0.82698 0.22477,1.1277c0.07492,0.3759 0.14985,0.60144 0.22477,0.90216c-0.07492,0.52626 0,0.82698 0,0.82698z" id="Path" fill="#519b3d"/><path d="M166.60544,261.76667c0,0 0.22477,-0.30072 0.59939,-0.90216c0.22477,-0.30072 0.37462,-0.67662 0.67431,-1.05252c0.22478,-0.45108 0.52447,-0.90216 0.74924,-1.42842c0.2997,-0.52626 0.52447,-1.05252 0.82416,-1.72914c0.2997,-0.60144 0.52447,-1.27806 0.74924,-1.95468c0.22477,-0.67662 0.44954,-1.42842 0.67431,-2.10504c0.14985,-0.7518 0.37462,-1.5036 0.44954,-2.2554l0.14985,-1.1277c0,-0.3759 0.07492,-0.7518 0.07492,-1.1277c0.07492,-0.7518 0,-1.5036 0,-2.2554c0,-0.7518 -0.14985,-1.42842 -0.22477,-2.10504c-0.07493,-0.30072 -0.07493,-0.67662 -0.14985,-0.97734c-0.07492,-0.30072 -0.14985,-0.60144 -0.22477,-0.90216c-0.14985,-0.52626 -0.22477,-1.1277 -0.37462,-1.5036c-0.14985,-0.45108 -0.29969,-0.82698 -0.44954,-1.1277c-0.22477,-0.67662 -0.37462,-0.97734 -0.37462,-0.97734c0,0 0.14985,0.3759 0.44954,0.97734c0.14984,0.30072 0.29969,0.67662 0.52446,1.1277c0.22477,0.45108 0.29969,0.97734 0.44954,1.5036c0.07492,0.30072 0.14985,0.60144 0.22477,0.90216c0.07493,0.30072 0.14985,0.60144 0.14985,0.97734c0.07492,0.67662 0.29969,1.35324 0.29969,2.10504c0,0.7518 0.07492,1.5036 0,2.2554c0,0.3759 -0.07492,0.7518 -0.07492,1.20288l-0.14985,1.20288c-0.07492,0.7518 -0.29969,1.57878 -0.52446,2.33058c-0.22477,0.7518 -0.44954,1.5036 -0.67431,2.18022c-0.2997,0.67662 -0.52447,1.35324 -0.82416,1.95468c-0.29969,0.60144 -0.59939,1.20288 -0.89908,1.65396c-0.2997,0.52626 -0.59939,0.97734 -0.82416,1.35324c-0.2997,0.3759 -0.52447,0.7518 -0.74924,0.97734c-0.22477,0.52626 -0.52446,0.82698 -0.52446,0.82698z" id="Path" fill="#519b3d"/><path d="M158.73847,269.66054c2.17278,-1.65395 7.6422,-3.45827 10.56422,-2.93201c2.92202,0.52626 -0.44954,3.68381 -0.44954,5.41295c0,1.12769 2.92202,1.12769 2.09786,2.85683c-0.44954,0.97734 -1.5734,0.52626 -2.47248,-0.07518c-0.59939,-0.3759 -1.42355,0 -2.09786,0.60144c-0.97401,0.90216 -1.79817,1.8795 -3.52141,1.8795c-2.32263,0 -3.8211,0.22554 -4.94495,1.42842c-1.12385,1.20288 -2.09786,1.5036 -3.14679,0.52626c-0.74923,-0.7518 -0.44954,-2.02986 -0.44954,-2.02986c0,0 -0.37462,-0.15036 -1.2737,0.22554c-0.89908,0.3759 -1.87309,0.30072 -2.32263,-0.67662c-0.37462,-0.7518 -0.22477,-1.42842 -0.22477,-1.42842c-0.67432,0.07518 -0.97401,0.07518 -1.79817,-0.82698c-0.82416,-0.97733 -0.67432,-2.63129 1.12385,-3.08237c1.79817,-0.3759 1.94802,0.97734 3.29664,0.90216c1.34863,-0.07518 4.42049,-1.87949 5.61927,-2.78165z" id="Path" fill="#7cbf2e"/><path d="M169.003,272.8933c0.22477,0.07518 0.29969,0.07518 0.29969,0.07518c0,0 -0.07492,0 -0.22477,-0.15036c-0.14984,-0.07518 -0.22477,-0.30072 -0.29969,-0.60144c-0.07493,-0.30072 0,-0.67662 0.07492,-1.05252c0.07492,-0.3759 0.29969,-0.82698 0.52446,-1.27806c0.22477,-0.45108 0.52447,-0.90216 0.82416,-1.42842c0.2997,-0.45108 0.67432,-0.97734 0.97401,-1.5036c0.74924,-1.05251 1.49847,-2.10503 2.24771,-3.15755c0.82416,-1.05251 1.64831,-2.10503 2.39755,-3.08237c0.74923,-0.97734 1.49847,-1.8795 2.17278,-2.6313c1.2737,-1.5036 2.17278,-2.55612 2.17278,-2.55612c0,0 -0.74923,1.05251 -1.94801,2.70647c-1.19878,1.57878 -2.77218,3.75899 -4.34557,5.86403c-0.74924,1.05251 -1.57339,2.10503 -2.32263,3.15755c-0.37462,0.52626 -0.67431,0.97734 -1.04893,1.5036c-0.29969,0.45108 -0.59939,0.90216 -0.89908,1.35324c-0.22477,0.45108 -0.44954,0.82698 -0.59939,1.20288c-0.14985,0.3759 -0.22477,0.67662 -0.22477,0.97734c0,0.30072 0.07492,0.52626 0.22477,0.60144z" id="Path" fill="#519b3d"/><path d="M150.49688,275.52458c0,0 0,-0.15036 0.07492,-0.3759c0,-0.07518 0.07493,-0.22554 0.14985,-0.3759c0.07492,-0.15036 0.14984,-0.30072 0.29969,-0.45108c0.29969,-0.30072 0.74924,-0.60144 1.2737,-0.60144c0.2997,0 0.52447,0 0.82416,0c0.2997,0.07518 0.52447,0.15036 0.74924,0.15036c0.44954,0.07518 0.97401,0 1.42355,-0.07518c0.44954,-0.07518 0.89908,-0.22554 1.2737,-0.3759c0.37462,-0.15036 0.67431,-0.30072 0.82416,-0.3759c0.22477,-0.15036 0.29969,-0.22554 0.29969,-0.22554c0,0 -0.07492,0.07518 -0.22477,0.30072c-0.14985,0.15036 -0.44955,0.3759 -0.74924,0.60144c-0.37462,0.22554 -0.82416,0.3759 -1.2737,0.52626c-0.52446,0.15036 -1.04893,0.22554 -1.57339,0.15036c-0.2997,0 -0.52447,-0.07518 -0.74924,-0.15036c-0.22477,-0.07518 -0.44954,-0.07518 -0.67431,-0.07518c-0.22477,0 -0.44954,0.07518 -0.59939,0.15036c-0.14984,0.07518 -0.37461,0.15036 -0.52446,0.30072c-0.2997,0.22554 -0.44954,0.52626 -0.59939,0.67662c-0.22477,0.07518 -0.22477,0.22554 -0.22477,0.22554z" id="Path" fill="#519b3d"/><path d="M154.24305,277.40408c0,0 0,-0.45108 0.29969,-0.97734c0.14985,-0.30072 0.44954,-0.52626 0.82416,-0.7518c0.14985,-0.07518 0.37462,-0.22554 0.59939,-0.22554c0.22477,-0.07518 0.44954,-0.07518 0.59939,-0.15036c0.82416,-0.15036 1.64832,-0.15036 2.17278,-0.22554c0.59939,-0.07518 0.97401,-0.22554 0.97401,-0.22554c0,0 -0.07492,0.07518 -0.22477,0.15036c-0.14985,0.07518 -0.37462,0.22554 -0.67431,0.30072c-0.59939,0.22554 -1.42354,0.30072 -2.17278,0.3759c-0.74924,0.07518 -1.42355,0.45108 -1.87309,0.90216c-0.22477,0.22554 -0.2997,0.45108 -0.37462,0.60144c-0.14985,0.15036 -0.14985,0.22554 -0.14985,0.22554z" id="Path" fill="#519b3d"/><path d="M155.14214,279.1332c-0.52447,0.45108 -0.82416,0.52626 -1.19878,1.35324c0,0 -0.07492,-3.23273 1.42355,-2.63129c0.89908,0.3759 0.44954,0.90216 -0.22477,1.27806z" id="Path" fill="#a1af93"/><path d="M149.89749,278.23106c0,0 0.52447,-3.23274 1.87309,-2.33058c0.82416,0.52626 0.2997,0.97734 -0.44954,1.27806c-0.67431,0.30072 -0.97401,0.30072 -1.42355,1.05252z" id="Path" fill="#a1af93"/><path d="M146.82563,275.29904c0,0 1.57339,-2.85684 2.5474,-1.57878c0.59939,0.82698 -0.07492,1.05252 -0.82416,1.05252c-0.74923,0 -0.974,0 -1.72324,0.52626z" id="Path" fill="#a1af93"/></g><path d="M160.46172,213.05012c-0.07492,1.5036 -0.07492,2.55612 -0.07492,2.55612c0,0 -0.14985,-0.97734 -0.22477,-2.48094c0,-0.7518 0,-1.65396 0,-2.55612c0.07492,-0.90215 0.14984,-1.95467 0.29969,-2.93201c0.07492,-0.52626 0.14984,-0.97734 0.29969,-1.5036c0.07493,-0.45108 0.22477,-0.97734 0.37462,-1.42842c0.07492,-0.45108 0.29969,-0.90216 0.44954,-1.27806c0.14984,-0.3759 0.37461,-0.7518 0.52446,-1.1277c0.14984,-0.3759 0.37461,-0.60144 0.52446,-0.90216c0.07492,-0.15036 0.14985,-0.22554 0.22477,-0.3759c0.07492,-0.07518 0.14985,-0.15036 0.22477,-0.22554c0.29969,-0.30072 0.44954,-0.45108 0.44954,-0.45108c0,0 -0.14985,0.22554 -0.37462,0.52626c-0.07492,0.07518 -0.14985,0.15036 -0.22477,0.30072c-0.07492,0.07518 -0.14985,0.22554 -0.22477,0.3759c-0.14985,0.30072 -0.29969,0.52626 -0.44954,0.90216c-0.14985,0.3759 -0.29969,0.67662 -0.44954,1.1277c-0.14985,0.3759 -0.2997,0.82698 -0.37462,1.27806c-0.14984,0.45108 -0.22477,0.90216 -0.29969,1.35324c-0.07492,0.45108 -0.14985,0.97734 -0.22477,1.42842c-0.14984,0.97733 -0.22477,1.95467 -0.29969,2.85683c-0.07493,0.90216 -0.14985,1.80432 -0.14985,2.55612z" id="Path" fill="#519b3d"/></g><g data-paper-data="{&quot;index&quot;:null}" id="Shape"><g id="Group"><g id="Path"><path d="M227.66814,186.51162c18.95566,-29.0946 45.92813,2.2554 35.06422,23.30576c-5.69419,11.05144 -1.2737,18.11835 2.99694,21.6518c3.37156,2.85684 7.86697,1.80432 12.06269,12.10396c2.24771,5.63849 1.87309,22.40359 1.87309,24.58381c-0.14985,11.05144 -6.89297,3.45827 -7.9419,-1.65396c-4.04587,-20.44892 -4.72019,-22.62913 -9.44037,-24.73417c-4.79511,-2.18021 -13.56116,-7.59316 -28.54587,-13.75791c-9.81499,-4.05971 -13.71101,-29.77122 -6.06881,-41.49928z" fill="#7cbf2e"/><path d="M271.87301,270.41234c0.89908,-2.55611 -3.37156,-10.0741 4.94495,-8.26978c2.84709,0.60143 2.92202,3.53345 3.44648,8.1946c0.37462,3.23274 -1.04893,6.39029 -2.69725,6.76619c-2.32263,0.52626 -3.67125,1.05252 -4.49541,2.48094c-0.82416,1.42842 -1.64832,2.02986 -2.92202,1.27806c-0.89908,-0.52626 -0.89908,-1.8795 -0.89908,-1.8795c0,0 -0.37461,-0.07518 -1.12385,0.52626c-0.74923,0.60144 -1.72324,0.67662 -2.39755,-0.15036c-0.52446,-0.67662 -0.52446,-1.35324 -0.52446,-1.35324c-0.59939,0.15036 -0.89908,0.30072 -1.94801,-0.45108c-1.04893,-0.75179 -1.2737,-2.40575 0.37462,-3.23273c1.72324,-0.82698 2.17278,0.45108 3.44648,0.07518c1.2737,-0.3759 4.27065,-2.55611 4.79511,-3.98453z" fill="#7cbf2e"/><path d="M265.20483,278.00552c0,0 0,-0.15036 0,-0.3759c0,-0.15036 0,-0.22554 0.07492,-0.45108c0.07492,-0.15036 0.07492,-0.3759 0.22477,-0.52626c0.22477,-0.3759 0.59939,-0.7518 1.12385,-0.90216c0.22477,-0.07518 0.52447,-0.15036 0.82416,-0.15036c0.2997,0 0.52447,0 0.74924,-0.07518c0.44954,-0.07518 0.97401,-0.22554 1.42355,-0.45108c0.44954,-0.22554 0.82416,-0.3759 1.12385,-0.60144c0.2997,-0.22554 0.59939,-0.45108 0.74924,-0.60144c0.14985,-0.15036 0.22477,-0.22554 0.22477,-0.22554c0,0 -0.07493,0.15036 -0.14985,0.30072c-0.14985,0.22554 -0.2997,0.45108 -0.59939,0.7518c-0.29969,0.30072 -0.67431,0.52626 -1.12385,0.82698c-0.44954,0.22554 -0.97401,0.45108 -1.49847,0.52626c-0.2997,0 -0.52447,0 -0.82416,0c-0.22477,0 -0.44954,0.07518 -0.67431,0.07518c-0.22477,0.07518 -0.44954,0.15036 -0.59939,0.30072c-0.14985,0.15036 -0.29969,0.22554 -0.44954,0.3759c-0.22477,0.30072 -0.37462,0.60144 -0.37462,0.82698c-0.22477,0.22554 -0.22477,0.3759 -0.22477,0.3759z" fill="#519b3d"/><path d="M269.40056,278.75731c-0.14985,0.15036 -0.14985,0.22554 -0.14985,0.22554c0,0 -0.14985,-0.45108 0.07492,-1.05252c0.07493,-0.30072 0.2997,-0.67662 0.59939,-0.90216c0.14984,-0.15036 0.29969,-0.30072 0.52446,-0.3759c0.14985,-0.15036 0.37462,-0.22554 0.59939,-0.30072c0.74924,-0.30072 1.5734,-0.52626 2.09786,-0.67662c0.59939,-0.22554 0.89908,-0.45108 0.89908,-0.45108c0,0 -0.07493,0.07518 -0.14985,0.22554c-0.14985,0.15036 -0.2997,0.30072 -0.59939,0.45108c-0.52447,0.30072 -1.34863,0.60144 -2.02294,0.90216c-0.74923,0.30072 -1.34862,0.7518 -1.57339,1.27806c-0.14984,0.22554 -0.22477,0.45108 -0.29969,0.67662z" fill="#519b3d"/><path d="M270.59932,280.56162c-0.52446,0.45108 -0.74923,0.60144 -0.89908,1.5036c0,0 -0.74923,-3.15755 0.82416,-2.85683c0.974,0.15036 0.59938,0.82698 0.07492,1.35324z" fill="#a1af93"/><path d="M266.40362,279.43392c-0.67432,0.45108 -0.89909,0.52626 -1.19878,1.35324c0,0 -0.22477,-3.23273 1.34862,-2.70647c0.974,0.3759 0.44954,0.90216 -0.14985,1.35324z" fill="#a1af93"/><path d="M263.18188,277.77998c-0.74923,0.15036 -1.04893,0.15036 -1.57339,0.90216c0,0 0.89908,-3.15756 2.09786,-2.10504c0.74924,0.60144 0.14985,0.97734 -0.52446,1.20288z" fill="#a1af93"/><path d="M260.55959,223.12423c-0.07493,0.60144 0.07492,0.82698 0.07492,0.82698c0,0 -0.14985,-0.22554 -0.22477,-0.67662c-0.14984,-0.45108 -0.29969,-1.1277 -0.29969,-1.95468c-0.07492,-0.3759 -0.07492,-0.82698 -0.07492,-1.35324c0,-0.45108 0,-0.97734 0.07492,-1.5036c0.07492,-0.52626 0.07492,-1.05252 0.22477,-1.57878c0.07492,-0.52626 0.22477,-1.05252 0.29969,-1.57878c0.14985,-0.52626 0.29969,-1.05252 0.44954,-1.57878c0.14984,-0.52626 0.29969,-0.97734 0.52446,-1.5036c0.14984,-0.45108 0.37461,-0.90216 0.52446,-1.35324c0.22477,-0.45108 0.37461,-0.82698 0.52446,-1.20288c0.29969,-0.7518 0.67431,-1.35324 0.89908,-1.72914c0.22477,-0.3759 0.37462,-0.67662 0.37462,-0.67662c0,0 -0.07492,0.22554 -0.29969,0.67662c-0.14985,0.45108 -0.44955,1.05252 -0.74924,1.80432c-0.14985,0.3759 -0.29969,0.7518 -0.44954,1.20288c-0.14985,0.45108 -0.29969,0.90216 -0.44954,1.35324c-0.14985,0.45108 -0.29969,0.97734 -0.44954,1.5036c-0.14985,0.52626 -0.2997,1.05252 -0.37462,1.57878c-0.14985,0.52626 -0.22477,1.05252 -0.37462,1.57878c-0.14985,0.52626 -0.14985,1.05252 -0.22477,1.5036c-0.14985,0.97733 -0.22477,1.95467 -0.14985,2.70647c0,0.82698 0.07493,1.5036 0.14985,1.95468z" fill="#519b3d"/><path d="M223.32258,204.10372c-0.07493,-1.27806 -0.14985,-1.95468 -0.14985,-1.95468c0,0 0.37461,2.85684 1.12385,7.06691c0.37461,2.10504 0.89908,4.58597 1.57339,7.14209c0.37462,1.27806 0.74924,2.63129 1.2737,3.90935c0.52446,1.27805 1.12385,2.55611 1.94801,3.68381c0.82416,1.12769 1.87309,2.10503 2.99694,2.85683c1.12385,0.7518 2.39755,1.35324 3.59633,1.8795c2.47248,1.05251 4.79511,2.02985 6.74312,2.93201c1.94801,0.90216 3.52141,1.72914 4.64526,2.33058c1.12385,0.60144 1.72324,0.97734 1.72324,0.97734c0,0 -0.67431,-0.30072 -1.72324,-0.90216c-1.12385,-0.52626 -2.77217,-1.27806 -4.72018,-2.10504c-1.94801,-0.82697 -4.34556,-1.72913 -6.81804,-2.78165c-1.19877,-0.52626 -2.47247,-1.1277 -3.67125,-1.8795c-1.19878,-0.75179 -2.24771,-1.80431 -3.14679,-2.93201c-0.89909,-1.20288 -1.49848,-2.48093 -2.02294,-3.83417c-0.52446,-1.35324 -0.89908,-2.70647 -1.2737,-3.98453c-0.67431,-2.6313 -1.12386,-5.11223 -1.42355,-7.21727c-0.29969,-2.10504 -0.52446,-3.90935 -0.67431,-5.18741z" fill="#519b3d"/></g><g id="Path" fill="#89ce30"><path d="M258.16201,187.48897c-0.67431,5.03705 -10.93884,4.73633 -13.78593,0.90216c-2.84709,-3.83417 -4.49541,-8.9464 0.97401,-8.9464c5.3945,0 13.41132,2.85683 12.81193,8.04424z"/><path d="M246.62379,197.63825c-4.04587,-1.42841 0.974,-4.13489 5.0948,-3.23273c4.1208,0.90215 1.2737,5.48813 -5.0948,3.23273z"/><path d="M238.90667,193.80407c-1.87309,-1.27805 -2.24771,-4.88669 0.67431,-3.83417c3.52141,1.27805 1.19878,5.11223 -0.67431,3.83417z"/></g></g><path d="M260.63448,241.01702c-0.44954,-0.22554 -0.82416,-0.45108 -0.82416,-0.45108c0,0 0.29969,0.07518 0.89908,0.30072c0.59939,0.22554 1.42355,0.52626 2.32263,1.05252c0.44954,0.22554 0.97401,0.52626 1.49847,0.82698c0.22478,0.15036 0.52447,0.3759 0.74924,0.60144c0.22477,0.22554 0.37462,0.52626 0.59939,0.82698c0.74924,1.12769 1.34863,2.40575 1.79817,3.75899c0.44954,1.35324 0.82416,2.70647 1.19878,3.98453c0.2997,1.27805 0.59939,2.48093 0.82416,3.53345c0.22477,1.05252 0.37462,1.8795 0.44954,2.48094c0.07493,0.60144 0.14985,0.97734 0.14985,0.97734c0,0 -0.37462,-1.35323 -0.89908,-3.38309c-0.22477,-1.05251 -0.59939,-2.18021 -0.97401,-3.45827c-0.37462,-1.27805 -0.74924,-2.63129 -1.19878,-3.90935c-0.44954,-1.27805 -0.974,-2.63129 -1.72324,-3.68381c-0.14984,-0.22554 -0.37461,-0.52626 -0.52446,-0.7518c-0.14985,-0.22554 -0.44954,-0.3759 -0.67431,-0.60144c-0.44954,-0.3759 -0.97401,-0.60144 -1.42355,-0.90216c-0.89909,-0.52626 -1.72325,-0.90216 -2.24771,-1.20288z" id="Path" fill="#519b3d"/></g><g data-paper-data="{&quot;index&quot;:null}" id="Shape"><path d="M310.23388,122.23286c-6.96789,-3.23273 -29.51988,-4.05971 -20.30428,27.89173c0,0 -29.51988,-14.50972 -28.09633,18.34388c0,0 -42.85627,-27.29029 -67.20642,0c0,0 20.00458,-46.23561 0.89908,-71.49604c0,0 13.93578,-28.86907 60.83792,-17.74245c22.02752,5.18741 53.87003,43.00288 53.87003,43.00288z" id="Path" fill="#b4d189"/><path d="M192.60391,174.10694c-2.17278,7.21727 -15.88379,3.30792 -14.53517,-2.93201c0,0 24.35016,-23.5313 22.10245,-39.01835c-2.2477,-15.56223 -16.78287,-33.68058 -14.61009,-42.5518c2.17278,-8.87122 8.39144,-15.56223 15.88379,-14.20899c0,0 -9.29052,1.35324 -8.39144,9.3223c0,0 31.01835,-13.98345 60.38838,-9.54784c23.15137,3.45827 61.13761,51.72374 61.13761,51.72374c0,0 -45.85321,-43.30359 -63.16055,-45.33345c-17.38227,-2.02986 -46.37768,2.33057 -49.52447,9.77338c0,0 36.71254,-8.42014 47.27676,0.45108c10.63914,8.87122 27.87156,26.16259 42.85627,62.54964c0,0 -32.89144,-50.29532 -46.15291,-55.63309c-13.26147,-5.33777 -43.08104,-0.22554 -43.08104,-0.22554c0,0 37.16208,7.06691 46.4526,28.41799c9.29052,21.2759 14.16055,46.16043 14.16055,46.16043c0,0 -17.98165,-48.41582 -32.74159,-56.23453c-14.23547,-7.51799 -27.34709,-10.75072 -27.34709,-10.75072c0,0 8.46636,19.99784 5.01988,35.10899c-3.8211,16.84029 -12.4373,21.50144 -15.73394,32.92878z" id="Path" fill="#7cbf2e"/><path d="M182.26447,166.96485c-1.2737,1.35324 -2.02294,2.10504 -2.02294,2.10504c0,0 2.92202,-3.08237 6.89297,-8.04424c1.94801,-2.48093 4.19572,-5.48813 6.29358,-8.79604c2.09786,-3.30791 4.19572,-7.06691 5.46942,-11.05144c0.67431,-2.02986 1.04893,-4.05971 1.04893,-6.16475c-0.07492,-2.02986 -0.44954,-4.05971 -0.82416,-6.01439c-0.89909,-3.83417 -2.09786,-7.36763 -3.29664,-10.29964c-2.32263,-5.86403 -4.34557,-9.62302 -4.34557,-9.62302c0,0 0.52446,0.90216 1.34862,2.55612c0.82416,1.65396 2.02294,3.98454 3.29664,6.99173c1.19877,2.93201 2.5474,6.46547 3.44648,10.29964c0.44954,1.95468 0.82416,3.98453 0.89908,6.08957c0,2.10504 -0.37462,4.28525 -1.04893,6.31511c-1.34863,4.05971 -3.44649,7.81871 -5.61927,11.12662c-2.17278,3.30791 -4.42048,6.23992 -6.44342,8.72086c-2.02293,2.48094 -3.8211,4.43561 -5.0948,5.78885z" id="Path" fill="#519b3d"/><path d="M201.89443,98.47603c-1.04893,-0.3759 -1.64832,-0.52626 -1.64832,-0.52626c0,0.07518 0.59939,0.15036 1.5734,0.3759c1.04893,0.22554 2.47248,0.45108 4.27064,0.90216c1.72324,0.3759 3.74618,0.90216 5.91896,1.57878c2.17279,0.67662 4.42049,1.42842 6.6682,2.2554c2.24771,0.82697 4.42049,1.80431 6.44343,2.70647c2.02294,0.90215 3.89603,1.95467 5.46942,2.78165c1.5734,0.82698 2.8471,1.65396 3.74618,2.18022c0.89908,0.60144 1.34862,0.90216 1.34862,0.90216c0,0 -0.52447,-0.30072 -1.42355,-0.82698c-0.89908,-0.52626 -2.24771,-1.20288 -3.8211,-2.02986c-1.5734,-0.82698 -3.44648,-1.72914 -5.46942,-2.6313c-2.02294,-0.90215 -4.27065,-1.80431 -6.44343,-2.63129c-2.2477,-0.82698 -4.49541,-1.65396 -6.59327,-2.2554c-2.09786,-0.67662 -4.1208,-1.27806 -5.84404,-1.72914c-1.72324,-0.45108 -3.14679,-0.82698 -4.19572,-1.05252z" id="Path" fill="#519b3d"/><path d="M199.72165,91.93537c0,0 0.59939,-0.22554 1.64832,-0.45108c1.04893,-0.30072 2.62232,-0.67662 4.49541,-1.1277c0.89908,-0.22554 1.94801,-0.3759 2.99694,-0.60144c1.04893,-0.22554 2.17278,-0.45108 3.37156,-0.60144c2.32263,-0.3759 4.87003,-0.67662 7.41743,-0.90216c1.2737,-0.15036 2.5474,-0.22554 3.74618,-0.30072c1.2737,-0.07518 2.47247,-0.15036 3.67125,-0.15036c1.19877,-0.07518 2.32263,0 3.44648,-0.07518c1.12386,0 2.09786,0 3.07187,0.07518c0.974,0 1.79816,0.07518 2.62232,0.15036c0.74924,0.07518 1.42355,0.15036 2.02294,0.15036c1.12385,0.07518 1.72324,0.15036 1.72324,0.15036c0,0 -0.59939,0 -1.72324,-0.07518c-0.52447,0 -1.19878,-0.07518 -2.02294,-0.07518c-0.74923,0 -1.64831,0 -2.62232,0c-0.97401,0 -1.94802,0 -3.07187,0c-1.12385,0 -2.2477,0 -3.44648,0.07518c-1.19877,0.07518 -2.39755,0.07518 -3.67125,0.22554c-1.2737,0.07518 -2.47248,0.15036 -3.74618,0.30072c-2.5474,0.22554 -5.01988,0.52626 -7.41743,0.90216c-2.32263,0.3759 -4.57034,0.67662 -6.3685,1.05252c-1.87309,0.3759 -3.44648,0.67662 -4.49541,0.90216c-1.04893,0.15036 -1.64832,0.3759 -1.64832,0.3759z" id="Path" fill="#519b3d"/><path d="M195.22623,83.66559c-1.34862,0.67662 -2.17278,1.05252 -2.17278,1.05252c0,0 0.82416,-0.3759 2.24771,-0.97734c0.74923,-0.30072 1.64831,-0.67662 2.62232,-1.05252c1.04893,-0.3759 2.17278,-0.82698 3.44648,-1.27806c1.27371,-0.45108 2.69725,-0.90216 4.1208,-1.35324c1.49847,-0.45108 3.07186,-0.90216 4.64526,-1.42842c1.64832,-0.3759 3.29664,-0.90216 5.0948,-1.27806c1.72324,-0.3759 3.52141,-0.82698 5.24465,-1.1277c0.89908,-0.15036 1.79817,-0.30072 2.69725,-0.52626c0.89908,-0.15036 1.79816,-0.30072 2.62232,-0.3759c0.89908,-0.15036 1.72324,-0.30072 2.62232,-0.3759c0.89908,-0.07518 1.72324,-0.15036 2.5474,-0.30072c0.82416,-0.07518 1.64832,-0.22554 2.47248,-0.22554c0.82416,-0.07518 1.57339,-0.07518 2.39755,-0.15036c0.74924,-0.07518 1.49847,-0.07518 2.24771,-0.15036c0.74924,-0.07518 1.42355,0 2.09786,0c1.34862,0 2.62232,0 3.67125,0c1.12385,0.07518 2.02293,0.15036 2.84709,0.15036c1.5734,0.07518 2.47248,0.15036 2.47248,0.15036c0,0 -0.89909,0 -2.47248,-0.07518c-0.82415,0 -1.72324,-0.07518 -2.84709,-0.07518c-1.12385,0 -2.32263,0.07518 -3.67125,0.07518c-0.67431,0 -1.34862,0 -2.09786,0.07518c-0.74924,0.07518 -1.49847,0.07518 -2.24771,0.15036c-0.74923,0.07518 -1.57339,0.07518 -2.39755,0.15036c-0.82416,0.07518 -1.64832,0.15036 -2.47248,0.30072c-0.82416,0.07518 -1.72324,0.22554 -2.5474,0.30072c-0.82415,0.07518 -1.72324,0.22554 -2.62232,0.3759c-0.89908,0.15036 -1.72324,0.30072 -2.62232,0.3759c-0.89908,0.15036 -1.79816,0.30072 -2.62232,0.52626c-1.79817,0.30072 -3.52141,0.67662 -5.24465,1.05252c-1.72324,0.3759 -3.44649,0.82698 -5.01988,1.20288c-1.64831,0.45108 -3.22171,0.82698 -4.72018,1.35324c-1.49847,0.45108 -2.8471,0.90216 -4.19572,1.27806c-2.5474,0.82698 -4.72018,1.57878 -6.14373,2.18022z" id="Path" fill="#519b3d"/><path d="M193.65285,171.70119c-0.07492,0.30072 -0.07492,0.52626 -0.07492,0.52626c0,0 0,-0.15036 0,-0.45108c0,-0.30072 0.07492,-0.7518 0.29969,-1.35324c0.29969,-1.1277 0.974,-2.70647 1.94801,-4.51079c0.52446,-0.90215 1.04893,-1.80431 1.72324,-2.78165c0.59939,-0.97733 1.34862,-2.02985 2.09786,-3.00719c1.49847,-2.02986 2.84709,-4.36043 4.04587,-6.84137c1.19878,-2.40576 2.17278,-4.96187 2.99694,-7.36763c0.82416,-2.40576 1.42355,-4.66115 1.79817,-6.69101c0.37462,-1.95468 0.59939,-3.68381 0.67431,-4.88669c0,-0.60144 0,-1.05252 0,-1.35324c0,-0.30072 0,-0.45108 0,-0.45108c0,0 0,0.15036 0.07492,0.45108c0,0.30072 0.07492,0.7518 0.07492,1.35324c0,1.20288 -0.14985,2.85683 -0.44954,4.88669c-0.37462,2.02986 -0.89908,4.36043 -1.72324,6.76619c-0.82416,2.40576 -1.79816,4.96187 -2.99694,7.44281c-1.19878,2.40576 -2.62233,4.81151 -4.1208,6.84137c-0.74924,1.05251 -1.49847,2.02985 -2.09786,2.93201c-0.67432,0.97733 -1.2737,1.87949 -1.79817,2.78165c-0.52446,0.90216 -0.974,1.65396 -1.34862,2.40576c-0.37462,0.7518 -0.59939,1.42842 -0.82416,1.95468c-0.22477,0.52626 -0.29969,1.05252 -0.29969,1.35324z" id="Path" fill="#519b3d"/><path d="M202.26906,104.71595c-0.37461,-0.82698 -0.74923,-1.35324 -0.74923,-1.35324c0,0 0.14984,0.07518 0.29969,0.30072c0.14984,0.22554 0.44954,0.52626 0.67431,0.97734c0.52447,0.82697 1.12385,2.02985 1.64832,3.23273c0.52446,1.20287 0.89908,2.48093 1.12385,3.45827c0.14985,0.45108 0.14985,0.90216 0.22477,1.20288c0.07492,0.30072 0.07492,0.45108 0.07492,0.45108c0,0 -0.07493,-0.15036 -0.14985,-0.45108c-0.07492,-0.30072 -0.22477,-0.67662 -0.44954,-1.1277c-0.37462,-0.90215 -0.82416,-2.18021 -1.2737,-3.38309c-0.44954,-1.20287 -0.97401,-2.40575 -1.42355,-3.30791z" id="Path" fill="#519b3d"/><path d="M202.19414,90.73249c-0.22477,0.3759 -0.29969,0.60144 -0.29969,0.60144c0,0 0.07492,-0.22554 0.29969,-0.67662c0.14985,-0.22554 0.29969,-0.45108 0.44954,-0.67662c0.22476,-0.22554 0.44954,-0.52626 0.74923,-0.7518c0.2997,-0.22554 0.59939,-0.52626 0.97401,-0.82698c0.37462,-0.30072 0.74924,-0.52626 1.19878,-0.7518c0.44954,-0.22554 0.89908,-0.45108 1.34862,-0.7518c0.44954,-0.22554 0.89909,-0.45108 1.42355,-0.67662c0.44954,-0.22554 0.97401,-0.3759 1.42355,-0.52626c0.44954,-0.15036 0.97401,-0.30072 1.42355,-0.45108c0.89908,-0.30072 1.79816,-0.52626 2.5474,-0.7518c0.74924,-0.22554 1.42355,-0.30072 1.79817,-0.3759c0.44954,-0.07518 0.67431,-0.15036 0.67431,-0.15036c0,0 -0.97401,0.30072 -2.47248,0.82698c-0.74924,0.22554 -1.5734,0.52626 -2.47248,0.90216c-0.44954,0.15036 -0.89909,0.30072 -1.42355,0.52626c-0.44954,0.22554 -0.97401,0.3759 -1.42355,0.60144c-0.44954,0.22554 -0.89909,0.45108 -1.42355,0.60144c-0.44954,0.22554 -0.89908,0.45108 -1.34862,0.67662c-0.37462,0.22554 -0.82416,0.45108 -1.19878,0.67662c-0.37462,0.22554 -0.67432,0.45108 -0.97401,0.67662c-0.2997,0.22554 -0.59939,0.45108 -0.74924,0.67662c-0.22477,0.22554 -0.37461,0.45108 -0.52446,0.60144z" id="Path" fill="#519b3d"/><path d="M193.20329,81.86127c0.14985,-0.82698 0.44954,-1.35324 0.44954,-1.35324c0,0 -0.14984,0.60144 -0.29969,1.5036c-0.07493,0.45108 -0.14985,0.97734 -0.14985,1.5036c0,0.52626 0.07492,1.1277 0.29969,1.65396c0.07492,0.15036 0.14985,0.22554 0.22477,0.3759c0.07492,0.15036 0.14984,0.22554 0.29969,0.3759c0.14985,0.30072 0.2997,0.60144 0.37462,0.90216c0.07493,0.60144 -0.07492,1.20288 -0.29969,1.65396c-0.22477,0.45108 -0.59939,0.67662 -0.82416,0.7518c-0.22477,0.07518 -0.44954,0.07518 -0.44954,0.07518c0,0 0.14985,0 0.37462,-0.15036c0.22477,-0.15036 0.44954,-0.45108 0.67431,-0.82698c0.14985,-0.3759 0.2997,-0.90216 0.14985,-1.42842c-0.07492,-0.22554 -0.14984,-0.52626 -0.29969,-0.7518c-0.07492,-0.15036 -0.14985,-0.22554 -0.22477,-0.3759c-0.07492,-0.15036 -0.22477,-0.30072 -0.29969,-0.45108c-0.29969,-0.60144 -0.29969,-1.27806 -0.29969,-1.8795c0,-0.60144 0.14984,-1.1277 0.29969,-1.57878z" id="Path" fill="#519b3d"/><path d="M214.78129,157.19149c-0.59938,0 -0.74923,0.07518 -0.74923,0.07518c0,0 0.14984,-0.07518 0.52446,-0.15036c0.37461,-0.07518 0.89908,-0.22554 1.57339,-0.3759c0.67431,-0.15036 1.49847,-0.22554 2.47248,-0.3759c0.974,-0.15036 2.02293,-0.15036 3.22171,-0.22554c0.59939,0 1.19878,0 1.87309,0c0.59939,0 1.2737,0.07518 1.94801,0.07518c1.34862,0 2.77217,0.22554 4.27064,0.3759c0.74924,0.07518 1.49847,0.22554 2.24771,0.3759c0.74924,0.15036 1.49847,0.22554 2.24771,0.3759c0.74924,0.15036 1.49847,0.30072 2.24771,0.52626l1.12385,0.22554l1.12385,0.30072c1.49847,0.45108 3.07186,0.82698 4.49541,1.35324c0.74923,0.22554 1.42354,0.52626 2.17278,0.7518c0.37462,0.15036 0.74924,0.22554 1.04893,0.3759c0.37462,0.15036 0.67431,0.30072 1.04893,0.45108c1.34862,0.52626 2.69724,1.1277 3.89602,1.65396c1.19877,0.60144 2.39755,1.1277 3.44648,1.65396c0.52446,0.22554 1.04893,0.52626 1.49847,0.7518c0.44954,0.30072 0.89908,0.52626 1.34862,0.7518c0.82416,0.45108 1.57339,0.90216 2.17278,1.20288c1.19878,0.67662 1.87309,1.05252 1.87309,1.05252c0,0 -0.67431,-0.3759 -1.94801,-0.97734c-0.59939,-0.30072 -1.34862,-0.67662 -2.17278,-1.1277c-0.44954,-0.22554 -0.89908,-0.45108 -1.34862,-0.67662c-0.52446,-0.22554 -0.97401,-0.45108 -1.49847,-0.67662c-1.04893,-0.52626 -2.2477,-1.05252 -3.44648,-1.57878c-1.2737,-0.52626 -2.5474,-1.05252 -3.89602,-1.57878c-0.37462,-0.15036 -0.67431,-0.30072 -1.04893,-0.45108c-0.37462,-0.15036 -0.67431,-0.22554 -1.04893,-0.3759c-0.74923,-0.22554 -1.42354,-0.52626 -2.17278,-0.7518c-1.42354,-0.52626 -2.99694,-0.90216 -4.49541,-1.35324l-1.12385,-0.30072l-1.12385,-0.22554c-0.74924,-0.15036 -1.49847,-0.3759 -2.24771,-0.52626c-0.74924,-0.15036 -1.49847,-0.30072 -2.24771,-0.3759c-0.74923,-0.15036 -1.49847,-0.30072 -2.17278,-0.3759c-1.42355,-0.15036 -2.8471,-0.3759 -4.19572,-0.45108c-0.67431,0 -1.34862,-0.07518 -1.94801,-0.07518c-0.59939,0 -1.27371,0 -1.79817,0c-0.59939,0 -1.12386,0 -1.64832,0.07518c-0.52446,0 -1.04893,0 -1.49847,0.07518c-0.97401,0.07518 -1.79817,0.15036 -2.47248,0.22554c-0.67432,0.07518 -1.19878,0.22554 -1.5734,0.30072z" id="Path" fill="#7d9950"/><path d="M229.61614,116.29366c-0.2997,-0.30072 -0.59939,-0.30072 -0.59939,-0.30072c0,0 0.22477,0.07518 0.67431,0.22554c0.44954,0.15036 1.12385,0.45108 1.87309,0.97734c1.5734,0.97734 3.52141,2.63129 5.61927,4.96187c1.04893,1.20288 2.09786,2.48093 3.14679,3.90935c1.04893,1.42842 2.09786,3.00719 3.07187,4.66115c1.04893,1.65396 2.02293,3.38309 2.99694,5.18741c0.52446,0.90215 0.97401,1.80431 1.49847,2.70647c0.52447,0.90215 0.97401,1.80431 1.42355,2.78165c1.87309,3.68381 3.67125,7.44281 5.31957,10.97626c0.82416,1.72914 1.57339,3.45827 2.32263,5.11223c0.74924,1.65396 1.42355,3.15755 2.02294,4.58597c1.19878,2.85684 2.24771,5.26259 2.92202,6.91655c0.67431,1.65395 1.04893,2.63129 1.04893,2.63129c0,0 -0.44954,-0.97733 -1.12385,-2.63129c-0.74924,-1.65396 -1.79817,-3.98454 -3.07187,-6.84137c-1.2737,-2.85683 -2.77217,-6.08957 -4.49541,-9.62302c-1.64832,-3.53345 -3.44649,-7.21727 -5.3945,-10.90108c-0.97401,-1.80432 -1.87309,-3.68381 -2.92202,-5.41295c-0.974,-1.80432 -1.94801,-3.53345 -2.99694,-5.18741c-2.02294,-3.30791 -4.04587,-6.3151 -6.06881,-8.64568c-1.04893,-1.20287 -2.02294,-2.18021 -2.92202,-3.08237c-0.89908,-0.82698 -1.79816,-1.5036 -2.5474,-2.02986c-0.74924,-0.52626 -1.34863,-0.82698 -1.79817,-0.97734z" id="Path" fill="#519b3d"/><path d="M289.18038,128.69832c-0.14985,0.7518 -0.22477,1.1277 -0.22477,1.1277c0,0 0.07492,-0.3759 0.29969,-0.97734c0.14985,-0.30072 0.29969,-0.67662 0.44954,-1.05252c0.22478,-0.3759 0.44955,-0.90216 0.74924,-1.35324c0.29969,-0.45108 0.74923,-0.97734 1.12385,-1.42842c0.44954,-0.45108 0.89908,-0.97734 1.49847,-1.42842c0.52447,-0.45108 1.19878,-0.82698 1.79817,-1.20288c0.29969,-0.22554 0.67431,-0.30072 1.04893,-0.45108c0.37462,-0.15036 0.67431,-0.30072 1.04893,-0.45108l1.12385,-0.30072c0.37461,-0.07518 0.74923,-0.22554 1.12385,-0.22554c0.37461,-0.07518 0.74923,-0.07518 1.12385,-0.15036l0.52446,-0.07518c0.14984,0 0.37461,0 0.52446,0c0.67432,0 1.42355,0 2.02294,0c0.67432,0.07518 1.27371,0.15036 1.79817,0.22554c0.2997,0.07518 0.52447,0.07518 0.82416,0.07518c0.22477,0.07518 0.52446,0.15036 0.67431,0.15036c0.44954,0.07518 0.82416,0.22554 1.12385,0.30072c0.59939,0.15036 0.97401,0.22554 0.97401,0.22554c0,0 -0.37462,-0.07518 -1.04893,-0.15036c-0.2997,-0.07518 -0.74924,-0.15036 -1.19878,-0.22554c-0.22478,-0.07518 -0.44955,-0.07518 -0.74924,-0.15036c-0.22477,0 -0.52447,-0.07518 -0.82416,-0.07518c-0.52447,-0.07518 -1.12386,-0.07518 -1.79817,-0.15036c-0.67432,0 -1.2737,0.07518 -2.02294,0.07518c-0.14984,0 -0.37461,0 -0.52446,0l-0.52446,0.07518c-0.37462,0.07518 -0.67431,0.07518 -1.04893,0.15036c-0.37462,0 -0.74924,0.15036 -1.04893,0.22554l-1.04893,0.30072c-0.37462,0.07518 -0.67431,0.30072 -1.04893,0.3759c-0.2997,0.15036 -0.67432,0.22554 -0.97401,0.45108c-0.59939,0.3759 -1.27371,0.67662 -1.79817,1.1277c-0.59939,0.3759 -1.04893,0.90216 -1.49847,1.27806c-0.44954,0.45108 -0.82416,0.90216 -1.12385,1.35324c-0.37462,0.45108 -0.59939,0.90216 -0.82416,1.27806c-0.22477,0.3759 -0.44954,0.7518 -0.52446,1.05252z" id="Path" fill="#7d9950"/><path d="M263.70636,155.16163c0,0 0.14985,-0.3759 0.44954,-1.05252c0.14985,-0.30072 0.37462,-0.7518 0.67431,-1.20288c0.14985,-0.22554 0.29969,-0.45108 0.44954,-0.67662c0.22477,-0.22554 0.37462,-0.45108 0.59939,-0.7518c0.22477,-0.22554 0.44954,-0.45108 0.67431,-0.7518c0.22477,-0.22554 0.52447,-0.52626 0.82416,-0.7518c0.29969,-0.22554 0.59939,-0.45108 0.89908,-0.67662c0.29969,-0.22554 0.67431,-0.45108 1.04893,-0.60144c0.14984,-0.07518 0.37461,-0.22554 0.52446,-0.30072c0.22477,-0.07518 0.37462,-0.15036 0.59939,-0.22554c0.37462,-0.15036 0.74924,-0.30072 1.19878,-0.52626c0.37462,-0.15036 0.82416,-0.22554 1.2737,-0.3759l0.59939,-0.15036c0.22477,-0.07518 0.44954,-0.07518 0.67431,-0.07518c0.82416,-0.07518 1.72324,-0.30072 2.5474,-0.22554c0.82416,0 1.72324,-0.07518 2.47248,0.07518c0.82416,0.07518 1.57339,0.15036 2.32263,0.30072c0.74924,0.15036 1.42355,0.30072 2.02294,0.45108c0.59939,0.15036 1.19878,0.3759 1.64832,0.52626c0.52446,0.15036 0.89908,0.30072 1.2737,0.45108c0.67431,0.22554 1.12385,0.3759 1.12385,0.3759c0,0 -0.37461,-0.15036 -1.12385,-0.30072c-0.37462,-0.07518 -0.82416,-0.22554 -1.2737,-0.3759c-0.52446,-0.15036 -1.04893,-0.30072 -1.72324,-0.45108c-0.59939,-0.15036 -1.2737,-0.22554 -2.02294,-0.3759c-0.37461,-0.07518 -0.74923,-0.07518 -1.12385,-0.15036c-0.37462,0 -0.74924,-0.07518 -1.19878,-0.15036c-0.82416,-0.15036 -1.5734,-0.07518 -2.47248,-0.07518c-0.82416,0 -1.64832,0.15036 -2.47248,0.22554c-0.22477,0 -0.44954,0.07518 -0.59939,0.07518l-0.59939,0.15036c-0.37462,0.07518 -0.82416,0.22554 -1.19878,0.30072c-0.37461,0.15036 -0.74923,0.30072 -1.12385,0.45108c-0.22477,0.07518 -0.37461,0.15036 -0.52446,0.22554c-0.14984,0.07518 -0.37461,0.22554 -0.52446,0.30072c-0.37462,0.22554 -0.67432,0.3759 -0.97401,0.60144c-0.29969,0.22554 -0.59939,0.45108 -0.89908,0.67662c-0.2997,0.22554 -0.52447,0.45108 -0.82416,0.67662c-0.22477,0.22554 -0.52446,0.45108 -0.67431,0.67662c-0.22477,0.22554 -0.44954,0.45108 -0.59939,0.67662c-0.14984,0.22554 -0.37461,0.45108 -0.52446,0.67662c-0.2997,0.3759 -0.52447,0.82698 -0.74924,1.1277c-0.52446,0.7518 -0.67431,1.20288 -0.67431,1.20288z" id="Path" fill="#7d9950"/><path d="M240.48004,97.12278c-0.82416,-0.15036 -1.34862,-0.22554 -1.34862,-0.22554c0,0 0.52447,0.07518 1.42355,0.22554c0.89908,0.15036 2.17278,0.3759 3.67125,0.82698c0.74923,0.22554 1.57339,0.45108 2.39755,0.82698c0.82416,0.3759 1.64832,0.90216 2.47248,1.42842c1.64832,1.1277 3.22172,2.48093 4.79511,3.90935c1.49847,1.5036 2.92202,3.00719 4.19572,4.51079c1.34863,1.42842 2.47248,2.85683 3.52141,4.05971c2.02294,2.40575 3.29664,4.05971 3.29664,4.05971c0,0 -1.42355,-1.57877 -3.52141,-3.90935c-1.04893,-1.1277 -2.32263,-2.55611 -3.59633,-3.98453c-1.34862,-1.42842 -2.77217,-3.00719 -4.27064,-4.43561c-1.49847,-1.50359 -3.07187,-2.85683 -4.64526,-3.90935c-0.82416,-0.52626 -1.57339,-1.05252 -2.39755,-1.42842c-0.82416,-0.3759 -1.57339,-0.67662 -2.32263,-0.90216c-1.49847,-0.45108 -2.77217,-0.82698 -3.67125,-1.05252z" id="Path" fill="#519b3d"/><path d="M314.65437,126.81883c0,0 -2.32263,-2.02986 -5.84404,-5.11223c-1.72324,-1.5036 -3.8211,-3.30791 -5.99388,-5.26259c-2.17279,-1.8795 -4.49542,-3.98453 -6.89297,-5.93921c-2.32263,-2.02986 -4.72018,-4.05971 -6.96789,-5.86403c-2.24771,-1.8795 -4.34556,-3.60863 -6.14373,-5.03705c-0.89909,-0.67662 -1.72324,-1.35324 -2.47248,-1.95468c-0.74923,-0.52626 -1.42355,-1.05252 -1.94801,-1.42842c-1.12386,-0.7518 -1.79817,-1.20288 -1.79817,-1.20288c0,0 0.67432,0.3759 1.79817,1.1277c0.59939,0.3759 1.2737,0.82698 2.02294,1.35324c0.74923,0.52626 1.64832,1.20288 2.5474,1.8795c1.87309,1.42842 4.04587,3.08237 6.29358,4.88669c2.24771,1.80432 4.64526,3.83417 6.96789,5.86403c2.32263,2.02986 4.64526,4.05971 6.81804,6.01439c2.17278,1.95468 4.19572,3.75899 5.91896,5.33777c1.72325,1.57877 3.14679,2.93201 4.1208,3.83417c0.974,0.97734 1.57339,1.5036 1.57339,1.5036z" id="Path" fill="#519b3d"/></g></g></g></svg>