<svg version="1.1" xmlns="http://www.w3.org/2000/svg" xmlns:xlink="http://www.w3.org/1999/xlink" width="76.34109" height="141.00108" viewBox="0,0,76.34109,141.00108"><g transform="translate(-236.32886,-113.99912)"><g data-paper-data="{&quot;isPaintingLayer&quot;:true}" fill-rule="nonzero" stroke="none" stroke-width="1" stroke-linecap="butt" stroke-linejoin="miter" stroke-miterlimit="10" stroke-dasharray="" stroke-dashoffset="0" style="mix-blend-mode: normal"><path d="M297.67836,171.38047c-0.103,-0.384 0.35,-0.689 0.189,-1.032c-0.233,-0.5 -0.984,-0.873 -1.323,-1.292c-1.325,-1.635 -2.109,-2.449 -4.411,-3.163c-2.111,3.712 -2.646,6.197 -3.15,10.458c4.19,0.322 6.142,-2.712 10.332,-3.228c-0.037,-0.481 -1.521,-1.317 -1.637,-1.743zM288.48136,186.42647c-2.269,1.001 -1.765,3.678 -1.89,6.197c-0.346,6.164 -1.261,9.585 -1.261,15.75c0,13.649 0.757,21.333 0.757,34.983c-2.616,-0.324 -4.285,-0.324 -6.68,0.773c-1.701,0.773 -3.402,0.517 -5.166,0.773c0,-8.293 0,-40.243 -1.135,-43.504c0,3.42 -13.196,34.598 -16.38,39.502c-1.356,2.097 -4.223,0.934 -6.302,-0.387c-2.175,-1.371 -3.741,-1.866 -5.36,-3.93c-0.088,0.111 -0.111,0.1 0,0c0.927,-1.167 8.947,-16.2 9.896,-17.76c1.417,-2.323 2.013,-3.809 2.771,-6.455c1.574,-5.424 4.693,-7.712 5.166,-13.299c0.443,-5.162 1.956,-7.872 2.144,-13.038c0.127,-3.161 -0.286,-11.552 -1.64,-12.779l-2.896,15.492c-3.243,0 -5.259,0.291 -8.316,-0.903c1.01,-6.327 3.274,-9.392 4.285,-15.621c0.911,-5.616 1.7,-8.844 3.653,-14.201c1.166,-3.227 3.495,-4.067 6.174,-6.197c1.352,-1.065 2.553,-0.871 4.032,-1.678c1.167,-0.646 0.537,-2.872 1.891,-2.969c6.081,-0.516 9.294,-2.582 15.374,-2.582c0,4.971 0.567,4.357 4.663,6.971c5.482,3.485 11.499,9.295 15.374,14.588c1.985,2.711 4.757,4.131 4.157,7.487c-0.472,2.711 -2.426,2.743 -4.662,4.26c-2.615,1.774 -4.474,2.26 -7.183,3.874c-2.08,1.226 -2.868,2.84 -5.167,3.615c-2.614,-0.421 -3.905,-0.035 -6.299,1.038z" data-paper-data="{&quot;index&quot;:null}" fill="#006b9e"/><path d="M280.27136,123.14647c1.73,0.583 0.065,0.519 1.436,1.728c0.844,0.735 0.506,1.772 1.181,2.68c0.506,0.691 1.413,0.541 1.772,1.296c0.569,1.167 0.504,2.204 -0.085,3.372c-0.485,0.972 -0.949,2.117 -0.169,2.852c0.927,0.886 2.339,0.341 3.628,0.259c2.7,-0.173 1.961,4.127 0.337,4.494c-0.949,0.217 -1.772,-0.346 -2.447,0.346c-0.929,0.952 -0.193,3.102 -0.721,4.355c-0.802,1.88 -2.618,1.83 -4.6,1.614c-2.236,-0.238 -4.758,0.688 -6.994,0.774c-0.803,0.022 -0.722,-1.125 -0.933,-1.903c-0.38,-1.426 0.169,-2.312 0.169,-3.803c2.278,-0.194 4.535,-0.108 5.399,-2.247c-3.227,-1.513 -6.96,-0.151 -8.437,-3.457c0.61,-0.303 0.844,-0.627 1.266,-1.125c-1.266,-1.469 -2.995,-2.399 -2.532,-4.321c0.423,-1.772 2.596,-1.038 4.22,-1.729c3.249,-1.383 3.989,-5.185 7.51,-5.185z" data-paper-data="{&quot;index&quot;:null}" fill="#ba8743"/><path d="M275.24536,117.82847c1.096,-3.097 4.472,-1.815 5.442,-1.686c0.252,-2.938 6.074,-2.982 6.906,0.656c5.497,-1.952 7.733,3.623 6.762,6.086c2.784,0.174 2.715,2.824 2.302,3.806c3.365,2.741 3.039,5.744 -0.128,8.547c2.13,3.467 -0.903,5.589 -3.261,5.51c-0.01,2.722 -3.174,4.568 -6.691,1.908c-0.301,0.867 -0.133,1.848 -0.508,2.69c-1.159,0.382 -12.882,2.374 -13.535,1.829c-0.901,-1.803 -0.917,-4.729 -0.874,-6.699c1.942,0.374 3.838,0.692 5.685,-1.593c-2.528,0.182 -6.621,-0.47 -8.342,-2.604c-0.718,-0.894 0.784,-1.602 1.102,-2.299c-1.69,-0.851 -3.336,-2.45 -2.529,-4.564c0.806,-2.115 6.828,-0.177 8.926,-5.414c0.382,0.6 1.703,0.415 1.524,1.345c-2.323,2.554 -4.242,3.18 -7.545,3.806c-0.625,0.119 -1.258,0.923 -1.312,1.562c-0.114,1.376 2.627,2.766 3.606,3.395c-0.772,1.05 -1.49,1.526 -2.251,2.088c1.783,1.111 5.233,2.074 8.143,2.074c-1.304,3.412 -3.331,3.517 -5.382,3.431c-0.224,1.138 0.295,3.978 0.261,5.149c3.639,0.079 7.119,-0.904 10.9,-1.614c0.319,-0.848 0.147,-2.383 0.611,-3.232c-0.315,-0.796 -0.582,-1.943 -0.104,-3.129c1.518,0.346 3.492,0.898 4.43,-0.908c0.234,-0.452 0.153,-1.208 -0.26,-1.56c-1.42,-1.207 -2.989,-0.255 -4.15,0.304c-0.463,-0.414 0.302,-0.76 0.508,-1.041c-1.119,-0.382 -4.615,-1.498 -1.44,-5.423c-0.522,-0.36 -0.41,-1.089 -0.211,-1.648c-1.788,-0.095 -2.887,-1.663 -3.265,-3.467c-5.188,0.043 -5.988,-5.399 -5.32,-7.305z" data-paper-data="{&quot;index&quot;:null}" fill="#272525"/><path d="M281.36936,118.91147c-0.043,-4.149 5.442,-3.025 4.919,-0.115c1.871,-0.746 3.501,-0.13 4.954,1.128c1.709,1.48 1.306,2.962 1.011,4.216c1.897,-0.346 2.7,1.988 1.771,2.939c1.351,0.561 2.796,0.913 3.08,3.371c0.208,1.805 -1.586,2.653 -2.995,3.889c0.674,0.865 2.572,3.89 -1.478,4.538c-0.295,1.21 0.06,2.359 -1.097,3.025c-2.274,1.309 -5.316,-0.172 -5.671,-1.979c0.693,0.466 1.643,0.584 2.54,0.434c4.371,-0.733 2.437,-8.141 -2.54,-5.119c-1.426,-1.206 -1.136,-3.688 0.719,-4.252c-0.911,-0.407 -1.617,-1.599 -0.508,-3.558c-1.585,0.384 -3.574,-0.899 -3.989,-3.16c-0.406,-2.209 -1.729,-0.124 -3.248,-0.821c-2.827,-1.296 -2.911,-7.087 2.532,-4.536z" data-paper-data="{&quot;index&quot;:null}" fill="#553723"/><path d="M261.30636,151.72147c0.991,-3.986 8.506,-7.47 10.446,-2.434c0.241,0.626 0.409,1.429 0,2.015c-1.545,0.552 -3.023,0.963 -4.547,1.594c-1.666,0.69 -3.445,2.367 -5.203,2.518c-0.867,-0.743 -0.958,-2.643 -0.696,-3.693z" data-paper-data="{&quot;index&quot;:null}" fill="#272525"/><path d="M269.95136,150.00047c0,0 -6.323,3.879 -7.428,4.274c-0.756,-6.002 8.272,-7.181 7.428,-4.274z" data-paper-data="{&quot;index&quot;:null}" fill="#ebbc0a"/><path d="M291.27336,146.50647c6.938,-1.082 10.359,8.546 6.167,9.529c-2.092,-0.712 -9.1,-5.616 -9.827,-7.646c0.662,-1.145 2.437,-1.692 3.66,-1.883z" data-paper-data="{&quot;index&quot;:null}" fill="#272525"/><path d="M294.71836,148.59947c1.95,1.044 3.288,3.172 2.645,5.87c-0.627,0.124 -7.86,-4.688 -8.757,-5.423c1.071,-1.743 4.235,-1.453 6.112,-0.447z" data-paper-data="{&quot;index&quot;:null}" fill="#ebbc0a"/><path d="M288.35436,143.69147c1.325,-0.387 0.063,3.099 -0.377,4.519c7.475,3.133 15.47,10.367 20.137,16.919c1.105,1.551 5.846,7.36 4.219,9.233c-2.337,2.692 -13.248,8.659 -17.572,12.593c-0.738,0.033 -1.372,-0.374 -1.884,-0.883c-1.829,1.401 -1.264,2.614 -3.441,1.597l-0.888,0.627c1.333,0.687 3.759,0.379 2.835,2.392c-0.809,1.754 -3.969,1.869 -4.896,1.307c-0.926,-0.569 -1.319,-0.85 -1.475,-1.807c-0.335,-2.064 -2.124,-0.377 -3.049,-2.084c-0.494,-0.912 -0.068,-2.103 0.441,-3.002c-2.153,-1.771 0.112,-4.836 2.117,-5.197c-0.123,-0.191 -0.29,-0.645 -0.29,-0.645l2.103,-1.084c0,0 -0.208,-1 -0.05,-1.461c3.796,-1.38 7.661,-2.562 11.428,-4.029l-1.188,-0.63c-0.085,-0.42 0.155,-0.763 0.369,-1.091l-1.064,-0.629c0.498,-1.504 -1.641,-2.062 -2.459,-2.812c-2.681,4.313 -2.869,6.185 -3.184,8.164c-0.88,0.088 -1.552,0.882 -2.458,0.797c-0.201,-1.345 3.615,-10.252 4.658,-11.353c1.124,0.559 4.824,2.241 5.325,3.316c0.117,0.249 -0.186,0.792 -0.204,1.091l1.761,0.209c-0.01,0.567 -0.411,0.982 -0.696,1.427c0.669,0.641 2.611,1.717 2.375,1.889c-1.402,1.023 -12.148,4.71 -11.959,5.292c0.429,1.322 4.239,5.425 5.365,6.291c2.372,-2.098 13.962,-8.462 16.917,-10.367c-2.266,-9.172 -17.281,-21.541 -25.275,-24.971c0.172,-1.246 0.604,-2.464 0.573,-3.735c-2.641,0.805 -5.289,1.642 -8.029,2.015c0,0 0.162,3.972 0.491,5.833c-0.35,0.045 -1.97,1.998 -2.376,2.645c-4.427,7.056 -0.396,24.514 -0.081,24.846c0.919,-0.032 5.181,0.163 6.303,0.284c-0.072,0.457 -0.696,1.164 -1.071,1.483c-4.882,0.181 -11.032,-0.215 -15.884,0.035c0.408,8.593 -2.175,18.615 -5.202,26.607c-1.638,4.32 -13.054,26.078 -14.544,27.701c1.384,1.164 6.515,3.461 8.357,4.111c2.789,-3.057 4.951,-6.693 6.882,-10.365c3.297,-6.265 9.017,-24.64 9.751,-26.986c0.3,-0.956 0.785,-3.758 1.557,-4.238c1.423,-0.887 1.823,3.707 1.883,4.532c0.368,4.968 0.189,39.491 0.493,40.206c3.509,-2.527 5.389,-3.455 9.709,-2.52c-0.869,-16.215 -1.364,-32.477 0.614,-48.642c0.498,-0.3 1.117,0.057 1.557,0.293c-1.891,16.936 -0.809,33.637 0.41,50.571c-0.677,0.621 -1.33,0.078 -1.885,0.295c-0.344,0.134 -3.938,9.672 -10.405,10.658c-0.75,0.115 -1.65,0.16 -1.966,-0.713c-0.554,-1.517 2.391,-8.208 2.539,-8.854c-0.786,0.514 -1.645,-0.048 -2.376,-0.377c0.489,-10.457 0.402,-38.309 -0.082,-41.51c-1.517,3.576 -2.26,7.505 -3.646,11.164c-2.921,7.717 -9.101,22.457 -13.479,29.127c-0.211,0 -1.969,-0.299 -2.134,-0.168c-1.196,0.971 -0.728,0.739 -2.578,1.261c-2.874,0.814 -11.391,2.025 -14.053,0.922c-0.5,-0.206 -1.084,-0.675 -0.983,-1.301c0.369,-2.279 6.217,-5.44 8.071,-6.55c-0.459,-0.317 -1.189,-0.473 -1.105,-1.215c0.805,-0.87 1.74,-1.939 2.377,-2.938c10.862,-17.059 20.099,-38.003 18.106,-58.797c-0.47,0.756 -2.03,11.151 -3.471,14.853c-0.156,0.393 -1.135,0.26 -1.135,0.26l0.156,1.936l-0.661,0.064c0,0 0.061,0.518 0.188,1.291c4.097,2.713 1.326,6.276 -0.631,5.293c-0.564,1.173 -0.143,3.856 -2.143,3.484c-0.57,-0.105 -1.129,-0.343 -1.564,-0.697c-1.314,1.271 -3.312,0.738 -3.031,-1.217c-0.435,-0.576 -2.293,0.742 -2.785,-1.092c-0.622,-2.307 1.628,-5.913 3.066,-7.548c-0.196,-0.115 -0.668,-0.257 -0.668,-0.257l0.763,-1.973c0,0 -0.851,-0.193 -0.957,-0.449c-0.106,-0.254 3.685,-14.008 5.292,-21c1.778,-7.714 5.442,-16.215 13.561,-18.34c1.662,-0.434 0.503,-2.145 1.271,-3.231c4.752,0.693 16.442,-2.422 17.314,-2.675z" data-paper-data="{&quot;index&quot;:null}" fill="#272525"/><path d="M277.13936,147.78847c-0.024,1.331 0.467,2.907 0.29,4.244c-6.569,6.404 -4.767,20.939 -2.181,28.836c-0.252,0.032 -0.646,0.016 -1.261,-0.064c-2.457,-9.748 -4.578,-21.526 2.458,-28.479c-0.006,-1.452 -0.41,-2.922 -0.379,-4.376c0.357,-0.194 0.631,-0.098 1.073,-0.161z" data-paper-data="{&quot;index&quot;:null}" fill="#00a1e4"/><path d="M274.68236,148.00247c0.175,1.047 0.434,2.886 0.312,3.948c-7.497,5.227 -4.039,22.903 -2.073,28.87c-2.401,-0.082 -4.598,0.011 -6.883,-0.209c-0.589,-4.844 -1.484,-9.97 -3.439,-14.479c-0.128,-0.292 -0.408,-0.705 -0.777,-0.629l-0.411,0.503c0.243,0.914 1.861,6.056 1.764,6.547c-0.666,3.318 -2.821,12.019 -4.508,15.11c-0.714,-0.081 -5.793,-0.024 -5.724,-0.212c4.41,-11.748 4.539,-30.725 15.121,-35.437c1.418,-0.63 2.892,-1.061 4.343,-1.594c0.223,-1.007 0.077,-1.324 0.229,-2.334z" data-paper-data="{&quot;index&quot;:null}" fill="#006b9e"/><path d="M287.46636,179.89747c0.941,1.849 2.335,3.568 3.932,5.038l-1.249,1.322c-1.761,-1.426 -3.212,-3.635 -4.032,-5.776c0.327,-0.127 0.981,-0.584 1.349,-0.584z" data-paper-data="{&quot;index&quot;:null}" fill="#ffffff"/><path d="M284.80336,181.11647c0.967,2.151 1.989,4.339 3.728,5.959c-0.388,0.475 -1.05,0.679 -1.638,0.589c-0.114,3.244 3.554,1.55 3.477,2.306c-0.158,1.551 -2.538,1.45 -3.371,0.971c-1.008,-0.582 -1.564,-1.311 -1.354,-2.131c0.522,-2.058 -1.711,-0.662 -2.27,-1.711c-0.451,-0.854 0.442,-1.938 0.937,-2.667c-0.557,-0.238 -0.99,-0.449 -1.353,-0.882c-0.842,-1.004 1.083,-2.432 1.844,-2.434z" data-paper-data="{&quot;index&quot;:null}" fill="#ba8743"/><path d="M252.69336,191.00047l0.25,-1.613c1.732,0.225 3.403,0.323 4.916,0.323c0.031,0.906 0.031,1.646 0.031,1.646c0,0 -4.567,-0.031 -5.197,-0.356z" data-paper-data="{&quot;index&quot;:null}" fill="#ffffff"/><path d="M252.77736,192.40147c1.179,-0.043 2.5,0.476 4.908,0.299l0.082,1.513c2.096,0.953 3.62,2.938 0.285,3.315c-0.472,-0.217 0.225,-0.754 -0.285,-1.008c-1.597,0.25 -0.58,2.547 -1.475,3.146c-0.538,0.358 -1.583,-0.919 -1.583,-0.919c0,0 -0.443,1.358 -1.396,1.264c-0.955,-0.089 -0.545,-2.568 -0.545,-2.568c0,0 -1.347,1.703 -2.281,1.242c-0.936,-0.461 1.857,-6.062 2.29,-6.284z" data-paper-data="{&quot;index&quot;:null}" fill="#ba8743"/><path d="M247.15536,239.32747c1.844,1.089 3.726,2.223 5.49,3.229c-4.631,1.343 -13.793,3.294 -14.444,2.021c-0.652,-1.277 5.594,-4.411 8.954,-5.25z" data-paper-data="{&quot;index&quot;:null}" fill="#765b31"/><path d="M283.24636,244.15147c-1.334,3.59 -6.649,9.72 -7.934,9.203c-1.286,-0.512 0,-5.035 1.544,-8.361c1.551,-0.473 4.705,-1.564 6.39,-0.842z" data-paper-data="{&quot;index&quot;:null}" fill="#765b31"/><path d="M279.98836,131.87747c-1.593,-1.926 -3.882,-1.544 -3.513,-3.091c1.414,-0.872 4.509,1.918 3.513,3.091z" data-paper-data="{&quot;index&quot;:null}" fill="#272525"/><path d="M297.47336,153.87647l-2.055,5.337l-1.004,-0.538l2.5,-5.127z" data-paper-data="{&quot;index&quot;:null}" fill="#ebbc0a"/><path d="M296.09736,152.75247l-2.055,5.336l-1.003,-0.538l2.51,-5.119z" data-paper-data="{&quot;index&quot;:null}" fill="#ebbc0a"/><path d="M294.77236,151.81847l-2.407,4.938l-0.954,-0.626l2.794,-4.717z" data-paper-data="{&quot;index&quot;:null}" fill="#ebbc0a"/><path d="M293.16336,150.83247l-2.421,5.189l-0.955,-0.627l2.84,-4.945z" data-paper-data="{&quot;index&quot;:null}" fill="#ebbc0a"/><path d="M291.45436,149.82447l-2.326,5.219l-0.975,-0.592l2.669,-5.044z" data-paper-data="{&quot;index&quot;:null}" fill="#ebbc0a"/><path d="M289.80136,148.90747l-2.404,5.329l-0.976,-0.592l2.668,-5.045z" data-paper-data="{&quot;index&quot;:null}" fill="#ebbc0a"/><path d="M269.97836,149.48747l2.048,3.294l-1.714,0.281l-1.064,-3.467z" data-paper-data="{&quot;index&quot;:null}" fill="#ebbc0a"/><path d="M268.16136,150.02647l1.631,3.362l-1.297,0.213l-1.062,-3.467z" data-paper-data="{&quot;index&quot;:null}" fill="#ebbc0a"/><path d="M266.06936,150.97947l2.225,2.982l-1.232,0.462l-1.69,-3.196z" data-paper-data="{&quot;index&quot;:null}" fill="#ebbc0a"/><path d="M264.30036,152.26047l2.228,2.983l-1.234,0.462l-1.689,-3.196z" data-paper-data="{&quot;index&quot;:null}" fill="#ebbc0a"/><path d="M263.13436,153.48547l1.875,3.351l-1.231,0.463l-1.222,-3.372z" data-paper-data="{&quot;index&quot;:null}" fill="#ebbc0a"/></g></g></svg>