<svg version="1.1" xmlns="http://www.w3.org/2000/svg" xmlns:xlink="http://www.w3.org/1999/xlink" width="114.33923" height="113.4" viewBox="0,0,114.33923,113.4"><g transform="translate(-183.06077,-123.1)"><g data-paper-data="{&quot;isPaintingLayer&quot;:true}" fill-rule="nonzero" stroke="none" stroke-width="1" stroke-linecap="butt" stroke-linejoin="miter" stroke-miterlimit="10" stroke-dasharray="" stroke-dashoffset="0" style="mix-blend-mode: normal"><path d="M250.86077,188.9c-6.1,10.6 -30.5,26.2 -30.5,26.2c-3.2,-2.7 -11.9,-18.7 -11.9,-18.7c-0.1,0.1 -6.7,-5.4 -6.7,-5.4c0,0 18.2,-27.4 34.1,-28.1c0,0 2.7,6.9 -0.3,10.3z" data-paper-data="{&quot;index&quot;:null}" id="Shape" fill="#4a3369"/><g data-paper-data="{&quot;index&quot;:null}" id="Group"><g id="Shape" fill="#a3b339"><path d="M267.46077,199.1c4.1,0.3 4.8,15.8 1.7,22.8c-3.1,7 -11.1,0.2 -10.1,-6.3c1,-6.5 3.3,-16.9 8.4,-16.5z"/><path d="M270.06077,217.1c0.7,1.9 -0.9,13.2 -3.5,14.1c-2.6,0.9 0.2,-5.2 -1.4,-5.5c-1.6,-0.3 -5.2,6.1 -7.2,5.7c-2,-0.4 3.7,-5.8 3.7,-5.8c0,0 -7.8,5.8 -9.1,4.1c-1.3,-1.7 6.7,-5.4 6.7,-5.4c0,0 -7.3,2.3 -8.6,0.6c-1.3,-1.7 3.7,-2.5 5.9,-2.3c2.2,0.2 2.8,-3.9 2.6,-7"/></g><path d="M249.56077,202.9c8.7,-7.3 22.3,-9.7 19.9,2.7c-2.4,12.4 -24.6,17.5 -28.1,15.6c-6.1,-3.2 -0.5,-10.9 8.2,-18.3z" id="Shape" fill="#a3b339"/><path d="M258.96077,191.7c2.8,6.7 -7.1,31.3 -17.6,29.6c-10.5,-1.7 -8.8,-17.8 -3.6,-28.4c8.2,-16.6 18.4,-7.9 21.2,-1.2z" id="Shape" fill="#a3b339"/><path d="M236.96077,194.6c0,0 -0.1,0.2 -0.2,0.6c-0.1,0.4 -0.3,1 -0.5,1.7c-0.4,1.5 -1,3.6 -1.4,6.2c-0.4,2.6 -0.8,5.6 -0.6,8.8c0.2,1.6 0.5,3.2 1.3,4.6c0.8,1.4 2,2.4 3.5,3l1.2,0.4l1.2,0.3l1.2,0.3l1.2,0.2c1.7,0.2 3.3,0.1 4.9,-0.1c3.2,-0.4 6,-1.6 8.3,-2.9c2.3,-1.3 4.1,-2.6 5.2,-3.6c1.2,-1 1.8,-1.6 1.8,-1.6c0,0 -0.5,0.7 -1.6,1.8c-0.5,0.6 -1.2,1.2 -2.1,1.9c-0.8,0.7 -1.8,1.5 -2.9,2.2c-2.2,1.5 -5.2,2.8 -8.5,3.5c-1.7,0.3 -3.5,0.4 -5.3,0.3l-1.2,-0.2l-1.3,-0.3l-1.3,-0.4l-1.3,-0.4c-1.9,-0.6 -3.5,-2 -4.3,-3.7c-0.9,-1.7 -1.3,-3.5 -1.4,-5.2c-0.1,-1.7 0,-3.4 0.2,-4.9c0.2,-1.5 0.5,-3 0.8,-4.2c0.7,-2.6 1.5,-4.7 2.1,-6.1c0.3,-0.7 0.6,-1.3 0.8,-1.6c0.1,-0.4 0.2,-0.6 0.2,-0.6z" id="Shape" fill="#687a27"/><path d="M262.76077,196.8c0,0 0.1,0 0.3,-0.1c0.2,0 0.5,-0.1 0.9,-0.2c0.4,0 0.9,0 1.5,0c0.6,0.1 1.2,0.2 1.9,0.6c0.3,0.1 0.6,0.4 1,0.6c0.3,0.3 0.6,0.5 0.9,0.8c0.3,0.3 0.6,0.6 0.8,1c0.3,0.4 0.5,0.8 0.6,1.2c0.2,0.4 0.3,0.8 0.5,1.3c0.2,0.4 0.3,0.9 0.4,1.3c0.2,0.9 0.3,1.8 0.4,2.7c0.1,0.9 0.1,1.8 0.1,2.7c0,0.9 -0.1,1.8 -0.1,2.6c-0.1,1.7 -0.4,3.3 -0.6,4.6c-0.3,1.3 -0.6,2.4 -0.9,3.2c-0.1,0.4 -0.3,0.7 -0.4,0.9c-0.1,0.1 -0.1,0.2 -0.2,0.2c-0.1,0 0,-0.1 -0.1,-0.1c0,0 0,0 0.1,0c0,0 0.1,-0.1 0.1,-0.2c0.1,-0.2 0.1,-0.5 0.1,-0.9c0.1,-0.8 0.2,-1.9 0.3,-3.2c0.1,-1.3 0.1,-2.9 0.1,-4.6c0,-0.8 0,-1.7 0,-2.6c0,-0.9 -0.1,-1.8 -0.2,-2.6c-0.1,-0.9 -0.2,-1.7 -0.3,-2.6c-0.2,-0.8 -0.3,-1.6 -0.6,-2.4c-0.1,-0.4 -0.3,-0.7 -0.5,-1c-0.2,-0.3 -0.4,-0.6 -0.6,-0.9c-0.2,-0.3 -0.5,-0.5 -0.7,-0.8c-0.3,-0.2 -0.5,-0.4 -0.8,-0.6c-0.5,-0.4 -1.1,-0.6 -1.6,-0.8c-0.5,-0.1 -1,-0.3 -1.3,-0.3c-0.7,0.2 -1.1,0.2 -1.1,0.2z" id="Shape" fill="#687a27"/><path d="M265.06077,225.7c0,0 -0.1,0.1 -0.3,0.3c-0.2,0.2 -0.4,0.5 -0.6,0.8c-0.2,0.4 -0.5,0.8 -0.8,1.2c-0.3,0.4 -0.7,0.9 -1.1,1.4c-0.8,0.9 -1.8,1.7 -2.7,2.1c-0.5,0.2 -0.9,0.2 -1.2,0.2c-0.3,-0.1 -0.4,-0.2 -0.4,-0.2c0,0 0,0 0.1,0c0.1,0 0.2,0 0.3,-0.1c0.2,-0.1 0.5,-0.3 0.7,-0.6c0.6,-0.6 1.2,-1.5 2,-2.4c0.4,-0.4 0.8,-0.8 1.2,-1.2c0.4,-0.4 0.9,-0.7 1.3,-0.9c0.4,-0.2 0.8,-0.4 1.1,-0.4c0.3,-0.3 0.4,-0.2 0.4,-0.2z" id="Shape" fill="#687a27"/><path d="M261.66077,225.6c0,0 -0.3,0.6 -1,1.4c-0.3,0.4 -0.7,0.8 -1.2,1.2c-0.5,0.4 -1,0.8 -1.6,1.1c-0.6,0.3 -1.2,0.6 -1.8,0.8c-0.3,0.1 -0.6,0.2 -0.9,0.2c-0.3,0 -0.6,0.1 -0.9,0.1c-0.3,0 -0.5,0 -0.7,-0.1c-0.2,-0.1 -0.4,-0.1 -0.5,-0.2c-0.3,-0.2 -0.4,-0.3 -0.4,-0.3c0,0 0.2,0 0.5,0c0.1,0 0.3,-0.1 0.5,-0.1c0.2,0 0.4,-0.1 0.6,-0.2c0.2,-0.1 0.4,-0.2 0.7,-0.3c0.2,-0.1 0.5,-0.3 0.7,-0.4c0.5,-0.3 1,-0.6 1.6,-0.9c1.1,-0.6 2.2,-1.2 3.1,-1.6c0.6,-0.5 1.3,-0.7 1.3,-0.7z" id="Shape" fill="#687a27"/><path d="M250.66077,224.9c0,0 0.1,0.1 0.4,0.1c0.2,0 0.6,0 0.9,-0.1c0.4,-0.1 0.8,-0.1 1.3,-0.2c0.5,-0.1 1,-0.2 1.5,-0.3c1.1,-0.2 2.1,-0.2 3,-0.2c0.8,0 1.4,0.1 1.4,0.1c0,0 -0.5,0.4 -1.2,0.8c-0.8,0.4 -1.8,0.8 -3,0.9c-0.6,0.1 -1.1,0.1 -1.7,0.1c-0.5,0 -1.1,-0.1 -1.5,-0.3c-0.4,-0.1 -0.8,-0.4 -1,-0.6c-0.1,-0.1 -0.1,-0.3 -0.1,-0.3z" id="Shape" fill="#687a27"/><path d="M258.96077,216.8c0,0 0.3,0.4 0.5,1c0.2,0.6 0.3,1.4 0.1,2.2c-0.1,0.4 -0.2,0.8 -0.4,1.2c-0.2,0.4 -0.5,0.7 -0.7,0.9c-0.1,0.1 -0.3,0.2 -0.4,0.2c-0.1,0.1 -0.2,0.1 -0.4,0.1c-0.2,0 -0.3,0 -0.3,0c0,0 0,-0.1 0.1,-0.3c0,-0.1 0.1,-0.2 0.1,-0.3c0,-0.1 0.1,-0.2 0.1,-0.3c0.1,-0.5 0.2,-1.1 0.3,-1.8c0.1,-0.7 0.3,-1.4 0.5,-1.9c0.3,-0.6 0.5,-1 0.5,-1z" id="Shape" fill="#687a27"/></g><g data-paper-data="{&quot;index&quot;:null}" id="Group"><path d="M206.66077,216.4c-2.8,2 -1.1,4.9 -1.6,5.5c-1,1.5 -2.6,-3.1 -2.6,-3.1c0,0 0.6,4.1 -0.6,4.9c-1.2,0.8 -2.4,-5.1 -2.4,-5.1c0,0 -0.9,2.9 -2.7,3.4c-1.8,0.5 0.4,-4.2 0.4,-4.2c-5.4,4 -4,0.4 -2.2,-0.5c1.8,-0.9 7.7,-6.4 9.9,-6.7" id="Shape" fill="#a3b339"/><path d="M220.26077,188.4c5.2,5.6 7.1,12.2 4.3,17.3c-2.8,5.1 -13.2,9.4 -17.3,11.4c-4.8,2.4 -8.8,-0.8 -5.8,-4.3c3,-3.4 11.2,-9.4 11,-12.8c-0.2,-3.4 -0.8,-4.4 -2.6,-8c-1.8,-3.5 5.1,-9.3 10.4,-3.6z" id="Shape" fill="#a3b339"/><path d="M205.26077,221c0,0 -0.1,-0.1 -0.2,-0.4c-0.1,-0.3 -0.2,-0.7 -0.3,-1.3c0,-0.3 0,-0.6 0.1,-1c0.1,-0.4 0.4,-0.8 0.8,-1c0.4,-0.3 0.8,-0.4 1.2,-0.6c0.4,-0.1 0.7,-0.3 1.2,-0.5c1.7,-0.8 3.6,-1.8 5.6,-2.9c1,-0.6 2,-1.2 3.1,-1.8c1,-0.6 2,-1.3 3,-2c1,-0.7 1.9,-1.5 2.8,-2.3c0.4,-0.4 0.8,-0.8 1.1,-1.3c0.2,-0.2 0.3,-0.5 0.4,-0.7c0.1,-0.3 0.3,-0.5 0.4,-0.8c0.4,-0.9 0.7,-2 0.8,-3c0.1,-1 0.1,-2 0,-2.9c-0.2,-1.8 -0.7,-3.3 -1,-4.3c-0.4,-1 -0.7,-1.5 -0.7,-1.5c0,0 0.1,0.1 0.3,0.4c0.2,0.2 0.4,0.6 0.7,1.1c0.5,1 1.2,2.4 1.6,4.3c0.2,0.9 0.3,2 0.3,3.1c-0.1,1.1 -0.2,2.3 -0.7,3.5c-0.1,0.3 -0.2,0.5 -0.4,0.8c-0.1,0.3 -0.3,0.6 -0.5,0.9c-0.4,0.6 -0.8,1 -1.2,1.5c-0.9,0.9 -1.9,1.7 -2.9,2.5c-1,0.8 -2.1,1.4 -3.1,2.1c-1.1,0.6 -2.1,1.2 -3.2,1.8c-2.1,1.1 -4.1,2 -5.8,2.7c-0.4,0.2 -0.9,0.4 -1.3,0.5c-0.4,0.1 -0.8,0.2 -1.1,0.3c-0.6,0.2 -0.8,0.8 -0.9,1.3c-0.1,0.5 -0.1,0.9 0,1.2c-0.1,0.1 -0.1,0.3 -0.1,0.3z" id="Shape" fill="#687a27"/><path d="M202.36077,211.8c0,0 1.1,-1.1 2.7,-2.7c0.8,-0.8 1.7,-1.8 2.7,-2.8c0.9,-1 1.9,-2.2 2.7,-3.4c0.4,-0.6 0.8,-1.2 1,-1.8c0.3,-0.6 0.4,-1.1 0.3,-1.9c0,-0.6 -0.1,-1.3 -0.2,-1.9c-0.1,-0.6 -0.3,-1.2 -0.4,-1.7c-0.3,-1.1 -0.6,-2 -0.9,-2.6c-0.2,-0.6 -0.4,-1 -0.4,-1c0,0 1.1,1.1 2.1,3.2c0.3,0.5 0.5,1.1 0.7,1.8c0.2,0.7 0.4,1.3 0.5,2.2c0,0.2 0,0.4 0,0.6v0.3c0,0.2 0,0.2 0,0.4c0,0.4 -0.2,0.8 -0.3,1.2c-0.3,0.8 -0.7,1.5 -1.2,2.1c-0.9,1.3 -2,2.4 -3.1,3.4c-0.5,0.5 -1.1,0.9 -1.6,1.4c-0.5,0.4 -1,0.8 -1.5,1.1c-1.8,1.4 -3.1,2.1 -3.1,2.1z" id="Shape" fill="#687a27"/><path d="M193.36077,219.5c0,0 0.1,0 0.2,0c0.1,0 0.2,-0.1 0.4,-0.2c0.2,-0.2 0.6,-0.5 1,-0.8c0.4,-0.3 0.9,-0.5 1.4,-0.5c0.4,-0.1 0.8,-0.1 0.8,-0.1c0,0 0,0.4 -0.3,0.8c-0.2,0.4 -0.6,0.9 -1.1,1.2c-0.3,0.2 -0.6,0.3 -0.9,0.3c-0.3,0.1 -0.6,0.1 -0.9,0c-0.3,-0.1 -0.5,-0.3 -0.6,-0.4c-0.1,-0.2 0,-0.3 0,-0.3z" id="Shape" fill="#687a27"/><path d="M196.76077,222c0,0 0.1,-0.4 0.3,-0.7c0.2,-0.4 0.5,-0.8 0.8,-1.2c0.3,-0.4 0.6,-0.7 1,-1c0.2,-0.1 0.3,-0.3 0.4,-0.4c0.1,-0.1 0.2,-0.1 0.2,-0.1c0,0 0,0.1 0.1,0.2c0.1,0.1 0.1,0.4 0.1,0.6c0,0.3 0,0.5 -0.1,0.8c-0.1,0.3 -0.3,0.6 -0.5,0.8c-0.4,0.5 -1,0.8 -1.5,0.9c-0.5,0.2 -0.8,0.1 -0.8,0.1z" id="Shape" fill="#687a27"/><path d="M201.86077,223.8c0,0 0,-0.1 0,-0.3c0,-0.2 0,-0.4 0,-0.6c0,-0.5 -0.1,-1 0,-1.6c0,-0.3 0.1,-0.6 0.1,-0.8c0.1,-0.3 0.1,-0.5 0.2,-0.8c0.1,-0.5 0.3,-0.8 0.3,-0.8c0,0 0.3,0.3 0.6,0.7c0.3,0.5 0.4,1.1 0.4,1.8c0,0.3 -0.1,0.7 -0.2,1c-0.1,0.3 -0.3,0.6 -0.5,0.8c-0.2,0.2 -0.4,0.3 -0.6,0.4c-0.2,0.2 -0.3,0.2 -0.3,0.2z" id="Shape" fill="#687a27"/></g><g data-paper-data="{&quot;index&quot;:null}" id="Group"><path d="M189.56077,156.2c0,-4.36305 3.53695,-7.9 7.9,-7.9c4.36305,0 7.9,3.53695 7.9,7.9c0,4.36305 -3.53695,7.9 -7.9,7.9c-4.36305,0 -7.9,-3.53695 -7.9,-7.9z" id="Oval" fill="#a3b339"/><path d="M190.36077,152.7c0,0 0.1,-0.3 0.3,-0.8c0.2,-0.5 0.6,-1.3 1.3,-2c0.3,-0.4 0.8,-0.8 1.3,-1.1c0.5,-0.3 1.1,-0.6 1.7,-0.8c0.6,-0.2 1.3,-0.3 2,-0.4c0.7,0 1.3,0 2.1,0.1c0.3,0.1 0.6,0.1 0.9,0.2c0.4,0.1 0.7,0.2 1,0.4c0.3,0.2 0.6,0.3 0.9,0.5c0.3,0.2 0.6,0.4 0.8,0.6c1,0.9 1.6,1.9 2,2.9c0.4,0.9 0.6,1.8 0.6,2.3c0.1,0.6 0,0.9 0,0.9c0,0 -0.1,-0.3 -0.4,-0.8c-0.2,-0.5 -0.6,-1.2 -1.1,-2c-0.3,-0.4 -0.6,-0.8 -0.9,-1.1c-0.3,-0.4 -0.8,-0.7 -1.2,-1c-0.2,-0.2 -0.5,-0.3 -0.7,-0.4c-0.2,-0.1 -0.5,-0.2 -0.8,-0.4l-0.8,-0.3c-0.3,-0.1 -0.6,-0.1 -0.9,-0.2c-0.5,-0.1 -1.2,-0.1 -1.7,-0.1c-0.6,0 -1.1,0.1 -1.7,0.2c-0.5,0.1 -1,0.3 -1.5,0.5c-0.5,0.2 -0.9,0.5 -1.2,0.7c-0.7,0.5 -1.3,1.1 -1.6,1.5c-0.2,0.4 -0.4,0.6 -0.4,0.6z" id="Shape" fill="#687a27"/></g><path d="M186.46077,161.5c0,0 0.1,-0.1 0.3,-0.4c0.2,-0.3 0.5,-0.6 0.9,-1.1c0.4,-0.5 0.9,-1 1.5,-1.6c0.6,-0.6 1.4,-1.2 2.3,-1.8c0.9,-0.6 1.9,-1.2 3,-1.6c1.1,-0.5 2.3,-0.9 3.6,-1.2c1.3,-0.3 2.6,-0.5 4,-0.6c1.4,-0.1 2.8,0 4.2,0c2.7,0.1 5.5,0.2 8.1,0.5c1.3,0.1 2.6,0.4 3.7,0.7c1.2,0.3 2.3,0.7 3.2,1.2c0.5,0.3 0.9,0.5 1.3,0.8c0.4,0.3 0.8,0.5 1.1,0.8c0.3,0.3 0.6,0.5 0.9,0.8c0.3,0.3 0.5,0.5 0.7,0.7c0.4,0.4 0.7,0.8 0.9,1.1c0.2,0.3 0.3,0.4 0.3,0.4c0,0 -0.1,-0.1 -0.4,-0.3c-0.3,-0.2 -0.6,-0.5 -1.1,-0.9c-0.2,-0.2 -0.5,-0.4 -0.8,-0.6c-0.3,-0.2 -0.6,-0.4 -1,-0.6c-0.7,-0.4 -1.5,-0.8 -2.5,-1.2c-0.9,-0.3 -2,-0.7 -3.1,-0.9c-1.1,-0.2 -2.3,-0.4 -3.6,-0.5c-1.3,-0.1 -2.6,-0.1 -3.9,-0.2c-1.4,0 -2.7,-0.1 -4.1,-0.1c-1.4,-0.1 -2.7,-0.1 -4,0c-1.3,0 -2.6,0.2 -3.8,0.4c-1.2,0.3 -2.4,0.6 -3.5,1c-1.1,0.4 -2.1,0.9 -3,1.3c-0.9,0.5 -1.7,1 -2.4,1.5c-0.7,0.5 -1.2,0.9 -1.7,1.3c-0.6,0.6 -1.1,1.1 -1.1,1.1z" data-paper-data="{&quot;index&quot;:null}" id="Shape" fill="#687a27"/><g data-paper-data="{&quot;index&quot;:null}" id="Group"><path d="M183.06077,169.4c0,-4.2 6,-14.7 17.6,-15.2c11.6,-0.5 21.4,-0.2 27.8,8.1c6.5,8.4 30.9,11.5 41.1,15.7c10.2,4.2 15.1,26.9 10.4,38c-4.7,11.1 -42,13.9 -57.3,-6.1c-15.3,-20 -15,-19.3 -21.7,-22.4c-14,-6.6 -17.9,-14.7 -17.9,-18.1z" id="Shape" fill="#a3b339"/><path d="M184.06077,173.9c0,0 2,0.2 4.9,0.8c1.5,0.3 3.2,0.7 5,1.3c0.9,0.3 1.8,0.6 2.8,0.9c0.9,0.3 1.9,0.7 2.8,1c0.9,0.4 1.9,0.8 2.8,1.2c0.9,0.4 1.8,0.8 2.6,1.1c0.8,0.4 1.7,0.7 2.5,0.9c0.8,0.3 1.6,0.5 2.3,0.7c1.4,0.4 2.6,0.6 3.5,0.6c0.9,0.1 1.4,0 1.4,0c0,0 -0.5,0.2 -1.4,0.3c-0.9,0.1 -2.2,0.1 -3.7,-0.1c-1.5,-0.2 -3.2,-0.6 -5,-1.2c-0.9,-0.3 -1.8,-0.7 -2.7,-1c-0.9,-0.3 -1.8,-0.7 -2.7,-1.1c-3.7,-1.4 -7.4,-2.7 -10.2,-3.7c-3,-0.9 -4.9,-1.7 -4.9,-1.7z" id="Shape" fill="#687a27"/><path d="M193.76077,166.9c0,0 0,-0.1 0,-0.2c0,-0.1 0.1,-0.4 0.2,-0.7c0.1,-0.3 0.4,-0.5 0.6,-0.7c0.3,-0.2 0.6,-0.4 0.9,-0.6c0.3,-0.1 0.7,-0.2 1,-0.3c0.2,0 0.4,0 0.5,0c0.2,0 0.3,0.1 0.5,0.1c0.1,0 0.2,0.1 0.2,0.1c0.1,0.1 0.1,0.2 0.1,0.2c0,0.1 0,0.3 0,0.4c-0.1,0.2 -0.2,0.2 -0.2,0.2c0,0 0,-0.1 0,-0.2c0,-0.1 -0.1,-0.1 -0.1,-0.1h-0.1h-0.1c-0.4,0 -1,0.3 -1.5,0.5c-0.6,0.2 -1.1,0.5 -1.5,0.7c-0.1,0.1 -0.2,0.1 -0.3,0.2c-0.1,0.1 -0.2,0.1 -0.2,0.2c0.1,0.1 0,0.2 0,0.2z" id="Shape" fill="#687a27"/><path d="M187.66077,178.5c0,0 0.2,0.3 0.8,0.7c0.5,0.4 1.3,1 2.3,1.7c1,0.7 2.3,1.5 3.7,2.4c1.5,0.9 3.1,1.9 5,2.8c1.9,0.8 4.1,1.7 6.2,2.9c2.1,1.3 4.1,3 5.9,5c1.8,2 3.5,4.2 5,6.5c1.6,2.3 3.2,4.6 5,6.7c1.8,2.2 3.6,4.2 5.7,6c2,1.8 4.2,3.4 6.4,4.8c4.5,2.7 9.1,4.3 13.2,5.2c2.1,0.4 3.9,0.7 5.6,0.9c0.8,0.1 1.6,0.2 2.4,0.2c0.7,0.1 1.4,0.1 2,0.1c1.2,0.1 2.2,0.1 2.9,0.1c0.7,0 1,0 1,0c0,0 -0.4,0 -1,0.1c-0.7,0 -1.6,0.1 -2.9,0.1c-0.6,0 -1.3,0 -2,0c-0.7,0 -1.6,0 -2.4,-0.1c-1.7,-0.1 -3.7,-0.3 -5.8,-0.6c-4.2,-0.7 -9.1,-2.2 -13.7,-4.8c-2.3,-1.3 -4.6,-2.9 -6.7,-4.8c-2.1,-1.9 -4.1,-4 -5.9,-6.2c-1.8,-2.2 -3.4,-4.5 -5,-6.8c-1.6,-2.3 -3.1,-4.5 -4.8,-6.4c-1.7,-1.9 -3.5,-3.7 -5.5,-5c-2,-1.3 -4.1,-2.2 -6,-3.1c-1.9,-1 -3.5,-2.1 -4.9,-3.1c-1.4,-1 -2.6,-1.9 -3.6,-2.7c-1,-0.8 -1.7,-1.4 -2.2,-1.9c-0.5,-0.4 -0.7,-0.7 -0.7,-0.7z" id="Shape" fill="#687a27"/></g><g data-paper-data="{&quot;index&quot;:null}" id="Group"><path d="M222.66077,226.3c-4.4,1.6 -7.4,4.6 -9.5,4.6c-2.1,0 3.2,-3.4 3.2,-3.4c0,0 -9.7,0.8 -10.5,-0.9c-0.9,-1.8 5.7,-0.9 7.7,-1.7c0,0 -6.8,-0.1 -5.5,-1.9c0.8,-1.1 3.9,0.9 6.9,0.2c0,0 -3.5,-1.2 -1.9,-2.3c1,-0.7 3.3,2 5.8,0.2" id="Shape" fill="#a3b339"/><path d="M235.66077,197.6c5.2,5.6 7.1,12.2 4.3,17.3c-2.8,5.1 -13.2,9.4 -17.3,11.4c-4.8,2.4 -8.8,-0.8 -5.8,-4.3c3,-3.4 11.2,-9.4 11,-12.8c-0.2,-3.4 -0.8,-4.4 -2.6,-8c-1.8,-3.6 5.1,-9.3 10.4,-3.6z" id="Shape" fill="#a3b339"/><path d="M215.46077,230.2c0,0 0.5,-0.4 1.5,-1.1c1,-0.7 2.4,-1.6 4.2,-2.6c0.4,-0.2 0.9,-0.5 1.5,-0.7c0.5,-0.2 1,-0.4 1.5,-0.7c1,-0.5 2.1,-1.1 3.2,-1.6c1.1,-0.6 2.2,-1.2 3.4,-1.9c1.1,-0.7 2.3,-1.3 3.3,-2.1c1.1,-0.7 2.1,-1.5 3.1,-2.3c0.9,-0.8 1.8,-1.7 2.4,-2.7c0.1,-0.3 0.3,-0.6 0.4,-0.8c0.1,-0.3 0.2,-0.5 0.3,-0.8c0.2,-0.5 0.3,-1.1 0.4,-1.6c0.2,-1.1 0.2,-2.1 0.2,-3.1c-0.2,-1.9 -0.6,-3.5 -1,-4.6c-0.2,-0.5 -0.4,-1 -0.5,-1.2c-0.1,-0.3 -0.2,-0.4 -0.2,-0.4c0,0 0.1,0.1 0.3,0.4c0.2,0.3 0.5,0.6 0.8,1.2c0.6,1 1.3,2.6 1.7,4.7c0.2,1 0.2,2.2 0.1,3.4c-0.1,0.6 -0.2,1.2 -0.3,1.8c-0.1,0.3 -0.2,0.6 -0.3,1c-0.1,0.3 -0.3,0.6 -0.4,0.9c-0.7,1.3 -1.6,2.3 -2.6,3.2c-1,0.9 -2.1,1.7 -3.3,2.5c-1.1,0.8 -2.3,1.4 -3.5,2.1c-1.2,0.7 -2.3,1.2 -3.5,1.8c-1.1,0.6 -2.3,1 -3.3,1.5c-0.5,0.2 -1.1,0.4 -1.6,0.6c-0.5,0.1 -1,0.4 -1.4,0.5c-1.8,0.8 -3.3,1.5 -4.4,2c-1.5,0.3 -2,0.6 -2,0.6z" id="Shape" fill="#687a27"/><path d="M218.36077,220.3c0,0 1,-1 2.6,-2.6c0.8,-0.8 1.7,-1.7 2.6,-2.7c0.9,-1 1.8,-2.1 2.6,-3.2c0.4,-0.6 0.7,-1.2 0.9,-1.8c0.1,-0.3 0.2,-0.6 0.2,-0.8v-0.5v-0.4c0,-0.6 -0.1,-1.2 -0.3,-1.8c-0.1,-0.6 -0.3,-1.1 -0.4,-1.7c-0.3,-1 -0.6,-1.9 -0.8,-2.5c-0.2,-0.6 -0.4,-1 -0.4,-1c0,0 1,1.1 2.1,3.1c0.3,0.5 0.5,1.1 0.7,1.7c0.2,0.6 0.4,1.3 0.5,2l0.1,0.6v0.5c0,0.5 -0.1,0.9 -0.2,1.3c-0.2,0.8 -0.6,1.5 -1,2.2c-0.9,1.3 -1.9,2.4 -2.9,3.4c-1,1 -2.1,1.8 -3,2.4c-2,1.1 -3.3,1.8 -3.3,1.8z" id="Shape" fill="#687a27"/><path d="M216.36077,227.5c0,0 -0.6,0.3 -1.6,0.6c-1,0.3 -2.4,0.5 -3.7,0.4c-0.7,0 -1.4,-0.1 -2,-0.2c-0.6,-0.1 -1.2,-0.3 -1.7,-0.6c-0.2,-0.1 -0.5,-0.2 -0.6,-0.4c-0.2,-0.1 -0.3,-0.2 -0.4,-0.4c-0.2,-0.3 -0.3,-0.4 -0.3,-0.4c0,0 0.2,0.1 0.5,0.1c0.1,0 0.3,0 0.5,0.1c0.2,0 0.4,0 0.7,0.1c0.2,0 0.5,0 0.8,0c0.3,0 0.6,0 0.9,0c0.6,0 1.3,0 1.9,0c1.3,0 2.6,0.1 3.6,0.3c0.7,0.2 1.4,0.4 1.4,0.4z" id="Shape" fill="#687a27"/><path d="M207.96077,222.9c0,0 0,0.1 0,0.3c0,0.1 0.1,0.1 0.2,0.2c0.1,0 0.2,0.1 0.3,0.1c0.1,0 0.2,0 0.4,0.1c0.1,0 0.3,0 0.5,0.1c0.3,0 0.7,0.1 1.1,0.2c0.2,0 0.4,0.1 0.6,0.1c0.2,0 0.4,0.1 0.6,0.1c0.4,0.1 0.7,0.2 1,0.3c0.6,0.2 1,0.5 1,0.5c0,0 -0.4,0.2 -1,0.4c-0.3,0.1 -0.7,0.1 -1.1,0.2c-0.4,0 -0.8,0 -1.2,-0.1c-0.4,-0.1 -0.9,-0.2 -1.2,-0.4c-0.2,-0.1 -0.4,-0.2 -0.6,-0.3c-0.2,-0.1 -0.3,-0.3 -0.4,-0.4c-0.1,-0.2 -0.2,-0.4 -0.2,-0.6c0,-0.2 0,-0.4 0.1,-0.5c-0.2,-0.2 0,-0.2 -0.1,-0.3z" id="Shape" fill="#687a27"/><path d="M212.96077,220.8c0,0 0,0.1 0,0.2c0,0.1 0,0.3 0.1,0.4c0,0 0.1,0.1 0.1,0h0.1c0.1,0 0.1,0 0.2,0.1l0.2,0.1c0.3,0.2 0.6,0.5 0.9,0.8c0.3,0.3 0.4,0.6 0.4,0.6c0,0 -0.3,0.2 -0.7,0.2c-0.4,0 -1,0 -1.5,-0.4c-0.1,-0.1 -0.2,-0.2 -0.4,-0.3c-0.1,-0.1 -0.2,-0.3 -0.3,-0.4c-0.1,-0.2 -0.1,-0.4 -0.1,-0.6c0,-0.2 0.1,-0.4 0.2,-0.5c0.2,-0.3 0.4,-0.3 0.6,-0.3c0.1,0.1 0.2,0.1 0.2,0.1z" id="Shape" fill="#687a27"/></g><g data-paper-data="{&quot;index&quot;:null}" id="Group"><g id="Shape" fill="#a3b339"><path d="M290.46077,202.9c4,-0.4 7.7,14.6 6,22c-1.7,7.4 -10.8,2.3 -11.1,-4.3c-0.3,-6.6 -0.1,-17.1 5.1,-17.7z"/><path d="M296.26077,220.2c1,1.8 1.6,13.1 -0.8,14.5c-2.4,1.4 -0.8,-5.2 -2.4,-5.2c-1.6,0 -4,7 -6,7c-2,0 2.6,-6.4 2.6,-6.4c0,0 -6.6,7.2 -8.2,5.8c-1.6,-1.4 5.6,-6.6 5.6,-6.6c0,0 -6.8,3.6 -8.4,2.2c-1.6,-1.4 3.2,-3.2 5.4,-3.4c2.2,-0.2 2,-4.4 1.2,-7.4"/></g><path d="M273.56077,210c7.1,-8.8 20,-13.7 20,-1.1c0,12.6 -20.8,21.8 -24.6,20.6c-6.6,-2 -2.5,-10.7 4.6,-19.5z" id="Shape" fill="#a3b339"/><path d="M280.66077,197.1c4,6.1 -1.1,32.1 -11.7,32.4c-10.6,0.3 -12,-15.8 -8.9,-27.2c4.9,-17.7 16.6,-11.1 20.6,-5.2z" id="Shape" fill="#a3b339"/><path d="M259.66077,204.2c0,0 -0.1,0.2 -0.1,0.6c-0.1,0.4 -0.1,1 -0.2,1.8c-0.2,1.5 -0.3,3.7 -0.2,6.4c0.1,2.6 0.2,5.7 1.1,8.8c0.5,1.5 1.1,3 2.1,4.2c1,1.2 2.4,2 4,2.3l1.3,0.2l1.2,0.1h1.3l1.3,-0.1c1.7,-0.1 3.3,-0.5 4.8,-1c3,-1 5.6,-2.7 7.6,-4.4c2,-1.7 3.5,-3.3 4.5,-4.5c1,-1.2 1.5,-1.9 1.5,-1.9c0,0 -0.4,0.8 -1.2,2.1c-0.4,0.6 -1,1.4 -1.7,2.3c-0.7,0.8 -1.5,1.8 -2.5,2.7c-1.9,1.9 -4.5,3.8 -7.7,5c-1.6,0.6 -3.3,1.1 -5.1,1.2l-1.4,0.1h-1.4l-1.4,-0.1l-1.3,-0.2c-1.9,-0.2 -3.8,-1.3 -5,-2.8c-1.2,-1.5 -1.9,-3.2 -2.3,-4.9c-0.4,-1.7 -0.6,-3.3 -0.7,-4.8c-0.1,-1.5 -0.1,-3 0,-4.3c0.2,-2.7 0.6,-4.9 0.9,-6.4c0.2,-0.8 0.3,-1.3 0.4,-1.7c0.1,-0.5 0.2,-0.7 0.2,-0.7z" id="Shape" fill="#687a27"/><path d="M285.26077,201.6c0,0 0.1,-0.1 0.3,-0.1c0.2,-0.1 0.5,-0.2 0.9,-0.3c0.4,-0.1 0.9,-0.2 1.5,-0.3c0.6,0 1.2,0 1.9,0.2c0.4,0.1 0.7,0.2 1.1,0.4c0.3,0.2 0.7,0.4 1.1,0.6c0.3,0.2 0.7,0.5 1,0.8c0.3,0.3 0.6,0.7 0.9,1c0.3,0.4 0.5,0.8 0.7,1.2c0.2,0.4 0.4,0.8 0.6,1.2c0.3,0.9 0.6,1.7 0.9,2.6c0.2,0.9 0.4,1.8 0.6,2.7c0.2,0.9 0.3,1.8 0.4,2.6c0.2,1.7 0.3,3.3 0.2,4.7c0,1.4 -0.1,2.5 -0.2,3.3c-0.1,0.4 -0.1,0.7 -0.2,0.9c0,0.1 -0.1,0.2 -0.1,0.2c-0.1,0 -0.1,-0.1 -0.1,-0.1c0,0 0,0 0.1,0c0,0 0.1,-0.1 0.1,-0.2c0,-0.2 0,-0.5 0,-0.9c-0.1,-0.8 -0.2,-1.9 -0.4,-3.2c-0.2,-1.3 -0.4,-2.9 -0.7,-4.5c-0.1,-0.8 -0.3,-1.7 -0.5,-2.5c-0.2,-0.9 -0.4,-1.7 -0.6,-2.6c-0.2,-0.8 -0.5,-1.7 -0.8,-2.5c-0.3,-0.8 -0.6,-1.6 -1.1,-2.2c-0.2,-0.3 -0.4,-0.7 -0.7,-0.9c-0.2,-0.3 -0.5,-0.6 -0.7,-0.8c-0.2,-0.3 -0.6,-0.4 -0.8,-0.6c-0.3,-0.1 -0.6,-0.3 -0.9,-0.4c-0.6,-0.3 -1.2,-0.4 -1.7,-0.4c-0.5,0 -1,-0.1 -1.4,0c-0.9,-0.1 -1.4,0.1 -1.4,0.1z" id="Shape" fill="#687a27"/><path d="M293.06077,229.4c0,0 -0.1,0.1 -0.2,0.3c-0.1,0.2 -0.3,0.6 -0.5,0.9c-0.2,0.4 -0.4,0.8 -0.6,1.3c-0.2,0.5 -0.5,1 -0.8,1.5c-0.6,1 -1.4,2 -2.3,2.5c-0.4,0.3 -0.9,0.4 -1.2,0.4c-0.3,0 -0.4,-0.2 -0.4,-0.1c0,0 0,0 0.1,0c0.1,0 0.2,-0.1 0.3,-0.1c0.2,-0.1 0.4,-0.4 0.6,-0.8c0.4,-0.7 0.9,-1.7 1.5,-2.7c0.3,-0.5 0.6,-1 1,-1.4c0.4,-0.5 0.7,-0.9 1.1,-1.2c0.4,-0.3 0.7,-0.5 1,-0.6c0.2,0 0.4,0 0.4,0z" id="Shape" fill="#687a27"/><path d="M289.66077,230c0,0 -0.2,0.7 -0.7,1.5c-0.2,0.4 -0.6,0.9 -1,1.4c-0.4,0.5 -0.9,1 -1.4,1.4c-0.5,0.4 -1.1,0.8 -1.7,1.1c-0.3,0.1 -0.6,0.3 -0.9,0.4c-0.3,0.1 -0.6,0.2 -0.8,0.2c-0.3,0.1 -0.5,0.1 -0.7,0c-0.2,0 -0.4,0 -0.6,-0.1c-0.3,-0.1 -0.4,-0.2 -0.4,-0.2c0,0 0.2,-0.1 0.4,-0.1c0.1,0 0.3,-0.1 0.5,-0.2c0.2,-0.1 0.3,-0.2 0.5,-0.3c0.2,-0.1 0.4,-0.3 0.6,-0.4c0.2,-0.1 0.4,-0.3 0.6,-0.5c0.4,-0.4 0.9,-0.8 1.4,-1.2c0.9,-0.8 1.9,-1.6 2.7,-2.2c0.9,-0.5 1.5,-0.8 1.5,-0.8z" id="Shape" fill="#687a27"/><path d="M278.76077,231.4c0,0 0.1,0.1 0.4,0c0.2,0 0.5,-0.1 0.9,-0.3c0.4,-0.1 0.8,-0.3 1.3,-0.5c0.5,-0.2 1,-0.4 1.5,-0.5c1,-0.3 2.1,-0.6 2.9,-0.8c0.8,-0.2 1.4,-0.1 1.4,-0.1c0,0 -0.4,0.5 -1.1,1c-0.7,0.5 -1.7,1.1 -2.8,1.5c-0.5,0.2 -1.1,0.3 -1.6,0.4c-0.5,0.1 -1.1,0.1 -1.5,0c-0.5,-0.1 -0.8,-0.2 -1.1,-0.4c-0.3,-0.1 -0.3,-0.3 -0.3,-0.3z" id="Shape" fill="#687a27"/><path d="M285.36077,221.9c0,0 0.4,0.3 0.6,0.9c0.3,0.5 0.5,1.3 0.5,2.2c0,0.4 -0.1,0.8 -0.2,1.2c-0.1,0.4 -0.3,0.7 -0.6,1c-0.1,0.1 -0.2,0.2 -0.4,0.3c-0.1,0.1 -0.2,0.1 -0.3,0.2c-0.2,0.1 -0.3,0.1 -0.3,0.1c0,0 0,-0.1 0.1,-0.3c0,-0.1 0,-0.2 0.1,-0.3c0,-0.1 0,-0.2 0,-0.4c0,-0.5 0,-1.2 0,-1.9c0,-0.7 0.1,-1.4 0.2,-2c0.2,-0.6 0.3,-1 0.3,-1z" id="Shape" fill="#687a27"/><path d="M261.96077,175.6c0,0 0.9,0 2.5,0.3c0.8,0.2 1.7,0.4 2.8,0.7c1.1,0.4 2.3,0.8 3.5,1.5c1.2,0.7 2.5,1.6 3.6,2.7c1.1,1.2 2.2,2.6 3,4.2c1.5,3.1 3,6.5 4,10.1c0.5,1.8 0.9,3.6 1.1,5.5c0.2,1.8 0.3,3.6 0.2,5.4c-0.2,3.5 -1.1,6.7 -2.1,9.3c-0.5,1.3 -1.1,2.4 -1.6,3.4c-0.5,1 -1.1,1.8 -1.5,2.5c-0.4,0.7 -0.8,1.2 -1.1,1.5c-0.3,0.3 -0.4,0.5 -0.4,0.5c0,0 0.4,-0.8 1.2,-2.2c0.4,-0.7 0.8,-1.6 1.2,-2.6c0.4,-1 0.9,-2.2 1.3,-3.5c0.4,-1.3 0.8,-2.7 1.1,-4.2c0.3,-1.5 0.5,-3.1 0.5,-4.8c0,-1.7 0,-3.4 -0.3,-5.1c-0.2,-1.7 -0.6,-3.5 -1.1,-5.2c-1,-3.5 -2.3,-6.8 -3.7,-9.9c-0.7,-1.5 -1.6,-2.8 -2.6,-4c-1,-1.1 -2.1,-2 -3.3,-2.8c-2.2,-1.5 -4.4,-2.3 -5.9,-2.7c-1.4,-0.5 -2.4,-0.6 -2.4,-0.6z" id="Shape" fill="#687a27"/></g><g data-paper-data="{&quot;index&quot;:null}" id="Group" fill="#969330"><path d="M276.66077,195.9c-2.7,2 -4.1,-3.5 -1.1,-6c2.6,-2.3 3.7,4 1.1,6z" id="Shape"/><path d="M266.26077,200.3c-4.3,1.1 -6,-5.9 -1.3,-8.1c4.9,-2.3 5.6,7 1.3,8.1z" id="Shape"/><path d="M267.46077,188.7c-3.3,-2.4 -2,-8.9 2.7,-6.7c4.7,2.3 5.8,12.8 -2.7,6.7z" id="Shape"/></g><path d="M208.46077,196.4c0,0 0.7,-0.1 1.9,-0.4c1.2,-0.2 2.9,-0.7 4.9,-1.3c2,-0.6 4.3,-1.5 6.6,-2.7c1.2,-0.6 2.3,-1.3 3.5,-2c1.1,-0.8 2.2,-1.5 3.3,-2.5c1.1,-0.9 2,-1.9 2.9,-2.9c0.8,-1 1.7,-2.1 2.3,-3.2c0.7,-1.1 1.2,-2.2 1.7,-3.3c0.5,-1.1 0.8,-2.2 1.2,-3.1c0.1,-0.5 0.3,-1 0.4,-1.4c0.1,-0.5 0.3,-0.9 0.3,-1.3c0.2,-0.8 0.3,-1.6 0.4,-2.2c0.2,-1.2 0.3,-1.9 0.3,-1.9c0,0 0,0.7 0,1.9c0,0.6 -0.1,1.4 -0.1,2.2c0,0.9 -0.2,1.8 -0.4,2.9c-0.1,0.5 -0.3,1.1 -0.4,1.6c-0.1,0.6 -0.4,1.1 -0.6,1.7c-0.4,1.2 -0.9,2.4 -1.6,3.6c-0.7,1.2 -1.4,2.4 -2.3,3.5c-0.9,1.1 -1.9,2.2 -3,3.1c-1.1,1 -2.3,1.8 -3.5,2.6c-1.2,0.7 -2.4,1.4 -3.7,1.9c-1.2,0.6 -2.5,1 -3.6,1.4c-1.2,0.4 -2.3,0.7 -3.3,0.9c-2.2,0.5 -4,0.7 -5.2,0.8c-1.2,0.1 -2,0.1 -2,0.1z" data-paper-data="{&quot;index&quot;:null}" id="Shape" fill="#4a3369"/><path d="M239.56077,168.4c0,0 2.8,-0.4 6.9,-0.1c1,0 2.2,0.2 3.4,0.3c1.2,0.2 2.4,0.3 3.7,0.6c1.3,0.3 2.6,0.5 3.9,1c1.3,0.4 2.6,0.8 4,1.3c1.3,0.4 2.6,1 3.9,1.6c0.6,0.2 1.2,0.6 1.8,0.9c0.6,0.3 1.2,0.6 1.8,0.9c1.2,0.6 2.2,1.3 3.2,1.9c1,0.6 1.9,1.3 2.8,1.9c0.8,0.6 1.6,1.2 2.3,1.7c0.6,0.6 1.2,1 1.6,1.4c0.9,0.8 1.4,1.3 1.4,1.3c0,0 -0.6,-0.4 -1.6,-1c-0.5,-0.3 -1.1,-0.7 -1.8,-1.2c-0.7,-0.5 -1.5,-0.9 -2.4,-1.4c-0.9,-0.5 -1.8,-1.1 -2.9,-1.6c-1.1,-0.5 -2.1,-1.2 -3.3,-1.7c-1.2,-0.5 -2.3,-1.1 -3.6,-1.6c-1.2,-0.5 -2.5,-1.1 -3.8,-1.5c-1.3,-0.5 -2.6,-0.9 -3.9,-1.3c-1.3,-0.4 -2.6,-0.7 -3.8,-1.1c-1.2,-0.3 -2.4,-0.6 -3.6,-0.8c-1.2,-0.2 -2.2,-0.5 -3.3,-0.6c-3.9,-0.8 -6.7,-0.9 -6.7,-0.9z" data-paper-data="{&quot;index&quot;:null}" id="Shape" fill="#4a3369"/><path d="M242.36077,217.5c0,0 0.8,-0.1 2.3,-0.4c0.7,-0.1 1.6,-0.3 2.5,-0.6c1,-0.3 2.1,-0.6 3.2,-1c2.3,-0.8 5,-1.9 7.7,-3.5c1.4,-0.7 2.7,-1.6 4,-2.5c1.3,-0.9 2.6,-1.9 3.8,-3.1c1.2,-1.1 2.4,-2.2 3.5,-3.4c0.5,-0.6 1,-1.2 1.6,-1.8c0.5,-0.6 1,-1.2 1.4,-1.9c0.9,-1.3 1.7,-2.5 2.5,-3.7c0.4,-0.6 0.7,-1.2 1,-1.8c0.3,-0.6 0.7,-1.1 0.9,-1.7c0.5,-1.1 1.1,-2.1 1.5,-3.1c0.4,-0.9 0.8,-1.7 1,-2.4c0.5,-1.4 0.9,-2.1 0.9,-2.1c0,0 -0.2,0.8 -0.6,2.2c-0.2,0.7 -0.5,1.6 -0.8,2.5c-0.3,1 -0.7,2.1 -1.2,3.2c-0.5,1.2 -1,2.4 -1.7,3.7c-0.7,1.3 -1.5,2.6 -2.3,3.9c-0.9,1.3 -1.9,2.6 -3,3.9c-1.1,1.2 -2.3,2.5 -3.6,3.6c-1.3,1.1 -2.6,2.2 -4,3.1c-1.4,0.9 -2.8,1.8 -4.2,2.5c-1.4,0.7 -2.8,1.3 -4.2,1.9c-1.4,0.5 -2.7,0.9 -3.9,1.2c-2.4,0.6 -4.5,0.9 -6,1c-1.5,0.4 -2.3,0.3 -2.3,0.3z" data-paper-data="{&quot;index&quot;:null}" id="Shape" fill="#4a3369"/><path d="M209.96077,197.4c0,0 2,0.9 4.9,2.5c1.5,0.8 3.1,1.7 4.9,2.8c1.8,1 3.7,2.2 5.5,3.3c0.9,0.6 1.9,1.2 2.8,1.8c0.9,0.6 1.8,1.2 2.7,1.7c1.7,1.1 3.3,2.2 4.7,3.2c2.7,1.9 4.4,3.3 4.4,3.3c0,0 -2,-0.9 -4.9,-2.5c-1.5,-0.8 -3.1,-1.7 -4.9,-2.8c-0.9,-0.5 -1.8,-1 -2.7,-1.6c-0.9,-0.6 -1.9,-1.1 -2.8,-1.7c-1.9,-1.2 -3.7,-2.3 -5.4,-3.5c-1.7,-1.1 -3.3,-2.2 -4.7,-3.2c-2.7,-1.9 -4.5,-3.3 -4.5,-3.3z" data-paper-data="{&quot;index&quot;:null}" id="Shape" fill="#4a3369"/><g data-paper-data="{&quot;index&quot;:null}" id="Group"><path d="M200.66077,154.1c0,0 11.5,-18.8 25.3,-31c0,0 2.1,32.1 0.8,37.7c0,0 -10,-9 -26.1,-6.7z" id="Shape" fill="#6d4b9b"/><path d="M226.76077,160.8c0,0 -0.2,-2.2 -0.4,-5.6c-0.1,-1.7 -0.2,-3.6 -0.3,-5.7c0,-1 -0.1,-2.1 -0.1,-3.2c0,-1.1 -0.1,-2.2 -0.1,-3.3c0,-1.1 0,-2.2 0,-3.3c0,-1.1 0,-2.2 0,-3.2c0,-2.1 0,-4 0,-5.7c0,-1.7 0.1,-3.1 0.1,-4.1c0,-1 0.1,-1.5 0.1,-1.5c0,0 0.4,2.2 0.8,5.6c0.2,1.7 0.3,3.6 0.5,5.7c0.1,2.1 0.2,4.3 0.3,6.6c0,2.2 0,4.5 0,6.6c0,2.1 -0.1,4.1 -0.2,5.7c-0.4,3.1 -0.7,5.4 -0.7,5.4z" id="Shape" fill="#4a3369"/><path d="M206.86077,146.5c0,0 1.5,-3.4 2.7,-4.6c0,0 0,-0.1 -0.2,-0.4c0.9,-1.2 1.9,-2.4 2.9,-3.7c0.1,0 0.2,0.1 0.3,0.2c0,0 2.7,-3.1 3.8,-4.2c0,0 1.1,4.7 0.4,5.8c0,0 4.8,1 6.4,2.3c0,0 -4.8,2.7 -6.7,2.1c0,0 0.5,3.9 -0.3,5.3c0,0 -3.4,-3.4 -3.8,-4.7c0,0 -1.8,1.1 -5.5,1.9z" id="Shape" fill="#e0c448"/><path d="M200.66077,154.1c0,0 1.2,-2.2 3.2,-5.4c1,-1.6 2.2,-3.4 3.5,-5.4c0.7,-1 1.4,-2 2.1,-3c0.7,-1 1.5,-2 2.3,-3c1.6,-2 3.1,-3.9 4.7,-5.7c0.8,-0.9 1.6,-1.7 2.3,-2.5c0.7,-0.8 1.5,-1.5 2.2,-2.1c0.7,-0.7 1.3,-1.2 2,-1.7c0.6,-0.5 1.1,-0.9 1.6,-1.2c0.9,-0.6 1.4,-1 1.4,-1c0,0 -0.5,0.4 -1.2,1.2c-0.4,0.4 -0.8,0.9 -1.4,1.4c-0.5,0.5 -1.1,1.2 -1.7,1.9c-1.2,1.4 -2.6,3.1 -4.1,4.9c-0.7,0.9 -1.5,1.9 -2.2,2.8c-0.8,1 -1.5,2 -2.3,2.9c-1.5,2 -3.1,4 -4.5,5.8c-1.4,1.9 -2.8,3.6 -3.9,5.1c-2.4,3.1 -4,5 -4,5z" id="Shape" fill="#4a3369"/></g><g data-paper-data="{&quot;index&quot;:null}" id="Group"><path d="M208.46077,196.4c0,0 4.1,-2.9 4.3,-7.6c0,0 19.7,-6 23.2,-25.8l2.1,5.3c0,0 24.1,-1.1 42.2,14.8c0,0 -6.6,32.1 -37.9,34.5z" id="Shape" fill="#6d4b9b"/><path d="M266.76077,188.9c0,0 -1.7,-2.6 -1.9,-4.4c0,0 3.4,0.5 4.2,1.3c0,0 2.2,-2.5 3.1,-3.4c0,0 0.8,3.7 0.3,4.6c0,0 3.7,0.8 5.1,1.8c0,0 -3.8,2.1 -5.4,1.7c0,0 0.5,3.1 -0.2,4.2c0,0 -2.7,-2.7 -3,-3.7c0,0 -1.5,0.8 -4.3,1.5c0,0.1 1.2,-2.6 2.1,-3.6z" id="Shape" fill="#e0c448"/><path d="M244.66077,205.2c0,0 0.4,-3.1 1.3,-4.6c0,0 2.3,2.5 2.4,3.7c0,0 3.3,-0.5 4.5,-0.6c0,0 -1.8,3.4 -2.7,3.7c0,0 2.3,3.1 2.7,4.7c0,0 -4.3,-0.8 -5.2,-2.2c0,0 -1.6,2.6 -2.9,3.1c0,0 -0.3,-3.8 0.1,-4.8c0,0 -1.7,-0.3 -4.3,-1.6c0.1,0.1 2.8,-1.2 4.1,-1.4z" id="Shape" fill="#e0c448"/><path d="M246.86077,182.7c0,0 -1.3,-2.8 -1.2,-4.6c0,0 3.3,1 4,1.9c0,0 2.6,-2.2 3.5,-2.9c0,0 0.3,3.8 -0.4,4.6c0,0 3.6,1.4 4.7,2.6c0,0 -4.1,1.5 -5.6,0.8c0,0 0,3.1 -0.9,4.1c0,0 -2.2,-3.1 -2.4,-4.2c0,0 -1.6,0.6 -4.5,0.9c0.1,0.1 1.7,-2.5 2.8,-3.2z" id="Shape" fill="#e0c448"/><path d="M225.96077,193.3c0,0 -3.1,-0.2 -4.6,-1.1c0,0 2.4,-2.4 3.6,-2.6c0,0 -0.7,-3.3 -0.9,-4.5c0,0 3.5,1.6 3.9,2.5c0,0 2.9,-2.5 4.5,-2.9c0,0 -0.6,4.3 -1.9,5.3c0,0 2.7,1.5 3.2,2.7c0,0 -3.7,0.5 -4.8,0.1c0,0 -0.2,1.7 -1.3,4.3c-0.1,0.2 -1.6,-2.5 -1.7,-3.8z" id="Shape" fill="#e0c448"/><path d="M241.66077,168.3c2.4,0.2 5.9,0.5 10,1.3c0.3,0.2 0.5,0.5 0.6,0.8c0,0 -3.8,0.5 -4.8,0.1c0,0 -0.2,1.6 -1.3,4.3c0,0 -1.5,-2.6 -1.7,-3.9c0,0 -3.1,-0.2 -4.6,-1.1c0,0 0.9,-0.8 1.8,-1.5z" id="Shape" fill="#e0c448"/><path d="M234.16077,212.5l-9.2,-5.8c-0.1,-0.6 -0.2,-1.1 -0.2,-1.4c0,0 3.5,1.6 3.9,2.5c0,0 2.9,-2.5 4.5,-2.9c0,0 -0.6,4.3 -1.9,5.3c0,0 2.1,1.1 2.9,2.3z" id="Shape" fill="#e0c448"/><path d="M208.46077,196.4c0,0 0.7,-0.1 1.9,-0.4c1.2,-0.2 2.9,-0.7 4.9,-1.3c2,-0.6 4.3,-1.5 6.6,-2.7c1.2,-0.6 2.3,-1.3 3.5,-2c1.1,-0.8 2.2,-1.5 3.3,-2.5c1.1,-0.9 2,-1.9 2.9,-2.9c0.8,-1 1.7,-2.1 2.3,-3.2c0.7,-1.1 1.2,-2.2 1.7,-3.3c0.5,-1.1 0.8,-2.2 1.2,-3.1c0.1,-0.5 0.3,-1 0.4,-1.4c0.1,-0.5 0.3,-0.9 0.3,-1.3c0.2,-0.8 0.3,-1.6 0.4,-2.2c0.2,-1.2 0.3,-1.9 0.3,-1.9c0,0 0,0.7 0,1.9c0,0.6 -0.1,1.4 -0.1,2.2c0,0.9 -0.2,1.8 -0.4,2.9c-0.1,0.5 -0.3,1.1 -0.4,1.6c-0.1,0.6 -0.4,1.1 -0.6,1.7c-0.4,1.2 -0.9,2.4 -1.6,3.6c-0.7,1.2 -1.4,2.4 -2.3,3.5c-0.9,1.1 -1.9,2.2 -3,3.1c-1.1,1 -2.3,1.8 -3.5,2.6c-1.2,0.7 -2.4,1.4 -3.7,1.9c-1.2,0.6 -2.5,1 -3.6,1.4c-1.2,0.4 -2.3,0.7 -3.3,0.9c-2.2,0.5 -4,0.7 -5.2,0.8c-1.2,0.1 -2,0.1 -2,0.1z" id="Shape" fill="#4a3369"/><path d="M239.56077,168.4c0,0 2.8,-0.4 6.9,-0.1c1,0 2.2,0.2 3.4,0.3c1.2,0.2 2.4,0.3 3.7,0.6c1.3,0.3 2.6,0.5 3.9,1c1.3,0.4 2.6,0.8 4,1.3c1.3,0.4 2.6,1 3.9,1.6c0.6,0.2 1.2,0.6 1.8,0.9c0.6,0.3 1.2,0.6 1.8,0.9c1.2,0.6 2.2,1.3 3.2,1.9c1,0.6 1.9,1.3 2.8,1.9c0.8,0.6 1.6,1.2 2.3,1.7c0.6,0.6 1.2,1 1.6,1.4c0.9,0.8 1.4,1.3 1.4,1.3c0,0 -0.6,-0.4 -1.6,-1c-0.5,-0.3 -1.1,-0.7 -1.8,-1.2c-0.7,-0.5 -1.5,-0.9 -2.4,-1.4c-0.9,-0.5 -1.8,-1.1 -2.9,-1.6c-1.1,-0.5 -2.1,-1.2 -3.3,-1.7c-1.2,-0.5 -2.3,-1.1 -3.6,-1.6c-1.2,-0.5 -2.5,-1.1 -3.8,-1.5c-1.3,-0.5 -2.6,-0.9 -3.9,-1.3c-1.3,-0.4 -2.6,-0.7 -3.8,-1.1c-1.2,-0.3 -2.4,-0.6 -3.6,-0.8c-1.2,-0.2 -2.2,-0.5 -3.3,-0.6c-3.9,-0.8 -6.7,-0.9 -6.7,-0.9z" id="Shape" fill="#4a3369"/><path d="M242.36077,217.5c0,0 0.8,-0.1 2.3,-0.4c0.7,-0.1 1.6,-0.3 2.5,-0.6c1,-0.3 2.1,-0.6 3.2,-1c2.3,-0.8 5,-1.9 7.7,-3.5c1.4,-0.7 2.7,-1.6 4,-2.5c1.3,-0.9 2.6,-1.9 3.8,-3.1c1.2,-1.1 2.4,-2.2 3.5,-3.4c0.5,-0.6 1,-1.2 1.6,-1.8c0.5,-0.6 1,-1.2 1.4,-1.9c0.9,-1.3 1.7,-2.5 2.5,-3.7c0.4,-0.6 0.7,-1.2 1,-1.8c0.3,-0.6 0.7,-1.1 0.9,-1.7c0.5,-1.1 1.1,-2.1 1.5,-3.1c0.4,-0.9 0.8,-1.7 1,-2.4c0.5,-1.4 0.9,-2.1 0.9,-2.1c0,0 -0.2,0.8 -0.6,2.2c-0.2,0.7 -0.5,1.6 -0.8,2.5c-0.3,1 -0.7,2.1 -1.2,3.2c-0.5,1.2 -1,2.4 -1.7,3.7c-0.7,1.3 -1.5,2.6 -2.3,3.9c-0.9,1.3 -1.9,2.6 -3,3.9c-1.1,1.2 -2.3,2.5 -3.6,3.6c-1.3,1.1 -2.6,2.2 -4,3.1c-1.4,0.9 -2.8,1.8 -4.2,2.5c-1.4,0.7 -2.8,1.3 -4.2,1.9c-1.4,0.5 -2.7,0.9 -3.9,1.2c-2.4,0.6 -4.5,0.9 -6,1c-1.5,0.4 -2.3,0.3 -2.3,0.3z" id="Shape" fill="#4a3369"/><path d="M209.96077,197.4c0,0 2,0.9 4.9,2.5c1.5,0.8 3.1,1.7 4.9,2.8c1.8,1 3.7,2.2 5.5,3.3c0.9,0.6 1.9,1.2 2.8,1.8c0.9,0.6 1.8,1.2 2.7,1.7c1.7,1.1 3.3,2.2 4.7,3.2c2.7,1.9 4.4,3.3 4.4,3.3c0,0 -2,-0.9 -4.9,-2.5c-1.5,-0.8 -3.1,-1.7 -4.9,-2.8c-0.9,-0.5 -1.8,-1 -2.7,-1.6c-0.9,-0.6 -1.9,-1.1 -2.8,-1.7c-1.9,-1.2 -3.7,-2.3 -5.4,-3.5c-1.7,-1.1 -3.3,-2.2 -4.7,-3.2c-2.7,-1.9 -4.5,-3.3 -4.5,-3.3z" id="Shape" fill="#4a3369"/><path d="M208.72022,198.28107c-0.84175,-1.98267 -0.69988,-3.93988 0.31688,-4.37155c1.01676,-0.43167 2.52337,0.82568 3.36512,2.80835c0.84175,1.98267 0.69988,3.93988 -0.31688,4.37155c-1.01676,0.43167 -2.52337,-0.82568 -3.36512,-2.80835z" id="Oval" fill="#bdabd6"/></g><g data-paper-data="{&quot;index&quot;:null}" id="Group"><g><path d="M204.86077,159c0,-4.58396 3.71604,-8.3 8.3,-8.3c4.58396,0 8.3,3.71604 8.3,8.3c0,4.58396 -3.71604,8.3 -8.3,8.3c-4.58396,0 -8.3,-3.71604 -8.3,-8.3z" id="Oval" fill="#a3b339"/><path d="M206.86077,159c0,-3.47939 2.82061,-6.3 6.3,-6.3c3.47939,0 6.3,2.82061 6.3,6.3c0,3.47939 -2.82061,6.3 -6.3,6.3c-3.47939,0 -6.3,-2.82061 -6.3,-6.3z" id="Oval" fill="#e7ffbd"/><path d="M218.36077,159.4c-1.1,2.8 -9.9,2.6 -9.9,-0.3c0,-4.1 11,-2.4 9.9,0.3z" id="Shape" fill="#2b3021"/><path d="M204.96077,157.6c0,0 0.1,-0.4 0.3,-1.1c0.2,-0.7 0.6,-1.7 1.3,-2.7c0.4,-0.5 0.8,-1 1.4,-1.5c0.6,-0.5 1.2,-1 2,-1.2c0.4,-0.2 0.8,-0.3 1.2,-0.4c0.4,-0.1 0.8,-0.2 1.3,-0.2c0.4,0 0.9,-0.1 1.3,0h0.6l0.6,0.1c0.9,0.1 1.7,0.4 2.4,0.8c0.8,0.4 1.4,0.9 2,1.5c0.5,0.6 1,1.2 1.3,1.9c0.3,0.7 0.6,1.3 0.7,1.9c0.2,0.6 0.3,1.2 0.3,1.7c0.1,0.5 0,1 0,1.3c0,0.7 -0.1,1.1 -0.1,1.1c0,0 0,-0.4 -0.1,-1.1c-0.1,-0.4 -0.1,-0.8 -0.2,-1.3c-0.1,-0.5 -0.2,-1 -0.4,-1.6c-0.2,-0.6 -0.5,-1.2 -0.8,-1.8c-0.3,-0.6 -0.8,-1.1 -1.3,-1.7c-0.5,-0.5 -1.1,-1 -1.9,-1.3c-0.7,-0.3 -1.5,-0.6 -2.2,-0.7l-0.6,-0.1h-0.6c-0.4,-0.1 -0.8,0 -1.2,0c-0.4,0 -0.8,0.1 -1.1,0.1c-0.4,0.1 -0.7,0.2 -1.1,0.3c-1.4,0.5 -2.5,1.5 -3.2,2.4c-0.8,0.9 -1.3,1.8 -1.6,2.5c-0.2,0.7 -0.3,1.1 -0.3,1.1z" id="Shape" fill="#687a27"/></g><path d="M206.76077,160.2c0,0 0,-0.3 0,-1c0,-0.6 0.1,-1.5 0.4,-2.5c0.3,-1 0.9,-2.2 2,-3.2c0.5,-0.5 1.2,-0.8 1.9,-1c0.7,-0.2 1.4,-0.3 2.2,-0.3c0.7,0 1.5,0.1 2.1,0.3c0.7,0.2 1.4,0.5 1.9,0.9c1.1,0.8 1.8,2 2.1,3.1c0.3,1 0.3,2 0.3,2.6c-0.1,0.6 -0.2,1 -0.2,1c0,0 0.1,-0.3 0,-1c0,-0.6 -0.2,-1.5 -0.5,-2.4c-0.4,-0.9 -1.1,-1.9 -2.1,-2.6c-0.5,-0.3 -1.1,-0.6 -1.7,-0.8c-0.6,-0.2 -1.3,-0.3 -2,-0.3c-0.6,0 -1.3,0 -1.9,0.2c-0.6,0.2 -1.2,0.4 -1.7,0.8c-1,0.7 -1.6,1.8 -2,2.7c-0.4,1 -0.6,1.8 -0.7,2.4c0,0.8 -0.1,1.1 -0.1,1.1z" id="Shape" fill="#687a27"/></g></g></g></svg>